<svg width="160" height="201" viewBox="0 0 160 201" fill="none" xmlns="http://www.w3.org/2000/svg">
<g clip-path="url(#clip0_51_1938)">
<rect y="0.650635" width="160" height="200" rx="8" fill="#F3FEDC"/>
<path d="M18.528 119.651V116.419H22.048C24.432 116.419 26.064 115.043 26.064 112.675C26.064 110.291 24.432 108.931 22.048 108.931H16.8V119.651H18.528ZM21.888 110.483C23.504 110.483 24.336 111.091 24.336 112.675C24.336 114.259 23.504 114.867 21.888 114.867H18.528V110.483H21.888ZM28.8249 119.651V115.187C28.8249 113.763 29.3849 113.011 30.7449 113.011C31.9289 113.011 32.4089 113.539 32.4089 114.675V115.379H34.1209V114.339C34.1209 112.835 33.3369 111.539 31.5289 111.539C29.8969 111.539 29.0329 112.563 28.7929 113.843H28.6809V111.699H27.0969V119.651H28.8249ZM39.2703 119.811C41.9263 119.811 43.7023 118.131 43.7023 115.683C43.7023 113.203 41.9263 111.539 39.2703 111.539C36.6303 111.539 34.8543 113.203 34.8543 115.683C34.8543 118.131 36.6303 119.811 39.2703 119.811ZM39.2703 118.275C37.3503 118.275 36.5503 117.363 36.5503 115.683C36.5503 113.987 37.3503 113.059 39.2703 113.059C41.2063 113.059 42.0063 113.987 42.0063 115.683C42.0063 117.363 41.2063 118.275 39.2703 118.275ZM46.6843 119.651V115.715C46.6843 113.955 47.2763 113.091 48.9883 113.091C50.5243 113.091 51.1323 113.763 51.1323 115.331V119.651H52.8443V115.715C52.8443 113.955 53.4523 113.091 55.1483 113.091C56.6843 113.091 57.3083 113.763 57.3083 115.331V119.651H59.0203V114.867C59.0203 112.947 57.9803 111.539 55.9163 111.539C53.9003 111.539 53.0043 112.803 52.7963 114.163H52.7003C52.4763 112.643 51.5003 111.539 49.6923 111.539C47.7083 111.539 46.8443 112.771 46.6363 114.099H46.5403V111.699H44.9563V119.651H46.6843ZM62.2936 122.371V117.411H62.3576C62.6776 118.867 63.8296 119.811 65.6216 119.811C68.1016 119.811 69.4616 118.147 69.4616 115.683C69.4616 113.219 68.0696 111.539 65.6056 111.539C63.7336 111.539 62.6136 112.435 62.2936 113.907H62.1496V111.699H60.5656V122.371H62.2936ZM62.2936 115.811V115.667C62.2936 113.955 63.2856 113.123 65.0616 113.123C66.7256 113.123 67.7336 113.763 67.7336 115.683C67.7336 117.587 66.7416 118.243 65.0296 118.243C63.3336 118.243 62.2936 117.443 62.2936 115.811ZM75.8754 119.651V118.099H74.4354C73.4434 118.099 72.9954 117.843 72.9954 116.867V113.139H75.8754V111.699H72.9954V109.955H71.2834V111.699H69.9394V113.139H71.2834V116.963C71.2834 118.899 72.3394 119.651 74.0514 119.651H75.8754ZM82.0266 119.811C83.8346 119.811 85.0986 119.011 85.5146 117.667H85.6266V119.651H87.2106V114.819C87.2106 112.915 86.0746 111.539 83.5466 111.539C81.0186 111.539 79.5146 112.899 79.5146 114.707V114.771H81.2266V114.707C81.2266 113.539 81.9466 113.059 83.4186 113.059C84.9386 113.059 85.5146 113.523 85.5146 114.835V115.299L81.8986 115.683C80.3306 115.859 79.3386 116.499 79.3386 117.731C79.3386 119.043 80.3786 119.811 82.0266 119.811ZM81.0666 117.619C81.0666 116.995 81.4986 116.787 82.3946 116.675L85.5146 116.323C85.5146 117.891 84.2986 118.563 82.4906 118.563C81.4986 118.563 81.0666 118.259 81.0666 117.619ZM90.4811 119.651V115.715C90.4811 113.987 91.2651 113.091 93.0091 113.091C94.6571 113.091 95.3291 113.843 95.3291 115.331V119.651H97.0571V114.867C97.0571 113.027 95.9691 111.539 93.7611 111.539C91.7451 111.539 90.6891 112.819 90.4491 114.163H90.3371V111.699H88.7531V119.651H90.4811ZM102.101 119.811C103.893 119.811 105.061 118.947 105.397 117.363H105.509V119.651H107.093V108.931H105.365V113.859H105.269C104.949 112.515 103.877 111.539 101.989 111.539C99.5729 111.539 98.1969 113.203 98.1969 115.683C98.1969 118.131 99.5889 119.811 102.101 119.811ZM99.9409 115.683C99.9409 113.763 100.933 113.107 102.597 113.107C104.373 113.107 105.365 113.939 105.365 115.635V115.763C105.365 117.427 104.325 118.227 102.629 118.227C100.917 118.227 99.9409 117.587 99.9409 115.683ZM20.8 139.811C23.168 139.811 24.832 138.643 24.832 136.947V136.803H23.104V136.931C23.104 137.875 22.416 138.419 20.752 138.419C18.912 138.419 18.16 137.603 18.096 136.067H24.848C24.896 135.827 24.912 135.603 24.912 135.315C24.912 132.899 23.232 131.539 20.768 131.539C18.176 131.539 16.48 133.203 16.48 135.683C16.48 138.339 18.192 139.811 20.8 139.811ZM20.736 132.899C22.432 132.899 23.28 133.603 23.28 135.075V135.107H18.112C18.208 133.683 18.976 132.899 20.736 132.899ZM28.5423 139.651V133.139H31.3903V131.699H28.5103C28.4143 130.547 29.0703 130.211 30.3343 130.211H31.3903V128.931H30.6063C28.3503 128.931 27.0223 129.955 26.8303 131.699H25.6143V133.139H26.8143V139.651H28.5423ZM34.4143 139.651V133.139H37.2623V131.699H34.3823C34.3023 130.547 34.9423 130.211 36.2063 130.211H37.2623V128.931H36.4783C34.2222 128.931 32.9103 129.955 32.7183 131.699H31.4863V133.139H32.7023V139.651H34.4143ZM39.9503 130.771V128.931H38.2383V130.771H39.9503ZM39.9503 139.651V131.699H38.2383V139.651H39.9503ZM45.5816 139.811C47.9656 139.811 49.7096 138.467 49.7096 136.483V136.307H47.9976V136.419C47.9976 137.651 47.1016 138.259 45.5496 138.259C43.7576 138.259 42.9576 137.395 42.9576 135.683C42.9576 133.939 43.7576 133.091 45.5496 133.091C47.1016 133.091 47.9976 133.699 47.9976 134.931V135.027H49.7096V134.867C49.7096 132.883 47.9656 131.539 45.5816 131.539C42.9576 131.539 41.2456 133.203 41.2456 135.683C41.2456 138.131 42.9576 139.811 45.5816 139.811ZM52.7155 130.771V128.931H50.9875V130.771H52.7155ZM52.7155 139.651V131.699H50.9875V139.651H52.7155ZM58.3156 139.811C60.6836 139.811 62.3476 138.643 62.3476 136.947V136.803H60.6196V136.931C60.6196 137.875 59.9316 138.419 58.2676 138.419C56.4276 138.419 55.6756 137.603 55.6116 136.067H62.3636C62.4116 135.827 62.4276 135.603 62.4276 135.315C62.4276 132.899 60.7476 131.539 58.2836 131.539C55.6916 131.539 53.9956 133.203 53.9956 135.683C53.9956 138.339 55.7076 139.811 58.3156 139.811ZM58.2516 132.899C59.9476 132.899 60.7956 133.603 60.7956 135.075V135.107H55.6276C55.7236 133.683 56.4916 132.899 58.2516 132.899ZM65.4499 139.651V135.715C65.4499 133.987 66.2339 133.091 67.9779 133.091C69.6259 133.091 70.2979 133.843 70.2979 135.331V139.651H72.0259V134.867C72.0259 133.027 70.9379 131.539 68.7299 131.539C66.7139 131.539 65.6579 132.819 65.4179 134.163H65.3059V131.699H63.7219V139.651H65.4499ZM78.7816 139.651V138.099H77.3416C76.3496 138.099 75.9016 137.843 75.9016 136.867V133.139H78.7816V131.699H75.9016V129.955H74.1896V131.699H72.8456V133.139H74.1896V136.963C74.1896 138.899 75.2456 139.651 76.9576 139.651H78.7816ZM20.816 159.811C23.2 159.811 24.944 158.467 24.944 156.483V156.307H23.232V156.419C23.232 157.651 22.336 158.259 20.784 158.259C18.992 158.259 18.192 157.395 18.192 155.683C18.192 153.939 18.992 153.091 20.784 153.091C22.336 153.091 23.232 153.699 23.232 154.931V155.027H24.944V154.867C24.944 152.883 23.2 151.539 20.816 151.539C18.192 151.539 16.48 153.203 16.48 155.683C16.48 158.131 18.192 159.811 20.816 159.811ZM29.5339 159.811C31.5819 159.811 32.6379 158.531 32.8939 157.187H32.9899V159.651H34.5739V151.699H32.8619V155.635C32.8619 157.363 32.0459 158.259 30.2859 158.259C28.6059 158.259 27.9179 157.507 27.9179 156.019V151.699H26.2059V156.483C26.2059 158.323 27.2939 159.811 29.5339 159.811ZM39.9038 159.811C42.1438 159.811 43.6158 158.931 43.6158 157.443C43.6158 156.131 42.7518 155.491 40.8638 155.251L39.0238 154.995C37.8238 154.835 37.5038 154.611 37.5038 153.987C37.5038 153.235 38.0158 152.915 39.4718 152.915C41.2318 152.915 41.7118 153.411 41.7118 154.355V154.451H43.4237V154.403C43.4237 152.515 41.9518 151.539 39.5198 151.539C37.0718 151.539 35.8078 152.531 35.8078 153.923C35.8078 155.251 36.7198 155.891 38.2238 156.083L40.3998 156.371C41.5358 156.531 41.9198 156.739 41.9198 157.395C41.9198 158.099 41.4558 158.419 39.9038 158.419C38.2398 158.419 37.6158 158.083 37.6158 157.043V156.915H35.8878V156.963C35.8878 158.803 37.3438 159.811 39.9038 159.811ZM50.0785 159.651V158.099H48.6385C47.6465 158.099 47.1985 157.843 47.1985 156.867V153.139H50.0785V151.699H47.1985V149.955H45.4865V151.699H44.1425V153.139H45.4865V156.963C45.4865 158.899 46.5425 159.651 48.2545 159.651H50.0785ZM55.2234 159.811C57.8794 159.811 59.6554 158.131 59.6554 155.683C59.6554 153.203 57.8794 151.539 55.2234 151.539C52.5834 151.539 50.8074 153.203 50.8074 155.683C50.8074 158.131 52.5834 159.811 55.2234 159.811ZM55.2234 158.275C53.3034 158.275 52.5034 157.363 52.5034 155.683C52.5034 153.987 53.3034 153.059 55.2234 153.059C57.1594 153.059 57.9594 153.987 57.9594 155.683C57.9594 157.363 57.1594 158.275 55.2234 158.275ZM62.6374 159.651V155.715C62.6374 153.955 63.2294 153.091 64.9414 153.091C66.4774 153.091 67.0854 153.763 67.0854 155.331V159.651H68.7974V155.715C68.7974 153.955 69.4054 153.091 71.1014 153.091C72.6374 153.091 73.2614 153.763 73.2614 155.331V159.651H74.9734V154.867C74.9734 152.947 73.9334 151.539 71.8694 151.539C69.8534 151.539 68.9574 152.803 68.7494 154.163H68.6534C68.4294 152.643 67.4534 151.539 65.6454 151.539C63.6614 151.539 62.7974 152.771 62.5894 154.099H62.4934V151.699H60.9094V159.651H62.6374ZM80.5188 159.811C82.8868 159.811 84.5508 158.643 84.5508 156.947V156.803H82.8228V156.931C82.8228 157.875 82.1348 158.419 80.4708 158.419C78.6308 158.419 77.8788 157.603 77.8148 156.067H84.5668C84.6148 155.827 84.6308 155.603 84.6308 155.315C84.6308 152.899 82.9508 151.539 80.4868 151.539C77.8948 151.539 76.1988 153.203 76.1988 155.683C76.1988 158.339 77.9108 159.811 80.5188 159.811ZM80.4548 152.899C82.1508 152.899 82.9988 153.603 82.9988 155.075V155.107H77.8307C77.9268 153.683 78.6948 152.899 80.4548 152.899ZM87.653 159.651V155.187C87.653 153.763 88.213 153.011 89.573 153.011C90.757 153.011 91.237 153.539 91.237 154.675V155.379H92.949V154.339C92.949 152.835 92.165 151.539 90.357 151.539C88.725 151.539 87.861 152.563 87.621 153.843H87.509V151.699H85.925V159.651H87.653ZM20.56 179.811C22.8 179.811 24.272 178.931 24.272 177.443C24.272 176.131 23.408 175.491 21.52 175.251L19.68 174.995C18.48 174.835 18.16 174.611 18.16 173.987C18.16 173.235 18.672 172.915 20.128 172.915C21.888 172.915 22.368 173.411 22.368 174.355V174.451H24.08V174.403C24.08 172.515 22.608 171.539 20.176 171.539C17.728 171.539 16.464 172.531 16.464 173.923C16.464 175.251 17.376 175.891 18.88 176.083L21.056 176.371C22.192 176.531 22.576 176.739 22.576 177.395C22.576 178.099 22.112 178.419 20.56 178.419C18.896 178.419 18.272 178.083 18.272 177.043V176.915H16.544V176.963C16.544 178.803 18 179.811 20.56 179.811ZM28.8307 179.811C30.8788 179.811 31.9348 178.531 32.1908 177.187H32.2868V179.651H33.8708V171.699H32.1588V175.635C32.1588 177.363 31.3428 178.259 29.5828 178.259C27.9028 178.259 27.2148 177.507 27.2148 176.019V171.699H25.5028V176.483C25.5028 178.323 26.5908 179.811 28.8307 179.811ZM37.1686 182.371V177.411H37.2326C37.5526 178.867 38.7046 179.811 40.4966 179.811C42.9766 179.811 44.3366 178.147 44.3366 175.683C44.3366 173.219 42.9446 171.539 40.4806 171.539C38.6086 171.539 37.4886 172.435 37.1686 173.907H37.0246V171.699H35.4406V182.371H37.1686ZM37.1686 175.811V175.667C37.1686 173.955 38.1606 173.123 39.9366 173.123C41.6006 173.123 42.6086 173.763 42.6086 175.683C42.6086 177.587 41.6166 178.243 39.9046 178.243C38.2086 178.243 37.1686 177.443 37.1686 175.811ZM47.2624 182.371V177.411H47.3264C47.6464 178.867 48.7984 179.811 50.5904 179.811C53.0704 179.811 54.4304 178.147 54.4304 175.683C54.4304 173.219 53.0384 171.539 50.5744 171.539C48.7024 171.539 47.5824 172.435 47.2624 173.907H47.1184V171.699H45.5344V182.371H47.2624ZM47.2624 175.811V175.667C47.2624 173.955 48.2544 173.123 50.0304 173.123C51.6944 173.123 52.7024 173.763 52.7024 175.683C52.7024 177.587 51.7104 178.243 49.9984 178.243C48.3024 178.243 47.2624 177.443 47.2624 175.811ZM59.6921 179.811C62.3481 179.811 64.1241 178.131 64.1241 175.683C64.1241 173.203 62.3481 171.539 59.6921 171.539C57.0521 171.539 55.2761 173.203 55.2761 175.683C55.2761 178.131 57.0521 179.811 59.6921 179.811ZM59.6921 178.275C57.7721 178.275 56.9721 177.363 56.9721 175.683C56.9721 173.987 57.7721 173.059 59.6921 173.059C61.6281 173.059 62.4281 173.987 62.4281 175.683C62.4281 177.363 61.6281 178.275 59.6921 178.275ZM67.1061 179.651V175.187C67.1061 173.763 67.6661 173.011 69.0261 173.011C70.2101 173.011 70.6901 173.539 70.6901 174.675V175.379H72.4021V174.339C72.4021 172.835 71.6181 171.539 69.8101 171.539C68.1781 171.539 67.3141 172.563 67.0741 173.843H66.9621V171.699H65.3781V179.651H67.1061ZM78.7035 179.651V178.099H77.2635C76.2715 178.099 75.8235 177.843 75.8235 176.867V173.139H78.7035V171.699H75.8235V169.955H74.1115V171.699H72.7675V173.139H74.1115V176.963C74.1115 178.899 75.1675 179.651 76.8795 179.651H78.7035Z" fill="#333333"/>
<g opacity="0.5">
<line x1="24.5205" y1="104.983" x2="24.5205" y2="-36.5318" stroke="url(#paint0_linear_51_1938)"/>
<line x1="60.5205" y1="104.983" x2="60.5205" y2="-36.5318" stroke="url(#paint1_linear_51_1938)"/>
<line x1="96.5205" y1="104.983" x2="96.5205" y2="-36.5318" stroke="url(#paint2_linear_51_1938)"/>
<line x1="132.521" y1="104.983" x2="132.521" y2="-36.5318" stroke="url(#paint3_linear_51_1938)"/>
<line x1="-28.4453" y1="3.84424" x2="229.941" y2="3.84422" stroke="url(#paint4_linear_51_1938)"/>
<line x1="-28.4453" y1="62.8442" x2="229.941" y2="62.8442" stroke="url(#paint5_linear_51_1938)"/>
<line x1="-28.4453" y1="32.8442" x2="229.941" y2="32.8442" stroke="url(#paint6_linear_51_1938)"/>
</g>
<rect x="16.5" y="17" width="71" height="71" rx="35.5" fill="url(#paint7_linear_51_1938)"/>
<path d="M39.5978 36.1515C43.229 35.679 46.9303 35.4375 50.6875 35.4375C54.4447 35.4375 58.146 35.6807 61.7773 36.1515C65.1407 36.589 67.5365 39.4083 67.736 42.6738C67.1509 42.4788 66.5446 42.3549 65.93 42.3045C61.0268 41.8975 56.0982 41.8975 51.195 42.3045C47.0685 42.6475 44.125 46.137 44.125 50.064V57.5645C44.1234 59.0061 44.5201 60.4201 45.2715 61.6505C46.0228 62.8808 47.0995 63.8796 48.3827 64.5365L43.74 69.1775C43.5564 69.3608 43.3227 69.4856 43.0682 69.5362C42.8138 69.5867 42.5501 69.5607 42.3104 69.4615C42.0707 69.3623 41.8658 69.1942 41.7216 68.9786C41.5773 68.763 41.5002 68.5094 41.5 68.25V61.1975C40.8651 61.13 40.231 61.0553 39.5978 60.9735C36.0838 60.515 33.625 57.4578 33.625 54.0085V43.1165C33.625 39.669 36.0838 36.61 39.5978 36.1532V36.1515Z" fill="#A4D143"/>
<path d="M58.5625 44.625C56.1545 44.625 53.7692 44.7248 51.412 44.9208C48.717 45.1448 46.75 47.4303 46.75 50.0658V57.5645C46.75 60.2018 48.724 62.489 51.4225 62.7095C53.5978 62.888 55.7975 62.9843 58.0165 62.9983L62.885 67.865C63.0686 68.0483 63.3023 68.1731 63.5568 68.2237C63.8112 68.2742 64.0749 68.2483 64.3146 68.149C64.5543 68.0498 64.7592 67.8817 64.9034 67.6661C65.0477 67.4505 65.1248 67.1969 65.125 66.9375V62.755L65.7025 62.7095C68.401 62.4908 70.375 60.2018 70.375 57.5645V50.064C70.375 47.4303 68.4062 45.1448 65.713 44.919C63.3346 44.7223 60.949 44.6242 58.5625 44.625Z" fill="#83A735"/>
<rect x="16.5" y="17" width="71" height="71" rx="35.5" stroke="url(#paint8_linear_51_1938)"/>
</g>
<defs>
<linearGradient id="paint0_linear_51_1938" x1="26.0208" y1="168.078" x2="26.0208" y2="34.2257" gradientUnits="userSpaceOnUse">
<stop stop-color="#CFFC6D" stop-opacity="0"/>
<stop offset="1" stop-color="#CFFC6D"/>
</linearGradient>
<linearGradient id="paint1_linear_51_1938" x1="62.0208" y1="168.078" x2="62.0208" y2="34.2257" gradientUnits="userSpaceOnUse">
<stop stop-color="#CFFC6D" stop-opacity="0"/>
<stop offset="1" stop-color="#CFFC6D"/>
</linearGradient>
<linearGradient id="paint2_linear_51_1938" x1="98.0208" y1="168.078" x2="98.0208" y2="34.2257" gradientUnits="userSpaceOnUse">
<stop stop-color="#CFFC6D" stop-opacity="0"/>
<stop offset="1" stop-color="#CFFC6D"/>
</linearGradient>
<linearGradient id="paint3_linear_51_1938" x1="134.021" y1="168.078" x2="134.021" y2="34.2257" gradientUnits="userSpaceOnUse">
<stop stop-color="#CFFC6D" stop-opacity="0"/>
<stop offset="1" stop-color="#CFFC6D"/>
</linearGradient>
<linearGradient id="paint4_linear_51_1938" x1="240.724" y1="4.34424" x2="-37.6865" y2="4.3445" gradientUnits="userSpaceOnUse">
<stop offset="0.0064688" stop-color="#E8FDBE"/>
<stop offset="0.746449" stop-color="#E8FDBE"/>
</linearGradient>
<linearGradient id="paint5_linear_51_1938" x1="240.724" y1="63.3442" x2="-37.6865" y2="63.3445" gradientUnits="userSpaceOnUse">
<stop offset="0.0064688" stop-color="#E8FDBE"/>
<stop offset="0.746449" stop-color="#E8FDBE"/>
</linearGradient>
<linearGradient id="paint6_linear_51_1938" x1="240.724" y1="33.3442" x2="-37.6865" y2="33.3445" gradientUnits="userSpaceOnUse">
<stop offset="0.0064688" stop-color="#E8FDBE"/>
<stop offset="0.746449" stop-color="#E8FDBE"/>
</linearGradient>
<linearGradient id="paint7_linear_51_1938" x1="52" y1="16.5" x2="54.1764" y2="112.662" gradientUnits="userSpaceOnUse">
<stop stop-color="#E1FBAA"/>
<stop offset="0.703509" stop-color="#E8FDBE" stop-opacity="0"/>
</linearGradient>
<linearGradient id="paint8_linear_51_1938" x1="52" y1="16.5" x2="52" y2="88.5" gradientUnits="userSpaceOnUse">
<stop stop-color="#CFF981"/>
<stop offset="1" stop-color="#E8FDBE" stop-opacity="0"/>
</linearGradient>
<clipPath id="clip0_51_1938">
<rect y="0.650635" width="160" height="200" rx="8" fill="white"/>
</clipPath>
</defs>
</svg>
