<svg width="160" height="201" viewBox="0 0 160 201" fill="none" xmlns="http://www.w3.org/2000/svg">
<g clip-path="url(#clip0_51_1933)">
<rect y="0.650635" width="160" height="200" rx="8" fill="#F3FEDC"/>
<path d="M21.296 159.811C24.464 159.811 25.792 158.307 25.792 156.675C25.792 155.107 24.736 154.131 22.592 153.747L19.984 153.299C18.72 153.027 18.176 152.723 18.176 151.795C18.176 150.835 18.944 150.355 20.896 150.355C23.12 150.355 23.904 151.011 23.904 152.323V152.531H25.616V152.435C25.616 150.339 24.192 148.771 21.056 148.771C17.728 148.771 16.448 150.339 16.448 151.891C16.448 153.651 17.728 154.483 19.536 154.803L22.16 155.235C23.52 155.491 24.064 155.843 24.064 156.771C24.064 157.779 23.344 158.227 21.296 158.227C18.944 158.227 18.192 157.587 18.192 156.307V156.051H16.464V156.147C16.464 158.403 18.096 159.811 21.296 159.811ZM32.2348 159.651V158.099H30.7948C29.8028 158.099 29.3548 157.843 29.3548 156.867V153.139H32.2348V151.699H29.3548V149.955H27.6428V151.699H26.2988V153.139H27.6428V156.963C27.6428 158.899 28.6988 159.651 30.4108 159.651H32.2348ZM35.6516 159.811C37.4596 159.811 38.7236 159.011 39.1396 157.667H39.2516V159.651H40.8356V154.819C40.8356 152.915 39.6996 151.539 37.1716 151.539C34.6436 151.539 33.1396 152.899 33.1396 154.707V154.771H34.8516V154.707C34.8516 153.539 35.5716 153.059 37.0436 153.059C38.5636 153.059 39.1396 153.523 39.1396 154.835V155.299L35.5236 155.683C33.9556 155.859 32.9636 156.499 32.9636 157.731C32.9636 159.043 34.0036 159.811 35.6516 159.811ZM34.6916 157.619C34.6916 156.995 35.1236 156.787 36.0196 156.675L39.1396 156.323C39.1396 157.891 37.9236 158.563 36.1156 158.563C35.1236 158.563 34.6916 158.259 34.6916 157.619ZM43.9621 159.651V157.363H44.0741C44.4101 158.947 45.5781 159.811 47.3861 159.811C49.9141 159.811 51.2741 158.131 51.2741 155.683C51.2741 153.203 49.9301 151.539 47.4821 151.539C45.5781 151.539 44.5221 152.515 44.2021 153.859H44.1061V148.931H42.3781V159.651H43.9621ZM44.1061 155.763V155.635C44.1061 153.939 45.0821 153.107 46.8741 153.107C48.5701 153.107 49.5461 153.763 49.5461 155.683C49.5461 157.587 48.5861 158.227 46.8421 158.227C45.1301 158.227 44.1061 157.427 44.1061 155.763ZM54.1999 159.651V148.931H52.4719V159.651H54.1999ZM59.8 159.811C62.168 159.811 63.832 158.643 63.832 156.947V156.803H62.104V156.931C62.104 157.875 61.416 158.419 59.752 158.419C57.912 158.419 57.16 157.603 57.096 156.067H63.848C63.896 155.827 63.912 155.603 63.912 155.315C63.912 152.899 62.232 151.539 59.768 151.539C57.176 151.539 55.48 153.203 55.48 155.683C55.48 158.339 57.192 159.811 59.8 159.811ZM59.736 152.899C61.432 152.899 62.28 153.603 62.28 155.075V155.107H57.112C57.208 153.683 57.976 152.899 59.736 152.899ZM70.2766 159.811C72.0846 159.811 73.3486 159.011 73.7646 157.667H73.8766V159.651H75.4606V154.819C75.4606 152.915 74.3246 151.539 71.7966 151.539C69.2686 151.539 67.7646 152.899 67.7646 154.707V154.771H69.4766V154.707C69.4766 153.539 70.1966 153.059 71.6686 153.059C73.1886 153.059 73.7646 153.523 73.7646 154.835V155.299L70.1486 155.683C68.5806 155.859 67.5886 156.499 67.5886 157.731C67.5886 159.043 68.6286 159.811 70.2766 159.811ZM69.3166 157.619C69.3166 156.995 69.7486 156.787 70.6446 156.675L73.7646 156.323C73.7646 157.891 72.5486 158.563 70.7406 158.563C69.7486 158.563 69.3166 158.259 69.3166 157.619ZM78.7311 159.651V155.715C78.7311 153.987 79.5151 153.091 81.2591 153.091C82.9071 153.091 83.5791 153.843 83.5791 155.331V159.651H85.3071V154.867C85.3071 153.027 84.2191 151.539 82.0111 151.539C79.9951 151.539 78.9391 152.819 78.6991 154.163H78.5871V151.699H77.0031V159.651H78.7311ZM90.3509 159.811C92.1429 159.811 93.3109 158.947 93.6469 157.363H93.7589V159.651H95.3429V148.931H93.6149V153.859H93.5189C93.1989 152.515 92.1269 151.539 90.2389 151.539C87.8229 151.539 86.4469 153.203 86.4469 155.683C86.4469 158.131 87.8389 159.811 90.3509 159.811ZM88.1909 155.683C88.1909 153.763 89.1829 153.107 90.8469 153.107C92.6229 153.107 93.6149 153.939 93.6149 155.635V155.763C93.6149 157.427 92.5749 158.227 90.8789 158.227C89.1669 158.227 88.1909 157.587 88.1909 155.683ZM18.528 179.651V175.187C18.528 173.763 19.088 173.011 20.448 173.011C21.632 173.011 22.112 173.539 22.112 174.675V175.379H23.824V174.339C23.824 172.835 23.04 171.539 21.232 171.539C19.6 171.539 18.736 172.563 18.496 173.843H18.384V171.699H16.8V179.651H18.528ZM28.9094 179.811C31.2774 179.811 32.9414 178.643 32.9414 176.947V176.803H31.2134V176.931C31.2134 177.875 30.5254 178.419 28.8614 178.419C27.0214 178.419 26.2694 177.603 26.2054 176.067H32.9574C33.0054 175.827 33.0214 175.603 33.0214 175.315C33.0214 172.899 31.3414 171.539 28.8774 171.539C26.2854 171.539 24.5894 173.203 24.5894 175.683C24.5894 178.339 26.3014 179.811 28.9094 179.811ZM28.8454 172.899C30.5414 172.899 31.3894 173.603 31.3894 175.075V175.107H26.2214C26.3174 173.683 27.0854 172.899 28.8454 172.899ZM36.0436 179.651V168.931H34.3156V179.651H36.0436ZM39.3718 170.771V168.931H37.6438V170.771H39.3718ZM39.3718 179.651V171.699H37.6438V179.651H39.3718ZM43.3079 179.811C45.1159 179.811 46.3799 179.011 46.7959 177.667H46.9079V179.651H48.4919V174.819C48.4919 172.915 47.3559 171.539 44.8279 171.539C42.2999 171.539 40.7959 172.899 40.7959 174.707V174.771H42.5079V174.707C42.5079 173.539 43.2279 173.059 44.6999 173.059C46.2199 173.059 46.7959 173.523 46.7959 174.835V175.299L43.1799 175.683C41.6119 175.859 40.6199 176.499 40.6199 177.731C40.6199 179.043 41.6599 179.811 43.3079 179.811ZM42.3479 177.619C42.3479 176.995 42.7799 176.787 43.6759 176.675L46.7959 176.323C46.7959 177.891 45.5799 178.563 43.7719 178.563C42.7799 178.563 42.3479 178.259 42.3479 177.619ZM51.6184 179.651V177.363H51.7304C52.0664 178.947 53.2344 179.811 55.0424 179.811C57.5704 179.811 58.9304 178.131 58.9304 175.683C58.9304 173.203 57.5864 171.539 55.1384 171.539C53.2344 171.539 52.1784 172.515 51.8584 173.859H51.7624V168.931H50.0344V179.651H51.6184ZM51.7624 175.763V175.635C51.7624 173.939 52.7384 173.107 54.5304 173.107C56.2264 173.107 57.2024 173.763 57.2024 175.683C57.2024 177.587 56.2424 178.227 54.4984 178.227C52.7864 178.227 51.7624 177.427 51.7624 175.763ZM61.8561 179.651V168.931H60.1281V179.651H61.8561ZM67.4563 179.811C69.8243 179.811 71.4883 178.643 71.4883 176.947V176.803H69.7603V176.931C69.7603 177.875 69.0723 178.419 67.4083 178.419C65.5683 178.419 64.8163 177.603 64.7523 176.067H71.5043C71.5523 175.827 71.5683 175.603 71.5683 175.315C71.5683 172.899 69.8883 171.539 67.4243 171.539C64.8323 171.539 63.1363 173.203 63.1363 175.683C63.1363 178.339 64.8483 179.811 67.4563 179.811ZM67.3923 172.899C69.0883 172.899 69.9363 173.603 69.9363 175.075V175.107H64.7682C64.8643 173.683 65.6323 172.899 67.3923 172.899ZM77.3249 179.651V175.715C77.3249 173.987 78.1089 173.091 79.8529 173.091C81.5009 173.091 82.1729 173.843 82.1729 175.331V179.651H83.9009V174.867C83.9009 173.027 82.8129 171.539 80.6049 171.539C78.5889 171.539 77.5329 172.819 77.2929 174.163H77.1809V171.699H75.5969V179.651H77.3249ZM89.4406 179.811C91.8086 179.811 93.4726 178.643 93.4726 176.947V176.803H91.7446V176.931C91.7446 177.875 91.0566 178.419 89.3926 178.419C87.5526 178.419 86.8006 177.603 86.7366 176.067H93.4886C93.5366 175.827 93.5526 175.603 93.5526 175.315C93.5526 172.899 91.8726 171.539 89.4086 171.539C86.8166 171.539 85.1206 173.203 85.1206 175.683C85.1206 178.339 86.8326 179.811 89.4406 179.811ZM89.3766 172.899C91.0726 172.899 91.9206 173.603 91.9206 175.075V175.107H86.7526C86.8486 173.683 87.6166 172.899 89.3766 172.899ZM100.063 179.651V178.099H98.6229C97.6309 178.099 97.1829 177.843 97.1829 176.867V173.139H100.063V171.699H97.1829V169.955H95.4709V171.699H94.1269V173.139H95.4709V176.963C95.4709 178.899 96.5269 179.651 98.2389 179.651H100.063ZM104.952 179.651L106.712 175.075L107.32 173.123H107.448L108.056 175.075L109.8 179.651H111.944L114.36 171.699H112.6L111.272 176.211L110.904 178.259H110.776L110.184 176.051L108.504 171.699H106.296L104.632 176.051L104.04 178.259H103.912L103.544 176.211L102.216 171.699H100.424L102.808 179.651H104.952ZM119.302 179.811C121.958 179.811 123.734 178.131 123.734 175.683C123.734 173.203 121.958 171.539 119.302 171.539C116.662 171.539 114.886 173.203 114.886 175.683C114.886 178.131 116.662 179.811 119.302 179.811ZM119.302 178.275C117.382 178.275 116.582 177.363 116.582 175.683C116.582 173.987 117.382 173.059 119.302 173.059C121.238 173.059 122.038 173.987 122.038 175.683C122.038 177.363 121.238 178.275 119.302 178.275ZM126.716 179.651V175.187C126.716 173.763 127.276 173.011 128.636 173.011C129.82 173.011 130.3 173.539 130.3 174.675V175.379H132.012V174.339C132.012 172.835 131.228 171.539 129.42 171.539C127.788 171.539 126.924 172.563 126.684 173.843H126.572V171.699H124.988V179.651H126.716ZM134.825 179.651V176.403H137.097L139.449 179.651H141.481L138.505 175.523L141.497 171.699H139.481L137.097 174.851H134.825V168.931H133.097V179.651H134.825Z" fill="#333333"/>
<g opacity="0.5">
<line x1="24.5205" y1="104.983" x2="24.5205" y2="-36.5318" stroke="url(#paint0_linear_51_1933)"/>
<line x1="60.5205" y1="104.983" x2="60.5205" y2="-36.5318" stroke="url(#paint1_linear_51_1933)"/>
<line x1="96.5205" y1="104.983" x2="96.5205" y2="-36.5318" stroke="url(#paint2_linear_51_1933)"/>
<line x1="132.521" y1="104.983" x2="132.521" y2="-36.5318" stroke="url(#paint3_linear_51_1933)"/>
<line x1="-28.4453" y1="3.84424" x2="229.941" y2="3.84422" stroke="url(#paint4_linear_51_1933)"/>
<line x1="-28.4453" y1="62.8442" x2="229.941" y2="62.8442" stroke="url(#paint5_linear_51_1933)"/>
<line x1="-28.4453" y1="32.8442" x2="229.941" y2="32.8442" stroke="url(#paint6_linear_51_1933)"/>
</g>
<rect x="16.5" y="17" width="71" height="71" rx="35.5" fill="url(#paint7_linear_51_1933)"/>
<path fill-rule="evenodd" clip-rule="evenodd" d="M33.3992 45.7503C43.6507 35.5006 60.2722 35.5006 70.5219 45.7503C70.6439 45.8722 70.7407 46.0169 70.8067 46.1762C70.8727 46.3355 70.9067 46.5062 70.9067 46.6787C70.9067 46.8511 70.8727 47.0218 70.8067 47.1811C70.7407 47.3404 70.6439 47.4852 70.5219 47.6071L69.5944 48.5346C69.3483 48.7803 69.0147 48.9184 68.6669 48.9184C68.3191 48.9184 67.9855 48.7803 67.7394 48.5346C59.0244 39.8213 44.8967 39.8213 36.1834 48.5346C35.9373 48.7803 35.6037 48.9184 35.2559 48.9184C34.9081 48.9184 34.5745 48.7803 34.3284 48.5346L33.4009 47.6071C33.1551 47.361 33.0171 47.0274 33.0171 46.6796C33.0171 46.3317 33.1551 45.9981 33.4009 45.7521L33.3992 45.7503ZM38.9677 51.3188C46.1427 44.1438 57.7784 44.1438 64.9552 51.3188C65.0771 51.4407 65.1739 51.5854 65.2399 51.7447C65.3059 51.904 65.3399 52.0747 65.3399 52.2472C65.3399 52.4196 65.3059 52.5903 65.2399 52.7496C65.1739 52.9089 65.0771 53.0537 64.9552 53.1756L64.0277 54.1031C63.9058 54.2253 63.7609 54.3223 63.6015 54.3884C63.442 54.4546 63.2711 54.4886 63.0984 54.4886C62.9258 54.4886 62.7549 54.4546 62.5954 54.3884C62.4359 54.3223 62.2911 54.2253 62.1692 54.1031C59.4616 51.3956 55.7895 49.8746 51.9606 49.8746C48.1316 49.8746 44.4595 51.3956 41.7519 54.1031C41.5058 54.3488 41.1722 54.4869 40.8244 54.4869C40.4766 54.4869 40.143 54.3488 39.8969 54.1031L38.9694 53.1756C38.7236 52.9295 38.5856 52.5959 38.5856 52.2481C38.5856 51.9002 38.7236 51.5666 38.9694 51.3206L38.9677 51.3188ZM44.5747 56.8873C45.5497 55.9121 46.7073 55.1385 47.9813 54.6107C49.2554 54.0829 50.6209 53.8113 51.9999 53.8113C53.379 53.8113 54.7445 54.0829 56.0185 54.6107C57.2926 55.1385 58.4501 55.9121 59.4252 56.8873C59.5471 57.0092 59.6439 57.1539 59.7099 57.3132C59.7759 57.4725 59.8099 57.6432 59.8099 57.8157C59.8099 57.9881 59.7759 58.1588 59.7099 58.3181C59.6439 58.4774 59.5471 58.6222 59.4252 58.7441L58.4977 59.6716C58.3758 59.7935 58.2311 59.8903 58.0718 59.9563C57.9125 60.0223 57.7417 60.0563 57.5693 60.0563C57.3969 60.0563 57.2261 60.0223 57.0668 59.9563C56.9075 59.8903 56.7628 59.7935 56.6409 59.6716C56.0315 59.062 55.308 58.5784 54.5117 58.2485C53.7154 57.9186 52.8619 57.7488 51.9999 57.7488C51.138 57.7488 50.2845 57.9186 49.4882 58.2485C48.6919 58.5784 47.9683 59.062 47.3589 59.6716C47.1128 59.9173 46.7792 60.0554 46.4314 60.0554C46.0836 60.0554 45.75 59.9173 45.5039 59.6716L44.5764 58.7441C44.3306 58.498 44.1926 58.1644 44.1926 57.8166C44.1926 57.4687 44.3306 57.1351 44.5764 56.8891L44.5747 56.8873ZM50.1432 62.4558C50.387 62.2119 50.6764 62.0184 50.995 61.8863C51.3136 61.7543 51.6551 61.6864 51.9999 61.6864C52.3448 61.6864 52.6863 61.7543 53.0049 61.8863C53.3235 62.0184 53.6129 62.2119 53.8567 62.4558C53.9786 62.5777 54.0754 62.7224 54.1414 62.8817C54.2074 63.041 54.2414 63.2117 54.2414 63.3842C54.2414 63.5566 54.2074 63.7273 54.1414 63.8866C54.0754 64.0459 53.9786 64.1907 53.8567 64.3126L52.9292 65.2401C52.8073 65.362 52.6626 65.4588 52.5033 65.5248C52.344 65.5908 52.1732 65.6248 52.0008 65.6248C51.8284 65.6248 51.6576 65.5908 51.4983 65.5248C51.339 65.4588 51.1943 65.362 51.0724 65.2401L50.1449 64.3126C49.8991 64.0665 49.7611 63.7329 49.7611 63.385C49.7611 63.0372 49.8991 62.7036 50.1449 62.4576L50.1432 62.4558Z" fill="#83A735"/>
<rect x="16.5" y="17" width="71" height="71" rx="35.5" stroke="url(#paint8_linear_51_1933)"/>
</g>
<defs>
<linearGradient id="paint0_linear_51_1933" x1="26.0208" y1="168.078" x2="26.0208" y2="34.2257" gradientUnits="userSpaceOnUse">
<stop stop-color="#CFFC6D" stop-opacity="0"/>
<stop offset="1" stop-color="#CFFC6D"/>
</linearGradient>
<linearGradient id="paint1_linear_51_1933" x1="62.0208" y1="168.078" x2="62.0208" y2="34.2257" gradientUnits="userSpaceOnUse">
<stop stop-color="#CFFC6D" stop-opacity="0"/>
<stop offset="1" stop-color="#CFFC6D"/>
</linearGradient>
<linearGradient id="paint2_linear_51_1933" x1="98.0208" y1="168.078" x2="98.0208" y2="34.2257" gradientUnits="userSpaceOnUse">
<stop stop-color="#CFFC6D" stop-opacity="0"/>
<stop offset="1" stop-color="#CFFC6D"/>
</linearGradient>
<linearGradient id="paint3_linear_51_1933" x1="134.021" y1="168.078" x2="134.021" y2="34.2257" gradientUnits="userSpaceOnUse">
<stop stop-color="#CFFC6D" stop-opacity="0"/>
<stop offset="1" stop-color="#CFFC6D"/>
</linearGradient>
<linearGradient id="paint4_linear_51_1933" x1="240.724" y1="4.34424" x2="-37.6865" y2="4.3445" gradientUnits="userSpaceOnUse">
<stop offset="0.0064688" stop-color="#E8FDBE"/>
<stop offset="0.746449" stop-color="#E8FDBE"/>
</linearGradient>
<linearGradient id="paint5_linear_51_1933" x1="240.724" y1="63.3442" x2="-37.6865" y2="63.3445" gradientUnits="userSpaceOnUse">
<stop offset="0.0064688" stop-color="#E8FDBE"/>
<stop offset="0.746449" stop-color="#E8FDBE"/>
</linearGradient>
<linearGradient id="paint6_linear_51_1933" x1="240.724" y1="33.3442" x2="-37.6865" y2="33.3445" gradientUnits="userSpaceOnUse">
<stop offset="0.0064688" stop-color="#E8FDBE"/>
<stop offset="0.746449" stop-color="#E8FDBE"/>
</linearGradient>
<linearGradient id="paint7_linear_51_1933" x1="52" y1="16.5" x2="54.1764" y2="112.662" gradientUnits="userSpaceOnUse">
<stop stop-color="#E1FBAA"/>
<stop offset="0.703509" stop-color="#E8FDBE" stop-opacity="0"/>
</linearGradient>
<linearGradient id="paint8_linear_51_1933" x1="52" y1="16.5" x2="52" y2="88.5" gradientUnits="userSpaceOnUse">
<stop stop-color="#CFF981"/>
<stop offset="1" stop-color="#E8FDBE" stop-opacity="0"/>
</linearGradient>
<clipPath id="clip0_51_1933">
<rect y="0.650635" width="160" height="200" rx="8" fill="white"/>
</clipPath>
</defs>
</svg>
