<svg width="160" height="201" viewBox="0 0 160 201" fill="none" xmlns="http://www.w3.org/2000/svg">
<g clip-path="url(#clip0_51_1935)">
<rect y="0.650635" width="160" height="200" rx="8" fill="#F3FEDC"/>
<path d="M21.296 139.811C24.464 139.811 25.792 138.307 25.792 136.675C25.792 135.107 24.736 134.131 22.592 133.747L19.984 133.299C18.72 133.027 18.176 132.723 18.176 131.795C18.176 130.835 18.944 130.355 20.896 130.355C23.12 130.355 23.904 131.011 23.904 132.323V132.531H25.616V132.435C25.616 130.339 24.192 128.771 21.056 128.771C17.728 128.771 16.448 130.339 16.448 131.891C16.448 133.651 17.728 134.483 19.536 134.803L22.16 135.235C23.52 135.491 24.064 135.843 24.064 136.771C24.064 137.779 23.344 138.227 21.296 138.227C18.944 138.227 18.192 137.587 18.192 136.307V136.051H16.464V136.147C16.464 138.403 18.096 139.811 21.296 139.811ZM28.7468 139.651V135.715C28.7468 133.955 29.3388 133.091 31.0508 133.091C32.5868 133.091 33.1948 133.763 33.1948 135.331V139.651H34.9068V135.715C34.9068 133.955 35.5148 133.091 37.2108 133.091C38.7468 133.091 39.3708 133.763 39.3708 135.331V139.651H41.0828V134.867C41.0828 132.947 40.0428 131.539 37.9788 131.539C35.9628 131.539 35.0668 132.803 34.8588 134.163H34.7628C34.5388 132.643 33.5628 131.539 31.7548 131.539C29.7708 131.539 28.9068 132.771 28.6988 134.099H28.6028V131.699H27.0188V139.651H28.7468ZM46.6921 139.811C49.3481 139.811 51.1241 138.131 51.1241 135.683C51.1241 133.203 49.3481 131.539 46.6921 131.539C44.0521 131.539 42.2761 133.203 42.2761 135.683C42.2761 138.131 44.0521 139.811 46.6921 139.811ZM46.6921 138.275C44.7721 138.275 43.9721 137.363 43.9721 135.683C43.9721 133.987 44.7721 133.059 46.6921 133.059C48.6281 133.059 49.4281 133.987 49.4281 135.683C49.4281 137.363 48.6281 138.275 46.6921 138.275ZM56.4421 139.811C59.0981 139.811 60.8741 138.131 60.8741 135.683C60.8741 133.203 59.0981 131.539 56.4421 131.539C53.8021 131.539 52.0261 133.203 52.0261 135.683C52.0261 138.131 53.8021 139.811 56.4421 139.811ZM56.4421 138.275C54.5221 138.275 53.7221 137.363 53.7221 135.683C53.7221 133.987 54.5221 133.059 56.4421 133.059C58.3781 133.059 59.1781 133.987 59.1781 135.683C59.1781 137.363 58.3781 138.275 56.4421 138.275ZM67.3441 139.651V138.099H65.9041C64.9121 138.099 64.4641 137.843 64.4641 136.867V133.139H67.3441V131.699H64.4641V129.955H62.7521V131.699H61.4081V133.139H62.7521V136.963C62.7521 138.899 63.8081 139.651 65.5201 139.651H67.3441ZM70.153 139.651V135.795C70.153 134.115 70.825 133.091 72.713 133.091C74.361 133.091 75.081 133.731 75.081 135.331V139.651H76.793V134.915C76.793 132.979 75.721 131.539 73.529 131.539C71.497 131.539 70.521 132.787 70.249 134.131H70.153V128.931H68.425V139.651H70.153ZM22.016 159.651V158.099H20.576C19.584 158.099 19.136 157.843 19.136 156.867V153.139H22.016V151.699H19.136V149.955H17.424V151.699H16.08V153.139H17.424V156.963C17.424 158.899 18.48 159.651 20.192 159.651H22.016ZM24.8249 159.651V155.187C24.8249 153.763 25.3849 153.011 26.7449 153.011C27.9289 153.011 28.4089 153.539 28.4089 154.675V155.379H30.1209V154.339C30.1209 152.835 29.3369 151.539 27.5289 151.539C25.8969 151.539 25.0329 152.563 24.7929 153.843H24.6809V151.699H23.0969V159.651H24.8249ZM33.5423 159.811C35.3503 159.811 36.6143 159.011 37.0303 157.667H37.1423V159.651H38.7263V154.819C38.7263 152.915 37.5903 151.539 35.0623 151.539C32.5343 151.539 31.0303 152.899 31.0303 154.707V154.771H32.7423V154.707C32.7423 153.539 33.4623 153.059 34.9343 153.059C36.4543 153.059 37.0303 153.523 37.0303 154.835V155.299L33.4143 155.683C31.8463 155.859 30.8543 156.499 30.8543 157.731C30.8543 159.043 31.8943 159.811 33.5423 159.811ZM32.5823 157.619C32.5823 156.995 33.0143 156.787 33.9103 156.675L37.0303 156.323C37.0303 157.891 35.8143 158.563 34.0063 158.563C33.0143 158.563 32.5823 158.259 32.5823 157.619ZM41.9968 159.651V155.715C41.9968 153.987 42.7808 153.091 44.5248 153.091C46.1728 153.091 46.8448 153.843 46.8448 155.331V159.651H48.5728V154.867C48.5728 153.027 47.4848 151.539 45.2768 151.539C43.2608 151.539 42.2048 152.819 41.9648 154.163H41.8528V151.699H40.2688V159.651H41.9968ZM53.8725 159.811C56.1125 159.811 57.5845 158.931 57.5845 157.443C57.5845 156.131 56.7205 155.491 54.8325 155.251L52.9925 154.995C51.7925 154.835 51.4725 154.611 51.4725 153.987C51.4725 153.235 51.9845 152.915 53.4405 152.915C55.2005 152.915 55.6805 153.411 55.6805 154.355V154.451H57.3925V154.403C57.3925 152.515 55.9205 151.539 53.4885 151.539C51.0405 151.539 49.7765 152.531 49.7765 153.923C49.7765 155.251 50.6885 155.891 52.1925 156.083L54.3685 156.371C55.5045 156.531 55.8885 156.739 55.8885 157.395C55.8885 158.099 55.4245 158.419 53.8725 158.419C52.2085 158.419 51.5845 158.083 51.5845 157.043V156.915H49.8565V156.963C49.8565 158.803 51.3125 159.811 53.8725 159.811ZM61.1673 159.811C62.9753 159.811 64.2393 159.011 64.6553 157.667H64.7673V159.651H66.3513V154.819C66.3513 152.915 65.2153 151.539 62.6873 151.539C60.1593 151.539 58.6553 152.899 58.6553 154.707V154.771H60.3673V154.707C60.3673 153.539 61.0873 153.059 62.5593 153.059C64.0793 153.059 64.6553 153.523 64.6553 154.835V155.299L61.0393 155.683C59.4713 155.859 58.4793 156.499 58.4793 157.731C58.4793 159.043 59.5193 159.811 61.1673 159.811ZM60.2073 157.619C60.2073 156.995 60.6393 156.787 61.5353 156.675L64.6553 156.323C64.6553 157.891 63.4393 158.563 61.6313 158.563C60.6393 158.563 60.2073 158.259 60.2073 157.619ZM71.9098 159.811C74.2938 159.811 76.0378 158.467 76.0378 156.483V156.307H74.3258V156.419C74.3258 157.651 73.4298 158.259 71.8778 158.259C70.0858 158.259 69.2858 157.395 69.2858 155.683C69.2858 153.939 70.0858 153.091 71.8778 153.091C73.4298 153.091 74.3258 153.699 74.3258 154.931V155.027H76.0378V154.867C76.0378 152.883 74.2938 151.539 71.9098 151.539C69.2858 151.539 67.5738 153.203 67.5738 155.683C67.5738 158.131 69.2858 159.811 71.9098 159.811ZM82.5316 159.651V158.099H81.0916C80.0996 158.099 79.6516 157.843 79.6516 156.867V153.139H82.5316V151.699H79.6516V149.955H77.9396V151.699H76.5956V153.139H77.9396V156.963C77.9396 158.899 78.9956 159.651 80.7076 159.651H82.5316ZM85.3405 150.771V148.931H83.6125V150.771H85.3405ZM85.3405 159.651V151.699H83.6125V159.651H85.3405ZM91.0046 159.811C93.6606 159.811 95.4366 158.131 95.4366 155.683C95.4366 153.203 93.6606 151.539 91.0046 151.539C88.3646 151.539 86.5886 153.203 86.5886 155.683C86.5886 158.131 88.3646 159.811 91.0046 159.811ZM91.0046 158.275C89.0846 158.275 88.2846 157.363 88.2846 155.683C88.2846 153.987 89.0846 153.059 91.0046 153.059C92.9406 153.059 93.7406 153.987 93.7406 155.683C93.7406 157.363 92.9406 158.275 91.0046 158.275ZM98.4186 159.651V155.715C98.4186 153.987 99.2026 153.091 100.947 153.091C102.595 153.091 103.267 153.843 103.267 155.331V159.651H104.995V154.867C104.995 153.027 103.907 151.539 101.699 151.539C99.6826 151.539 98.6266 152.819 98.3866 154.163H98.2746V151.699H96.6906V159.651H98.4186ZM20.8 179.811C23.168 179.811 24.832 178.643 24.832 176.947V176.803H23.104V176.931C23.104 177.875 22.416 178.419 20.752 178.419C18.912 178.419 18.16 177.603 18.096 176.067H24.848C24.896 175.827 24.912 175.603 24.912 175.315C24.912 172.899 23.232 171.539 20.768 171.539C18.176 171.539 16.48 173.203 16.48 175.683C16.48 178.339 18.192 179.811 20.8 179.811ZM20.736 172.899C22.432 172.899 23.28 173.603 23.28 175.075V175.107H18.112C18.208 173.683 18.976 172.899 20.736 172.899ZM27.5182 179.651L30.1263 176.611H30.2383L32.8783 179.651H34.9743L31.5503 175.683V175.587L34.9743 171.699H32.8943L30.2863 174.707H30.1903L27.5503 171.699H25.4543L28.8783 175.619V175.715L25.4543 179.651H27.5182ZM37.5436 182.371V177.411H37.6076C37.9276 178.867 39.0796 179.811 40.8716 179.811C43.3516 179.811 44.7116 178.147 44.7116 175.683C44.7116 173.219 43.3196 171.539 40.8556 171.539C38.9836 171.539 37.8636 172.435 37.5436 173.907H37.3996V171.699H35.8156V182.371H37.5436ZM37.5436 175.811V175.667C37.5436 173.955 38.5356 173.123 40.3116 173.123C41.9756 173.123 42.9836 173.763 42.9836 175.683C42.9836 177.587 41.9916 178.243 40.2796 178.243C38.5836 178.243 37.5436 177.443 37.5436 175.811ZM49.9094 179.811C52.2774 179.811 53.9414 178.643 53.9414 176.947V176.803H52.2134V176.931C52.2134 177.875 51.5254 178.419 49.8614 178.419C48.0214 178.419 47.2694 177.603 47.2054 176.067H53.9574C54.0054 175.827 54.0214 175.603 54.0214 175.315C54.0214 172.899 52.3414 171.539 49.8774 171.539C47.2854 171.539 45.5894 173.203 45.5894 175.683C45.5894 178.339 47.3014 179.811 49.9094 179.811ZM49.8454 172.899C51.5414 172.899 52.3894 173.603 52.3894 175.075V175.107H47.2214C47.3174 173.683 48.0854 172.899 49.8454 172.899ZM57.0436 179.651V175.187C57.0436 173.763 57.6036 173.011 58.9636 173.011C60.1476 173.011 60.6276 173.539 60.6276 174.675V175.379H62.3396V174.339C62.3396 172.835 61.5556 171.539 59.7476 171.539C58.1156 171.539 57.2516 172.563 57.0116 173.843H56.8996V171.699H55.3156V179.651H57.0436ZM65.153 170.771V168.931H63.425V170.771H65.153ZM65.153 179.651V171.699H63.425V179.651H65.153ZM70.7531 179.811C73.1211 179.811 74.7851 178.643 74.7851 176.947V176.803H73.0571V176.931C73.0571 177.875 72.3691 178.419 70.7051 178.419C68.8651 178.419 68.1131 177.603 68.0491 176.067H74.8011C74.8491 175.827 74.8651 175.603 74.8651 175.315C74.8651 172.899 73.1851 171.539 70.7211 171.539C68.1291 171.539 66.4331 173.203 66.4331 175.683C66.4331 178.339 68.1451 179.811 70.7531 179.811ZM70.6891 172.899C72.3851 172.899 73.2331 173.603 73.2331 175.075V175.107H68.0651C68.1611 173.683 68.9291 172.899 70.6891 172.899ZM77.8874 179.651V175.715C77.8874 173.987 78.6714 173.091 80.4154 173.091C82.0634 173.091 82.7354 173.843 82.7354 175.331V179.651H84.4634V174.867C84.4634 173.027 83.3754 171.539 81.1674 171.539C79.1514 171.539 78.0954 172.819 77.8554 174.163H77.7434V171.699H76.1594V179.651H77.8874ZM90.0191 179.811C92.4031 179.811 94.1471 178.467 94.1471 176.483V176.307H92.4351V176.419C92.4351 177.651 91.5391 178.259 89.9871 178.259C88.1951 178.259 87.3951 177.395 87.3951 175.683C87.3951 173.939 88.1951 173.091 89.9871 173.091C91.5391 173.091 92.4351 173.699 92.4351 174.931V175.027H94.1471V174.867C94.1471 172.883 92.4031 171.539 90.0191 171.539C87.3951 171.539 85.6831 173.203 85.6831 175.683C85.6831 178.131 87.3951 179.811 90.0191 179.811ZM99.425 179.811C101.793 179.811 103.457 178.643 103.457 176.947V176.803H101.729V176.931C101.729 177.875 101.041 178.419 99.377 178.419C97.537 178.419 96.785 177.603 96.721 176.067H103.473C103.521 175.827 103.537 175.603 103.537 175.315C103.537 172.899 101.857 171.539 99.393 171.539C96.801 171.539 95.105 173.203 95.105 175.683C95.105 178.339 96.817 179.811 99.425 179.811ZM99.361 172.899C101.057 172.899 101.905 173.603 101.905 175.075V175.107H96.737C96.833 173.683 97.601 172.899 99.361 172.899Z" fill="#333333"/>
<g opacity="0.5">
<line x1="24.5205" y1="104.983" x2="24.5205" y2="-36.5318" stroke="url(#paint0_linear_51_1935)"/>
<line x1="60.5205" y1="104.983" x2="60.5205" y2="-36.5318" stroke="url(#paint1_linear_51_1935)"/>
<line x1="96.5205" y1="104.983" x2="96.5205" y2="-36.5318" stroke="url(#paint2_linear_51_1935)"/>
<line x1="132.521" y1="104.983" x2="132.521" y2="-36.5318" stroke="url(#paint3_linear_51_1935)"/>
<line x1="-28.4453" y1="3.84424" x2="229.941" y2="3.84422" stroke="url(#paint4_linear_51_1935)"/>
<line x1="-28.4453" y1="62.8442" x2="229.941" y2="62.8442" stroke="url(#paint5_linear_51_1935)"/>
<line x1="-28.4453" y1="32.8442" x2="229.941" y2="32.8442" stroke="url(#paint6_linear_51_1935)"/>
</g>
<rect x="16.5" y="17" width="71" height="71" rx="35.5" fill="url(#paint7_linear_51_1935)"/>
<path fill-rule="evenodd" clip-rule="evenodd" d="M56.5762 34.2912C56.8324 34.4339 57.0335 34.6582 57.1474 34.9284C57.2612 35.1987 57.2813 35.4993 57.2044 35.7822L53.7184 48.5625H66.4374C66.6932 48.5625 66.9434 48.6373 67.1573 48.7776C67.3711 48.9179 67.5394 49.1176 67.6412 49.3522C67.7431 49.5868 67.7742 49.8461 67.7307 50.0982C67.6872 50.3502 67.571 50.5841 67.3964 50.771L49.0214 70.4585C48.8213 70.6734 48.5549 70.815 48.2648 70.8606C47.9747 70.9062 47.6777 70.8532 47.4212 70.71C47.1648 70.5669 46.9638 70.3419 46.8504 70.0711C46.7369 69.8002 46.7176 69.4991 46.7954 69.216L50.2814 56.4375H37.5624C37.3066 56.4375 37.0564 56.3627 36.8426 56.2224C36.6287 56.0821 36.4605 55.8824 36.3586 55.6478C36.2567 55.4132 36.2256 55.1539 36.2691 54.9018C36.3126 54.6498 36.4288 54.4159 36.6034 54.229L54.9784 34.5415C55.1786 34.3274 55.4446 34.1864 55.7342 34.1411C56.0237 34.0957 56.3201 34.1486 56.5762 34.2912Z" fill="#83A735"/>
<rect x="16.5" y="17" width="71" height="71" rx="35.5" stroke="url(#paint8_linear_51_1935)"/>
</g>
<defs>
<linearGradient id="paint0_linear_51_1935" x1="26.0208" y1="168.078" x2="26.0208" y2="34.2257" gradientUnits="userSpaceOnUse">
<stop stop-color="#CFFC6D" stop-opacity="0"/>
<stop offset="1" stop-color="#CFFC6D"/>
</linearGradient>
<linearGradient id="paint1_linear_51_1935" x1="62.0208" y1="168.078" x2="62.0208" y2="34.2257" gradientUnits="userSpaceOnUse">
<stop stop-color="#CFFC6D" stop-opacity="0"/>
<stop offset="1" stop-color="#CFFC6D"/>
</linearGradient>
<linearGradient id="paint2_linear_51_1935" x1="98.0208" y1="168.078" x2="98.0208" y2="34.2257" gradientUnits="userSpaceOnUse">
<stop stop-color="#CFFC6D" stop-opacity="0"/>
<stop offset="1" stop-color="#CFFC6D"/>
</linearGradient>
<linearGradient id="paint3_linear_51_1935" x1="134.021" y1="168.078" x2="134.021" y2="34.2257" gradientUnits="userSpaceOnUse">
<stop stop-color="#CFFC6D" stop-opacity="0"/>
<stop offset="1" stop-color="#CFFC6D"/>
</linearGradient>
<linearGradient id="paint4_linear_51_1935" x1="240.724" y1="4.34424" x2="-37.6865" y2="4.3445" gradientUnits="userSpaceOnUse">
<stop offset="0.0064688" stop-color="#E8FDBE"/>
<stop offset="0.746449" stop-color="#E8FDBE"/>
</linearGradient>
<linearGradient id="paint5_linear_51_1935" x1="240.724" y1="63.3442" x2="-37.6865" y2="63.3445" gradientUnits="userSpaceOnUse">
<stop offset="0.0064688" stop-color="#E8FDBE"/>
<stop offset="0.746449" stop-color="#E8FDBE"/>
</linearGradient>
<linearGradient id="paint6_linear_51_1935" x1="240.724" y1="33.3442" x2="-37.6865" y2="33.3445" gradientUnits="userSpaceOnUse">
<stop offset="0.0064688" stop-color="#E8FDBE"/>
<stop offset="0.746449" stop-color="#E8FDBE"/>
</linearGradient>
<linearGradient id="paint7_linear_51_1935" x1="52" y1="16.5" x2="54.1764" y2="112.662" gradientUnits="userSpaceOnUse">
<stop stop-color="#E1FBAA"/>
<stop offset="0.703509" stop-color="#E8FDBE" stop-opacity="0"/>
</linearGradient>
<linearGradient id="paint8_linear_51_1935" x1="52" y1="16.5" x2="52" y2="88.5" gradientUnits="userSpaceOnUse">
<stop stop-color="#CFF981"/>
<stop offset="1" stop-color="#E8FDBE" stop-opacity="0"/>
</linearGradient>
<clipPath id="clip0_51_1935">
<rect y="0.650635" width="160" height="200" rx="8" fill="white"/>
</clipPath>
</defs>
</svg>
