<svg width="161" height="201" viewBox="0 0 161 201" fill="none" xmlns="http://www.w3.org/2000/svg">
<g clip-path="url(#clip0_75_4647)">
<rect x="0.5" y="0.650513" width="160" height="200" rx="8" fill="#F5F8FF"/>
<path d="M21.796 159.811C24.964 159.811 26.292 158.307 26.292 156.675C26.292 155.107 25.236 154.131 23.092 153.747L20.484 153.299C19.22 153.027 18.676 152.723 18.676 151.795C18.676 150.835 19.444 150.355 21.396 150.355C23.62 150.355 24.404 151.011 24.404 152.323V152.531H26.116V152.435C26.116 150.339 24.692 148.771 21.556 148.771C18.228 148.771 16.948 150.339 16.948 151.891C16.948 153.651 18.228 154.483 20.036 154.803L22.66 155.235C24.02 155.491 24.564 155.843 24.564 156.771C24.564 157.779 23.844 158.227 21.796 158.227C19.444 158.227 18.692 157.587 18.692 156.307V156.051H16.964V156.147C16.964 158.403 18.596 159.811 21.796 159.811ZM29.8548 159.811C31.6628 159.811 32.9268 159.011 33.3428 157.667H33.4548V159.651H35.0388V154.819C35.0388 152.915 33.9028 151.539 31.3748 151.539C28.8468 151.539 27.3428 152.899 27.3428 154.707V154.771H29.0548V154.707C29.0548 153.539 29.7748 153.059 31.2468 153.059C32.7668 153.059 33.3428 153.523 33.3428 154.835V155.299L29.7268 155.683C28.1588 155.859 27.1668 156.499 27.1668 157.731C27.1668 159.043 28.2068 159.811 29.8548 159.811ZM28.8948 157.619C28.8948 156.995 29.3268 156.787 30.2228 156.675L33.3428 156.323C33.3428 157.891 32.1268 158.563 30.3188 158.563C29.3268 158.563 28.8948 158.259 28.8948 157.619ZM41.6853 159.651L45.4293 151.699H43.5573L40.7253 157.971H40.5973L37.7653 151.699H35.8613L39.5733 159.651H41.6853ZM48.0436 150.771V148.931H46.3156V150.771H48.0436ZM48.0436 159.651V151.699H46.3156V159.651H48.0436ZM51.3718 159.651V155.715C51.3718 153.987 52.1558 153.091 53.8998 153.091C55.5478 153.091 56.2198 153.843 56.2198 155.331V159.651H57.9478V154.867C57.9478 153.027 56.8598 151.539 54.6518 151.539C52.6358 151.539 51.5798 152.819 51.3398 154.163H51.2278V151.699H49.6438V159.651H51.3718ZM62.9435 158.931C64.7515 158.931 65.8235 158.067 66.1115 156.867H66.2235V158.819C66.2235 160.595 65.5675 161.091 63.7595 161.091C62.0635 161.091 61.3915 160.659 61.3915 159.507H59.6795C59.6795 161.427 61.3115 162.531 63.6635 162.531C66.2715 162.531 67.9355 161.395 67.9355 158.723V151.699H66.3515V153.683H66.2555C65.9675 152.291 64.7195 151.539 63.0555 151.539C60.6395 151.539 59.1675 153.027 59.1675 155.235C59.1675 157.443 60.5755 158.931 62.9435 158.931ZM60.9115 155.235C60.9115 153.603 61.8875 153.043 63.5515 153.043C65.2315 153.043 66.2235 153.731 66.2235 155.075V155.299C66.2235 156.707 65.2635 157.443 63.5035 157.443C61.8715 157.443 60.9115 156.867 60.9115 155.235ZM73.2944 159.811C75.5344 159.811 77.0064 158.931 77.0064 157.443C77.0064 156.131 76.1424 155.491 74.2544 155.251L72.4144 154.995C71.2144 154.835 70.8944 154.611 70.8944 153.987C70.8944 153.235 71.4064 152.915 72.8624 152.915C74.6224 152.915 75.1024 153.411 75.1024 154.355V154.451H76.8144V154.403C76.8144 152.515 75.3424 151.539 72.9104 151.539C70.4624 151.539 69.1984 152.531 69.1984 153.923C69.1984 155.251 70.1104 155.891 71.6144 156.083L73.7904 156.371C74.9264 156.531 75.3104 156.739 75.3104 157.395C75.3104 158.099 74.8464 158.419 73.2944 158.419C71.6304 158.419 71.0064 158.083 71.0064 157.043V156.915H69.2784V156.963C69.2784 158.803 70.7344 159.811 73.2944 159.811ZM83.3235 159.811C85.1315 159.811 86.3955 159.011 86.8115 157.667H86.9235V159.651H88.5075V154.819C88.5075 152.915 87.3715 151.539 84.8435 151.539C82.3155 151.539 80.8115 152.899 80.8115 154.707V154.771H82.5235V154.707C82.5235 153.539 83.2435 153.059 84.7155 153.059C86.2355 153.059 86.8115 153.523 86.8115 154.835V155.299L83.1955 155.683C81.6275 155.859 80.6355 156.499 80.6355 157.731C80.6355 159.043 81.6755 159.811 83.3235 159.811ZM82.3635 157.619C82.3635 156.995 82.7955 156.787 83.6915 156.675L86.8115 156.323C86.8115 157.891 85.5955 158.563 83.7875 158.563C82.7955 158.563 82.3635 158.259 82.3635 157.619ZM94.066 159.811C96.45 159.811 98.194 158.467 98.194 156.483V156.307H96.482V156.419C96.482 157.651 95.586 158.259 94.034 158.259C92.242 158.259 91.442 157.395 91.442 155.683C91.442 153.939 92.242 153.091 94.034 153.091C95.586 153.091 96.482 153.699 96.482 154.931V155.027H98.194V154.867C98.194 152.883 96.45 151.539 94.066 151.539C91.442 151.539 89.73 153.203 89.73 155.683C89.73 158.131 91.442 159.811 94.066 159.811ZM103.488 159.811C105.872 159.811 107.616 158.467 107.616 156.483V156.307H105.904V156.419C105.904 157.651 105.008 158.259 103.456 158.259C101.664 158.259 100.864 157.395 100.864 155.683C100.864 153.939 101.664 153.091 103.456 153.091C105.008 153.091 105.904 153.699 105.904 154.931V155.027H107.616V154.867C107.616 152.883 105.872 151.539 103.488 151.539C100.864 151.539 99.1519 153.203 99.1519 155.683C99.1519 158.131 100.864 159.811 103.488 159.811ZM112.958 159.811C115.614 159.811 117.39 158.131 117.39 155.683C117.39 153.203 115.614 151.539 112.958 151.539C110.318 151.539 108.542 153.203 108.542 155.683C108.542 158.131 110.318 159.811 112.958 159.811ZM112.958 158.275C111.038 158.275 110.238 157.363 110.238 155.683C110.238 153.987 111.038 153.059 112.958 153.059C114.894 153.059 115.694 153.987 115.694 155.683C115.694 157.363 114.894 158.275 112.958 158.275ZM121.956 159.811C124.004 159.811 125.06 158.531 125.316 157.187H125.412V159.651H126.996V151.699H125.284V155.635C125.284 157.363 124.468 158.259 122.708 158.259C121.028 158.259 120.34 157.507 120.34 156.019V151.699H118.628V156.483C118.628 158.323 119.716 159.811 121.956 159.811ZM130.294 159.651V155.715C130.294 153.987 131.078 153.091 132.822 153.091C134.47 153.091 135.142 153.843 135.142 155.331V159.651H136.87V154.867C136.87 153.027 135.782 151.539 133.574 151.539C131.558 151.539 130.502 152.819 130.262 154.163H130.15V151.699H128.566V159.651H130.294ZM143.625 159.651V158.099H142.185C141.193 158.099 140.745 157.843 140.745 156.867V153.139H143.625V151.699H140.745V149.955H139.033V151.699H137.689V153.139H139.033V156.963C139.033 158.899 140.089 159.651 141.801 159.651H143.625ZM21.364 179.811C24.02 179.811 25.796 178.131 25.796 175.683C25.796 173.203 24.02 171.539 21.364 171.539C18.724 171.539 16.948 173.203 16.948 175.683C16.948 178.131 18.724 179.811 21.364 179.811ZM21.364 178.275C19.444 178.275 18.644 177.363 18.644 175.683C18.644 173.987 19.444 173.059 21.364 173.059C23.3 173.059 24.1 173.987 24.1 175.683C24.1 177.363 23.3 178.275 21.364 178.275ZM28.778 182.371V177.411H28.842C29.162 178.867 30.314 179.811 32.106 179.811C34.586 179.811 35.946 178.147 35.946 175.683C35.946 173.219 34.554 171.539 32.09 171.539C30.218 171.539 29.098 172.435 28.778 173.907H28.634V171.699H27.05V182.371H28.778ZM28.778 175.811V175.667C28.778 173.955 29.77 173.123 31.546 173.123C33.21 173.123 34.218 173.763 34.218 175.683C34.218 177.587 33.226 178.243 31.514 178.243C29.818 178.243 28.778 177.443 28.778 175.811ZM41.1438 179.811C43.5118 179.811 45.1758 178.643 45.1758 176.947V176.803H43.4478V176.931C43.4478 177.875 42.7598 178.419 41.0958 178.419C39.2558 178.419 38.5038 177.603 38.4398 176.067H45.1918C45.2398 175.827 45.2558 175.603 45.2558 175.315C45.2558 172.899 43.5758 171.539 41.1118 171.539C38.5198 171.539 36.8238 173.203 36.8238 175.683C36.8238 178.339 38.5358 179.811 41.1438 179.811ZM41.0798 172.899C42.7758 172.899 43.6238 173.603 43.6238 175.075V175.107H38.4557C38.5518 173.683 39.3198 172.899 41.0798 172.899ZM48.278 179.651V175.715C48.278 173.987 49.062 173.091 50.806 173.091C52.454 173.091 53.126 173.843 53.126 175.331V179.651H54.854V174.867C54.854 173.027 53.766 171.539 51.558 171.539C49.542 171.539 48.486 172.819 48.246 174.163H48.134V171.699H46.55V179.651H48.278ZM58.1218 170.771V168.931H56.3938V170.771H58.1218ZM58.1218 179.651V171.699H56.3938V179.651H58.1218ZM61.4499 179.651V175.715C61.4499 173.987 62.2339 173.091 63.9779 173.091C65.6259 173.091 66.2979 173.843 66.2979 175.331V179.651H68.0259V174.867C68.0259 173.027 66.9379 171.539 64.7299 171.539C62.7139 171.539 61.6579 172.819 61.4179 174.163H61.3059V171.699H59.7219V179.651H61.4499ZM73.0216 178.931C74.8296 178.931 75.9016 178.067 76.1896 176.867H76.3016V178.819C76.3016 180.595 75.6456 181.091 73.8376 181.091C72.1416 181.091 71.4696 180.659 71.4696 179.507H69.7576C69.7576 181.427 71.3896 182.531 73.7416 182.531C76.3496 182.531 78.0136 181.395 78.0136 178.723V171.699H76.4296V173.683H76.3336C76.0456 172.291 74.7976 171.539 73.1336 171.539C70.7176 171.539 69.2456 173.027 69.2456 175.235C69.2456 177.443 70.6536 178.931 73.0216 178.931ZM70.9896 175.235C70.9896 173.603 71.9656 173.043 73.6296 173.043C75.3096 173.043 76.3016 173.731 76.3016 175.075V175.299C76.3016 176.707 75.3416 177.443 73.5816 177.443C71.9496 177.443 70.9896 176.867 70.9896 175.235Z" fill="#333333"/>
<g opacity="0.5">
<line x1="28.8237" y1="131.118" x2="28.8237" y2="-10.3968" stroke="url(#paint0_linear_75_4647)"/>
<line x1="64.8237" y1="131.118" x2="64.8237" y2="-10.3968" stroke="url(#paint1_linear_75_4647)"/>
<line x1="100.824" y1="131.118" x2="100.824" y2="-10.3968" stroke="url(#paint2_linear_75_4647)"/>
<line x1="135.824" y1="131.118" x2="135.824" y2="-10.3968" stroke="url(#paint3_linear_75_4647)"/>
<line x1="-60.1421" y1="29.9794" x2="198.245" y2="29.9793" stroke="url(#paint4_linear_75_4647)"/>
<line x1="-60.1421" y1="88.9794" x2="198.245" y2="88.9793" stroke="url(#paint5_linear_75_4647)"/>
<line x1="-60.1421" y1="58.9794" x2="198.245" y2="58.9793" stroke="url(#paint6_linear_75_4647)"/>
</g>
<rect x="17" y="17.1505" width="71" height="71" rx="35.5" fill="url(#paint7_linear_75_4647)"/>
<g clip-path="url(#clip1_75_4647)">
<path d="M35.9487 63.0166C35.9487 62.2645 36.5584 61.6548 37.3105 61.6548H61.8221C62.5742 61.6548 63.1838 62.2645 63.1838 63.0166C63.1838 63.7686 62.5742 64.3783 61.8221 64.3783H37.3105C36.5584 64.3783 35.9487 63.7686 35.9487 63.0166ZM38.6722 52.1225C38.6722 51.3704 39.2819 50.7607 40.034 50.7607C40.7861 50.7607 41.3958 51.3704 41.3958 52.1225V58.9313C41.3958 59.6834 40.7861 60.293 40.034 60.293C39.2819 60.293 38.6722 59.6834 38.6722 58.9313V52.1225ZM45.481 52.1225C45.481 51.3704 46.0907 50.7607 46.8428 50.7607C47.5949 50.7607 48.2045 51.3704 48.2045 52.1225V58.9313C48.2045 59.6834 47.5949 60.293 46.8428 60.293C46.0907 60.293 45.481 59.6834 45.481 58.9313V52.1225ZM50.928 52.1225C50.928 51.3704 51.5377 50.7607 52.2898 50.7607C53.0419 50.7607 53.6516 51.3704 53.6516 52.1225V58.9313C53.6516 59.6834 53.0419 60.293 52.2898 60.293C51.5377 60.293 50.928 59.6834 50.928 58.9313V52.1225ZM57.7368 52.1225C57.7368 51.3704 58.3465 50.7607 59.0986 50.7607C59.8507 50.7607 60.4603 51.3704 60.4603 52.1225V58.9313C60.4603 59.6834 59.8507 60.293 59.0986 60.293C58.3465 60.293 57.7368 59.6834 57.7368 58.9313V52.1225ZM35.9487 45.4482C35.9487 44.5312 36.4668 43.6929 37.287 43.2828L48.4836 37.6845C49.1652 37.3437 49.9674 37.3437 50.6489 37.6845L61.8456 43.2828C62.6658 43.6929 63.1838 44.5312 63.1838 45.4482V46.9781C63.1838 48.3151 62.1 49.399 60.7629 49.399H38.3696C37.0326 49.399 35.9487 48.3151 35.9487 46.9781V45.4482ZM49.5663 45.3137C49.9274 45.3137 50.2738 45.1703 50.5292 44.9149C50.7846 44.6595 50.928 44.3131 50.928 43.952C50.928 43.5908 50.7846 43.2444 50.5292 42.9891C50.2738 42.7337 49.9274 42.5902 49.5663 42.5902C49.2051 42.5902 48.8588 42.7337 48.6034 42.9891C48.348 43.2444 48.2045 43.5908 48.2045 43.952C48.2045 44.3131 48.348 44.6595 48.6034 44.9149C48.8588 45.1703 49.2051 45.3137 49.5663 45.3137Z" fill="#4583FF"/>
<mask id="path-12-outside-1_75_4647" maskUnits="userSpaceOnUse" x="52.0938" y="47.1191" width="19" height="24" fill="black">
<rect fill="white" x="52.0938" y="47.1191" width="19" height="24"/>
<path fill-rule="evenodd" clip-rule="evenodd" d="M57.4927 53.1989C57.4927 52.1169 57.9226 51.0792 58.6877 50.3141C59.4527 49.549 60.4904 49.1191 61.5725 49.1191C62.6545 49.1191 63.6922 49.549 64.4573 50.3141C65.2224 51.0792 65.6522 52.1169 65.6522 53.1989C65.6522 54.2809 65.2224 55.3186 64.4573 56.0837C63.6922 56.8488 62.6545 57.2786 61.5725 57.2786C60.4904 57.2786 59.4527 56.8488 58.6877 56.0837C57.9226 55.3186 57.4927 54.2809 57.4927 53.1989ZM54.0939 65.9866C54.1244 64.0233 54.9258 62.1508 56.325 60.7732C57.7242 59.3956 59.6089 58.6235 61.5725 58.6235C63.536 58.6235 65.4207 59.3956 66.8199 60.7732C68.2191 62.1508 69.0205 64.0233 69.0511 65.9866C69.0534 66.1187 69.0172 66.2487 68.9468 66.3606C68.8765 66.4725 68.775 66.5615 68.6549 66.6166C66.4329 67.6354 64.0168 68.1612 61.5725 68.1579C59.0466 68.1579 56.6469 67.6067 54.49 66.6166C54.3699 66.5615 54.2684 66.4725 54.1981 66.3606C54.1277 66.2487 54.0915 66.1187 54.0939 65.9866Z"/>
</mask>
<path fill-rule="evenodd" clip-rule="evenodd" d="M57.4927 53.1989C57.4927 52.1169 57.9226 51.0792 58.6877 50.3141C59.4527 49.549 60.4904 49.1191 61.5725 49.1191C62.6545 49.1191 63.6922 49.549 64.4573 50.3141C65.2224 51.0792 65.6522 52.1169 65.6522 53.1989C65.6522 54.2809 65.2224 55.3186 64.4573 56.0837C63.6922 56.8488 62.6545 57.2786 61.5725 57.2786C60.4904 57.2786 59.4527 56.8488 58.6877 56.0837C57.9226 55.3186 57.4927 54.2809 57.4927 53.1989ZM54.0939 65.9866C54.1244 64.0233 54.9258 62.1508 56.325 60.7732C57.7242 59.3956 59.6089 58.6235 61.5725 58.6235C63.536 58.6235 65.4207 59.3956 66.8199 60.7732C68.2191 62.1508 69.0205 64.0233 69.0511 65.9866C69.0534 66.1187 69.0172 66.2487 68.9468 66.3606C68.8765 66.4725 68.775 66.5615 68.6549 66.6166C66.4329 67.6354 64.0168 68.1612 61.5725 68.1579C59.0466 68.1579 56.6469 67.6067 54.49 66.6166C54.3699 66.5615 54.2684 66.4725 54.1981 66.3606C54.1277 66.2487 54.0915 66.1187 54.0939 65.9866Z" fill="#C1D6FF"/>
<path d="M61.5725 49.1191V47.1191V49.1191ZM61.5725 58.6235V60.6235V58.6235ZM69.0511 65.9866L67.0513 66.0177L67.0514 66.0222L69.0511 65.9866ZM68.6549 66.6166L69.4884 68.4347L69.4892 68.4343L68.6549 66.6166ZM61.5725 68.1579L61.5752 66.1579H61.5725V68.1579ZM54.49 66.6166L53.6557 68.4343L53.6557 68.4343L54.49 66.6166ZM59.4927 53.1989C59.4927 52.6473 59.7118 52.1183 60.1019 51.7283L57.2734 48.8999C56.1333 50.04 55.4927 51.5864 55.4927 53.1989H59.4927ZM60.1019 51.7283C60.4919 51.3383 61.0209 51.1191 61.5725 51.1191V47.1191C59.96 47.1191 58.4136 47.7597 57.2734 48.8999L60.1019 51.7283ZM61.5725 51.1191C62.124 51.1191 62.653 51.3383 63.043 51.7283L65.8715 48.8999C64.7313 47.7597 63.1849 47.1191 61.5725 47.1191V51.1191ZM63.043 51.7283C63.4331 52.1183 63.6522 52.6473 63.6522 53.1989H67.6522C67.6522 51.5864 67.0116 50.04 65.8715 48.8999L63.043 51.7283ZM63.6522 53.1989C63.6522 53.7504 63.4331 54.2794 63.043 54.6695L65.8715 57.4979C67.0116 56.3577 67.6522 54.8113 67.6522 53.1989H63.6522ZM63.043 54.6695C62.653 55.0595 62.124 55.2786 61.5725 55.2786V59.2786C63.1849 59.2786 64.7313 58.6381 65.8715 57.4979L63.043 54.6695ZM61.5725 55.2786C61.0209 55.2786 60.4919 55.0595 60.1019 54.6695L57.2734 57.4979C58.4136 58.6381 59.96 59.2786 61.5725 59.2786V55.2786ZM60.1019 54.6695C59.7118 54.2794 59.4927 53.7504 59.4927 53.1989H55.4927C55.4927 54.8113 56.1333 56.3577 57.2734 57.4979L60.1019 54.6695ZM56.0936 66.0177C56.116 64.5794 56.7031 63.2076 57.7281 62.1984L54.9218 59.348C53.1485 61.0939 52.1328 63.4672 52.0941 65.9554L56.0936 66.0177ZM57.7281 62.1984C58.7532 61.1892 60.134 60.6235 61.5725 60.6235V56.6235C59.0839 56.6235 56.6951 57.6021 54.9218 59.348L57.7281 62.1984ZM61.5725 60.6235C63.0109 60.6235 64.3917 61.1892 65.4168 62.1984L68.2231 59.348C66.4498 57.6021 64.061 56.6235 61.5725 56.6235V60.6235ZM65.4168 62.1984C66.4418 63.2076 67.0289 64.5794 67.0513 66.0177L71.0508 65.9554C71.0121 63.4672 69.9964 61.0939 68.2231 59.348L65.4168 62.1984ZM67.0514 66.0222C67.0468 65.7656 67.1171 65.5133 67.2537 65.296L70.6399 67.4252C70.9173 66.9842 71.06 66.4718 71.0507 65.9509L67.0514 66.0222ZM67.2537 65.296C67.3903 65.0788 67.5873 64.9061 67.8205 64.799L69.4892 68.4343C69.9627 68.2169 70.3626 67.8663 70.6399 67.4252L67.2537 65.296ZM67.8213 64.7986C65.8617 65.6971 63.7309 66.1608 61.5752 66.1579L61.5697 70.1579C64.3027 70.1616 67.0041 69.5737 69.4884 68.4347L67.8213 64.7986ZM61.5725 66.1579C59.3402 66.1579 57.2245 65.6712 55.3244 64.799L53.6557 68.4343C56.0692 69.5421 58.7531 70.1579 61.5725 70.1579V66.1579ZM55.3244 64.799C55.5576 64.906 55.7546 65.0788 55.8912 65.296L52.505 67.4252C52.7823 67.8663 53.1822 68.2169 53.6557 68.4343L55.3244 64.799ZM55.8912 65.296C56.0278 65.5133 56.0981 65.7656 56.0935 66.0222L52.0942 65.9509C52.0849 66.4718 52.2276 66.9841 52.505 67.4252L55.8912 65.296Z" fill="#F5F8FF" mask="url(#path-12-outside-1_75_4647)"/>
</g>
<rect x="17" y="17.1505" width="71" height="71" rx="35.5" stroke="url(#paint8_linear_75_4647)"/>
</g>
<defs>
<linearGradient id="paint0_linear_75_4647" x1="29.3237" y1="9.68107" x2="29.3238" y2="154.014" gradientUnits="userSpaceOnUse">
<stop offset="0.0064688" stop-color="#C1D6FF"/>
<stop offset="0.746449" stop-color="#C1D6FF" stop-opacity="0"/>
</linearGradient>
<linearGradient id="paint1_linear_75_4647" x1="65.3237" y1="9.68107" x2="65.3238" y2="154.014" gradientUnits="userSpaceOnUse">
<stop offset="0.0064688" stop-color="#C1D6FF"/>
<stop offset="0.746449" stop-color="#C1D6FF" stop-opacity="0"/>
</linearGradient>
<linearGradient id="paint2_linear_75_4647" x1="101.324" y1="9.68107" x2="101.324" y2="154.014" gradientUnits="userSpaceOnUse">
<stop offset="0.0064688" stop-color="#C1D6FF"/>
<stop offset="0.746449" stop-color="#C1D6FF" stop-opacity="0"/>
</linearGradient>
<linearGradient id="paint3_linear_75_4647" x1="136.324" y1="9.68107" x2="136.324" y2="154.014" gradientUnits="userSpaceOnUse">
<stop offset="0.0064688" stop-color="#C1D6FF"/>
<stop offset="0.746449" stop-color="#C1D6FF" stop-opacity="0"/>
</linearGradient>
<linearGradient id="paint4_linear_75_4647" x1="-60.1421" y1="30.4794" x2="195.012" y2="30.4794" gradientUnits="userSpaceOnUse">
<stop stop-color="#C1D6FF"/>
<stop offset="1" stop-color="#C1D6FF" stop-opacity="0"/>
</linearGradient>
<linearGradient id="paint5_linear_75_4647" x1="-60.1421" y1="89.4794" x2="195.012" y2="89.4794" gradientUnits="userSpaceOnUse">
<stop stop-color="#C1D6FF"/>
<stop offset="1" stop-color="#C1D6FF" stop-opacity="0"/>
</linearGradient>
<linearGradient id="paint6_linear_75_4647" x1="-60.1421" y1="59.4794" x2="195.012" y2="59.4794" gradientUnits="userSpaceOnUse">
<stop stop-color="#C1D6FF"/>
<stop offset="1" stop-color="#C1D6FF" stop-opacity="0"/>
</linearGradient>
<linearGradient id="paint7_linear_75_4647" x1="52.5" y1="16.6505" x2="52.5" y2="88.6505" gradientUnits="userSpaceOnUse">
<stop stop-color="#D9E4FF"/>
<stop offset="1" stop-color="#F5F8FF" stop-opacity="0"/>
</linearGradient>
<linearGradient id="paint8_linear_75_4647" x1="52.5" y1="16.6505" x2="52.5" y2="88.6505" gradientUnits="userSpaceOnUse">
<stop stop-color="#C6D9FF"/>
<stop offset="1" stop-color="#DAE6FF" stop-opacity="0"/>
</linearGradient>
<clipPath id="clip0_75_4647">
<rect x="0.5" y="0.650513" width="160" height="200" rx="8" fill="white"/>
</clipPath>
<clipPath id="clip1_75_4647">
<rect width="42" height="42" fill="white" transform="translate(31.5 31.6505)"/>
</clipPath>
</defs>
</svg>
