<svg width="530" height="189" viewBox="0 0 530 189" fill="none" xmlns="http://www.w3.org/2000/svg">
<g filter="url(#filter0_d_75_6388)">
<rect x="50.9834" y="40.625" width="429" height="88" rx="10" fill="white"/>
<rect x="66.9834" y="56.625" width="56" height="56" rx="28" fill="#F5F8FF"/>
<path fill-rule="evenodd" clip-rule="evenodd" d="M97.5984 74.22C97.7448 74.3015 97.8597 74.4297 97.9247 74.5841C97.9898 74.7385 98.0013 74.9103 97.9574 75.072L95.9654 82.375H103.233C103.38 82.375 103.522 82.4177 103.645 82.4979C103.767 82.5781 103.863 82.6922 103.921 82.8263C103.979 82.9603 103.997 83.1085 103.972 83.2525C103.948 83.3965 103.881 83.5302 103.781 83.637L93.2814 94.887C93.167 95.0098 93.0147 95.0907 92.849 95.1167C92.6832 95.1428 92.5135 95.1125 92.367 95.0307C92.2204 94.9489 92.1056 94.8204 92.0407 94.6656C91.9759 94.5108 91.9649 94.3388 92.0094 94.177L94.0014 86.875H86.7334C86.5872 86.875 86.4442 86.8323 86.322 86.7521C86.1998 86.6719 86.1037 86.5578 86.0455 86.4237C85.9872 86.2896 85.9695 86.1415 85.9943 85.9974C86.0192 85.8534 86.0856 85.7198 86.1854 85.613L96.6854 74.363C96.7997 74.2406 96.9517 74.1601 97.1172 74.1342C97.2827 74.1082 97.4521 74.1385 97.5984 74.22Z" fill="#4583FF"/>
<path d="M141.383 91.125L142.923 87.645H150.003L151.543 91.125H153.983L148.003 77.725H144.963L138.983 91.125H141.383ZM145.603 81.625L146.383 79.725H146.543L147.323 81.625L149.143 85.705H143.783L145.603 81.625ZM160.003 91.325C162.983 91.325 165.163 89.645 165.163 87.165V86.945H163.023V87.085C163.023 88.625 161.903 89.385 159.963 89.385C157.723 89.385 156.723 88.305 156.723 86.165C156.723 83.985 157.723 82.925 159.963 82.925C161.903 82.925 163.023 83.685 163.023 85.225V85.345H165.163V85.145C165.163 82.665 162.983 80.985 160.003 80.985C156.723 80.985 154.583 83.065 154.583 86.165C154.583 89.225 156.723 91.325 160.003 91.325ZM173.281 91.125V89.185H171.481C170.241 89.185 169.681 88.865 169.681 87.645V82.985H173.281V81.185H169.681V79.005H167.541V81.185H165.861V82.985H167.541V87.765C167.541 90.185 168.861 91.125 171.001 91.125H173.281ZM176.792 80.025V77.725H174.632V80.025H176.792ZM176.792 91.125V81.185H174.632V91.125H176.792ZM185.172 91.125L189.852 81.185H187.512L183.972 89.025H183.812L180.272 81.185H177.892L182.532 91.125H185.172ZM193.88 91.325C196.14 91.325 197.72 90.325 198.24 88.645H198.38V91.125H200.36V85.085C200.36 82.705 198.94 80.985 195.78 80.985C192.62 80.985 190.74 82.685 190.74 84.945V85.025H192.88V84.945C192.88 83.485 193.78 82.885 195.62 82.885C197.52 82.885 198.24 83.465 198.24 85.105V85.685L193.72 86.165C191.76 86.385 190.52 87.185 190.52 88.725C190.52 90.365 191.82 91.325 193.88 91.325ZM192.68 88.585C192.68 87.805 193.22 87.545 194.34 87.405L198.24 86.965C198.24 88.925 196.72 89.765 194.46 89.765C193.22 89.765 192.68 89.385 192.68 88.585ZM208.808 91.125V89.185H207.008C205.768 89.185 205.208 88.865 205.208 87.645V82.985H208.808V81.185H205.208V79.005H203.068V81.185H201.388V82.985H203.068V87.765C203.068 90.185 204.388 91.125 206.528 91.125H208.808ZM215.159 91.325C218.119 91.325 220.199 89.865 220.199 87.745V87.565H218.039V87.725C218.039 88.905 217.179 89.585 215.099 89.585C212.799 89.585 211.859 88.565 211.779 86.645H220.219C220.279 86.345 220.299 86.065 220.299 85.705C220.299 82.685 218.199 80.985 215.119 80.985C211.879 80.985 209.759 83.065 209.759 86.165C209.759 89.485 211.899 91.325 215.159 91.325ZM215.079 82.685C217.199 82.685 218.259 83.565 218.259 85.405V85.445H211.799C211.919 83.665 212.879 82.685 215.079 82.685ZM231.855 91.125V89.185H230.055C228.815 89.185 228.255 88.865 228.255 87.645V82.985H231.855V81.185H228.255V79.005H226.115V81.185H224.435V82.985H226.115V87.765C226.115 90.185 227.435 91.125 229.575 91.125H231.855ZM238.206 91.325C241.166 91.325 243.246 89.865 243.246 87.745V87.565H241.086V87.725C241.086 88.905 240.226 89.585 238.146 89.585C235.846 89.585 234.906 88.565 234.826 86.645H243.266C243.326 86.345 243.346 86.065 243.346 85.705C243.346 82.685 241.246 80.985 238.166 80.985C234.926 80.985 232.806 83.065 232.806 86.165C232.806 89.485 234.946 91.325 238.206 91.325ZM238.126 82.685C240.246 82.685 241.306 83.565 241.306 85.405V85.445H234.846C234.966 83.665 235.926 82.685 238.126 82.685ZM247.124 91.125V85.545C247.124 83.765 247.824 82.825 249.524 82.825C251.004 82.825 251.604 83.485 251.604 84.905V85.785H253.744V84.485C253.744 82.605 252.764 80.985 250.504 80.985C248.464 80.985 247.384 82.265 247.084 83.865H246.944V81.185H244.964V91.125H247.124ZM257.261 91.125V86.205C257.261 84.005 258.001 82.925 260.141 82.925C262.061 82.925 262.821 83.765 262.821 85.725V91.125H264.961V86.205C264.961 84.005 265.721 82.925 267.841 82.925C269.761 82.925 270.541 83.765 270.541 85.725V91.125H272.681V85.145C272.681 82.745 271.381 80.985 268.801 80.985C266.281 80.985 265.161 82.565 264.901 84.265H264.781C264.501 82.365 263.281 80.985 261.021 80.985C258.541 80.985 257.461 82.525 257.201 84.185H257.081V81.185H255.101V91.125H257.261ZM276.772 80.025V77.725H274.612V80.025H276.772ZM276.772 91.125V81.185H274.612V91.125H276.772ZM280.932 91.125V86.205C280.932 84.045 281.912 82.925 284.092 82.925C286.152 82.925 286.992 83.865 286.992 85.725V91.125H289.152V85.145C289.152 82.845 287.792 80.985 285.032 80.985C282.512 80.985 281.192 82.585 280.892 84.265H280.752V81.185H278.772V91.125H280.932ZM293.997 91.325C296.257 91.325 297.837 90.325 298.357 88.645H298.497V91.125H300.477V85.085C300.477 82.705 299.057 80.985 295.897 80.985C292.737 80.985 290.857 82.685 290.857 84.945V85.025H292.997V84.945C292.997 83.485 293.897 82.885 295.737 82.885C297.637 82.885 298.357 83.465 298.357 85.105V85.685L293.837 86.165C291.877 86.385 290.637 87.185 290.637 88.725C290.637 90.365 291.937 91.325 293.997 91.325ZM292.797 88.585C292.797 87.805 293.337 87.545 294.457 87.405L298.357 86.965C298.357 88.925 296.837 89.765 294.577 89.765C293.337 89.765 292.797 89.385 292.797 88.585ZM304.565 91.125V77.725H302.405V91.125H304.565Z" fill="#222222"/>
<rect x="337.983" y="65.625" width="126" height="38" rx="19" fill="#4583FF"/>
<path d="M355.422 91.625V78.5341H363.629V80.2344H357.397V84.223H363.201V85.9169H357.397V89.9247H363.706V91.625H355.422ZM368.025 85.7955V91.625H366.114V81.8068H367.948V83.4048H368.07C368.296 82.8849 368.649 82.4673 369.131 82.152C369.617 81.8366 370.228 81.679 370.965 81.679C371.634 81.679 372.22 81.8196 372.723 82.1009C373.226 82.3778 373.616 82.7912 373.893 83.3409C374.17 83.8906 374.309 84.5703 374.309 85.38V91.625H372.397V85.6101C372.397 84.8984 372.212 84.3423 371.841 83.9418C371.47 83.5369 370.961 83.3345 370.313 83.3345C369.87 83.3345 369.476 83.4304 369.131 83.6222C368.79 83.8139 368.519 84.0952 368.319 84.4659C368.123 84.8324 368.025 85.2756 368.025 85.7955ZM381.455 81.8068V83.3409H376.092V81.8068H381.455ZM377.53 79.4545H379.441V88.7422C379.441 89.1129 379.497 89.392 379.608 89.5795C379.718 89.7628 379.861 89.8885 380.036 89.9567C380.215 90.0206 380.409 90.0526 380.617 90.0526C380.771 90.0526 380.905 90.0419 381.02 90.0206C381.135 89.9993 381.225 89.9822 381.289 89.9695L381.634 91.5483C381.523 91.5909 381.365 91.6335 381.161 91.6761C380.956 91.723 380.701 91.7486 380.394 91.7528C379.891 91.7614 379.422 91.6719 378.987 91.4844C378.553 91.2969 378.201 91.0071 377.933 90.6151C377.664 90.223 377.53 89.7308 377.53 89.1385V79.4545ZM387.695 91.8232C386.728 91.8232 385.895 91.6165 385.196 91.2031C384.501 90.7855 383.964 90.1996 383.585 89.4453C383.21 88.6868 383.022 87.7983 383.022 86.7798C383.022 85.7741 383.21 84.8878 383.585 84.1207C383.964 83.3537 384.493 82.755 385.17 82.3246C385.852 81.8942 386.649 81.679 387.561 81.679C388.115 81.679 388.652 81.7706 389.172 81.9538C389.691 82.1371 390.158 82.4247 390.571 82.8168C390.985 83.2088 391.311 83.718 391.549 84.3445C391.788 84.9666 391.907 85.723 391.907 86.6136V87.2912H384.103V85.8594H390.035C390.035 85.3565 389.932 84.9112 389.728 84.5234C389.523 84.1314 389.236 83.8224 388.865 83.5966C388.498 83.3707 388.068 83.2578 387.574 83.2578C387.037 83.2578 386.568 83.3899 386.167 83.6541C385.771 83.9141 385.464 84.255 385.247 84.6768C385.034 85.0945 384.927 85.5483 384.927 86.0384V87.157C384.927 87.8132 385.042 88.3714 385.272 88.8317C385.507 89.2919 385.833 89.6435 386.25 89.8864C386.668 90.125 387.156 90.2443 387.714 90.2443C388.076 90.2443 388.407 90.1932 388.705 90.0909C389.003 89.9844 389.261 89.8267 389.478 89.6179C389.696 89.4091 389.862 89.1513 389.977 88.8445L391.786 89.1705C391.641 89.7031 391.381 90.1697 391.006 90.5703C390.635 90.9666 390.169 91.2756 389.606 91.4972C389.048 91.7145 388.411 91.8232 387.695 91.8232ZM394.028 91.625V81.8068H395.875V83.3665H395.978C396.157 82.8381 396.472 82.4226 396.924 82.12C397.38 81.8132 397.895 81.6598 398.47 81.6598C398.59 81.6598 398.73 81.6641 398.892 81.6726C399.059 81.6811 399.188 81.6918 399.282 81.7045V83.5327C399.206 83.5114 399.069 83.4879 398.873 83.4624C398.677 83.4325 398.481 83.4176 398.285 83.4176C397.833 83.4176 397.431 83.5135 397.077 83.7053C396.728 83.8928 396.451 84.1548 396.246 84.4915C396.041 84.8239 395.939 85.2031 395.939 85.6293V91.625H394.028ZM409.835 91.8232C408.885 91.8232 408.067 91.608 407.381 91.1776C406.699 90.7429 406.175 90.1442 405.809 89.3814C405.442 88.6186 405.259 87.745 405.259 86.7607C405.259 85.7635 405.446 84.8835 405.821 84.1207C406.196 83.3537 406.725 82.755 407.407 82.3246C408.088 81.8942 408.892 81.679 409.816 81.679C410.562 81.679 411.227 81.8175 411.811 82.0945C412.394 82.3672 412.865 82.7507 413.223 83.245C413.585 83.7393 413.801 84.3168 413.869 84.9773H412.009C411.907 84.517 411.672 84.1207 411.306 83.7884C410.943 83.456 410.458 83.2898 409.848 83.2898C409.316 83.2898 408.849 83.4304 408.448 83.7116C408.052 83.9886 407.743 84.3849 407.522 84.9006C407.3 85.4119 407.189 86.017 407.189 86.7159C407.189 87.4318 407.298 88.0497 407.515 88.5696C407.733 89.0895 408.039 89.4922 408.436 89.7777C408.836 90.0632 409.307 90.206 409.848 90.206C410.21 90.206 410.539 90.1399 410.833 90.0078C411.131 89.8714 411.38 89.6776 411.581 89.4261C411.785 89.1747 411.928 88.8722 412.009 88.5185H413.869C413.801 89.1534 413.594 89.7202 413.249 90.2188C412.904 90.7173 412.441 91.1094 411.862 91.3949C411.286 91.6804 410.611 91.8232 409.835 91.8232ZM420.048 91.8232C419.128 91.8232 418.325 91.6122 417.639 91.1903C416.953 90.7685 416.42 90.1783 416.041 89.4197C415.661 88.6612 415.472 87.7749 415.472 86.7607C415.472 85.7422 415.661 84.8516 416.041 84.0888C416.42 83.326 416.953 82.7337 417.639 82.3118C418.325 81.8899 419.128 81.679 420.048 81.679C420.969 81.679 421.772 81.8899 422.458 82.3118C423.144 82.7337 423.677 83.326 424.056 84.0888C424.435 84.8516 424.625 85.7422 424.625 86.7607C424.625 87.7749 424.435 88.6612 424.056 89.4197C423.677 90.1783 423.144 90.7685 422.458 91.1903C421.772 91.6122 420.969 91.8232 420.048 91.8232ZM420.055 90.2188C420.651 90.2188 421.146 90.0611 421.538 89.7457C421.93 89.4304 422.22 89.0107 422.407 88.4865C422.599 87.9624 422.695 87.3849 422.695 86.7543C422.695 86.1278 422.599 85.5526 422.407 85.0284C422.22 84.5 421.93 84.076 421.538 83.7564C421.146 83.4368 420.651 83.277 420.055 83.277C419.454 83.277 418.955 83.4368 418.559 83.7564C418.167 84.076 417.875 84.5 417.683 85.0284C417.496 85.5526 417.402 86.1278 417.402 86.7543C417.402 87.3849 417.496 87.9624 417.683 88.4865C417.875 89.0107 418.167 89.4304 418.559 89.7457C418.955 90.0611 419.454 90.2188 420.055 90.2188ZM430.434 91.8168C429.641 91.8168 428.934 91.6143 428.312 91.2095C427.694 90.8004 427.208 90.2187 426.854 89.4645C426.505 88.706 426.33 87.7962 426.33 86.7351C426.33 85.674 426.507 84.7663 426.861 84.0121C427.219 83.2578 427.709 82.6804 428.331 82.2798C428.953 81.8793 429.658 81.679 430.447 81.679C431.056 81.679 431.546 81.7812 431.917 81.9858C432.292 82.1861 432.582 82.4205 432.786 82.6889C432.995 82.9574 433.157 83.1939 433.272 83.3984H433.387V78.5341H435.298V91.625H433.432V90.0973H433.272C433.157 90.3061 432.991 90.5447 432.773 90.8132C432.56 91.0817 432.266 91.3161 431.891 91.5163C431.516 91.7166 431.03 91.8168 430.434 91.8168ZM430.856 90.1868C431.405 90.1868 431.87 90.0419 432.249 89.7521C432.633 89.4581 432.922 89.0511 433.119 88.5312C433.319 88.0114 433.419 87.4062 433.419 86.7159C433.419 86.0341 433.321 85.4375 433.125 84.9261C432.929 84.4148 432.641 84.0163 432.262 83.7308C431.883 83.4453 431.414 83.3026 430.856 83.3026C430.28 83.3026 429.801 83.4517 429.418 83.75C429.034 84.0483 428.744 84.4553 428.548 84.9709C428.356 85.4865 428.261 86.0682 428.261 86.7159C428.261 87.3722 428.359 87.9624 428.555 88.4865C428.751 89.0107 429.04 89.4261 429.424 89.733C429.812 90.0355 430.289 90.1868 430.856 90.1868ZM442.258 91.8232C441.29 91.8232 440.457 91.6165 439.758 91.2031C439.064 90.7855 438.527 90.1996 438.147 89.4453C437.772 88.6868 437.585 87.7983 437.585 86.7798C437.585 85.7741 437.772 84.8878 438.147 84.1207C438.527 83.3537 439.055 82.755 439.733 82.3246C440.415 81.8942 441.211 81.679 442.123 81.679C442.677 81.679 443.214 81.7706 443.734 81.9538C444.254 82.1371 444.721 82.4247 445.134 82.8168C445.547 83.2088 445.873 83.718 446.112 84.3445C446.351 84.9666 446.47 85.723 446.47 86.6136V87.2912H438.665V85.8594H444.597C444.597 85.3565 444.495 84.9112 444.29 84.5234C444.086 84.1314 443.798 83.8224 443.427 83.5966C443.061 83.3707 442.63 83.2578 442.136 83.2578C441.599 83.2578 441.13 83.3899 440.73 83.6541C440.334 83.9141 440.027 84.255 439.809 84.6768C439.596 85.0945 439.49 85.5483 439.49 86.0384V87.157C439.49 87.8132 439.605 88.3714 439.835 88.8317C440.069 89.2919 440.395 89.6435 440.813 89.8864C441.231 90.125 441.718 90.2443 442.277 90.2443C442.639 90.2443 442.969 90.1932 443.267 90.0909C443.566 89.9844 443.824 89.8267 444.041 89.6179C444.258 89.4091 444.424 89.1513 444.54 88.8445L446.348 89.1705C446.204 89.7031 445.944 90.1697 445.569 90.5703C445.198 90.9666 444.731 91.2756 444.169 91.4972C443.611 91.7145 442.973 91.8232 442.258 91.8232Z" fill="#F5F8FF"/>
</g>
<defs>
<filter id="filter0_d_75_6388" x="0.983398" y="0.625" width="529" height="188" filterUnits="userSpaceOnUse" color-interpolation-filters="sRGB">
<feFlood flood-opacity="0" result="BackgroundImageFix"/>
<feColorMatrix in="SourceAlpha" type="matrix" values="0 0 0 0 0 0 0 0 0 0 0 0 0 0 0 0 0 0 127 0" result="hardAlpha"/>
<feOffset dy="10"/>
<feGaussianBlur stdDeviation="25"/>
<feComposite in2="hardAlpha" operator="out"/>
<feColorMatrix type="matrix" values="0 0 0 0 0 0 0 0 0 0 0 0 0 0 0 0 0 0 0.05 0"/>
<feBlend mode="normal" in2="BackgroundImageFix" result="effect1_dropShadow_75_6388"/>
<feBlend mode="normal" in="SourceGraphic" in2="effect1_dropShadow_75_6388" result="shape"/>
</filter>
</defs>
</svg>
