<svg width="408" height="288" viewBox="0 0 408 288" fill="none" xmlns="http://www.w3.org/2000/svg">
<g filter="url(#filter0_d_75_6396)">
<rect x="50" y="40.625" width="308" height="187" rx="10" fill="white" shape-rendering="crispEdges"/>
<rect x="66" y="56.625" width="56" height="56" rx="28" fill="#F5F8FF"/>
<g clip-path="url(#clip0_75_6396)">
<path d="M84 93.625C84 93.0727 84.4477 92.625 85 92.625H103C103.552 92.625 104 93.0727 104 93.625C104 94.1773 103.552 94.625 103 94.625H85C84.4477 94.625 84 94.1773 84 93.625ZM86 85.625C86 85.0727 86.4477 84.625 87 84.625C87.5523 84.625 88 85.0727 88 85.625V90.625C88 91.1773 87.5523 91.625 87 91.625C86.4477 91.625 86 91.1773 86 90.625V85.625ZM91 85.625C91 85.0727 91.4477 84.625 92 84.625C92.5523 84.625 93 85.0727 93 85.625V90.625C93 91.1773 92.5523 91.625 92 91.625C91.4477 91.625 91 91.1773 91 90.625V85.625ZM95 85.625C95 85.0727 95.4477 84.625 96 84.625C96.5523 84.625 97 85.0727 97 85.625V90.625C97 91.1773 96.5523 91.625 96 91.625C95.4477 91.625 95 91.1773 95 90.625V85.625ZM100 85.625C100 85.0727 100.448 84.625 101 84.625C101.552 84.625 102 85.0727 102 85.625V90.625C102 91.1773 101.552 91.625 101 91.625C100.448 91.625 100 91.1773 100 90.625V85.625ZM84 80.8611C84 80.1036 84.428 79.411 85.1056 79.0722L93.1056 75.0722C93.6686 74.7907 94.3314 74.7907 94.8944 75.0722L102.894 79.0722C103.572 79.411 104 80.1036 104 80.8611V81.625C104 82.7296 103.105 83.625 102 83.625H86C84.8954 83.625 84 82.7296 84 81.625V80.8611ZM94 80.625C94.2652 80.625 94.5196 80.5197 94.7071 80.3321C94.8946 80.1446 95 79.8902 95 79.625C95 79.3598 94.8946 79.1055 94.7071 78.9179C94.5196 78.7304 94.2652 78.625 94 78.625C93.7348 78.625 93.4804 78.7304 93.2929 78.9179C93.1054 79.1055 93 79.3598 93 79.625C93 79.8902 93.1054 80.1446 93.2929 80.3321C93.4804 80.5197 93.7348 80.625 94 80.625Z" fill="#4583FF"/>
</g>
<path d="M145 91.125L147.54 83.325L148.5 79.885H148.68L149.66 83.325L152.36 91.125H155.54L158.9 77.725H156.54L154.54 86.205L153.98 89.045H153.82L153.06 86.205L150.18 77.725H147.04L144.34 86.205L143.62 89.045H143.46L142.86 86.205L140.68 77.725H138.28L141.82 91.125H145ZM162.332 80.025V77.725H160.172V80.025H162.332ZM162.332 91.125V81.185H160.172V91.125H162.332ZM170.852 91.125V89.185H169.052C167.812 89.185 167.252 88.865 167.252 87.645V82.985H170.852V81.185H167.252V79.005H165.112V81.185H163.432V82.985H165.112V87.765C165.112 90.185 166.432 91.125 168.572 91.125H170.852ZM174.363 91.125V86.305C174.363 84.205 175.203 82.925 177.563 82.925C179.623 82.925 180.523 83.725 180.523 85.725V91.125H182.663V85.205C182.663 82.785 181.323 80.985 178.583 80.985C176.043 80.985 174.823 82.545 174.483 84.225H174.363V77.725H172.203V91.125H174.363ZM188.985 91.325C191.225 91.325 192.685 90.245 193.105 88.265H193.245V91.125H195.225V77.725H193.065V83.885H192.945C192.545 82.205 191.205 80.985 188.845 80.985C185.825 80.985 184.105 83.065 184.105 86.165C184.105 89.225 185.845 91.325 188.985 91.325ZM186.285 86.165C186.285 83.765 187.525 82.945 189.605 82.945C191.825 82.945 193.065 83.985 193.065 86.105V86.265C193.065 88.345 191.765 89.345 189.645 89.345C187.505 89.345 186.285 88.545 186.285 86.165ZM199.383 91.125V85.545C199.383 83.765 200.083 82.825 201.783 82.825C203.263 82.825 203.863 83.485 203.863 84.905V85.785H206.003V84.485C206.003 82.605 205.023 80.985 202.763 80.985C200.723 80.985 199.643 82.265 199.343 83.865H199.203V81.185H197.223V91.125H199.383ZM210.279 91.325C212.539 91.325 214.119 90.325 214.639 88.645H214.779V91.125H216.759V85.085C216.759 82.705 215.339 80.985 212.179 80.985C209.019 80.985 207.139 82.685 207.139 84.945V85.025H209.279V84.945C209.279 83.485 210.179 82.885 212.019 82.885C213.919 82.885 214.639 83.465 214.639 85.105V85.685L210.119 86.165C208.159 86.385 206.919 87.185 206.919 88.725C206.919 90.365 208.219 91.325 210.279 91.325ZM209.079 88.585C209.079 87.805 209.619 87.545 210.739 87.405L214.639 86.965C214.639 88.925 213.119 89.765 210.859 89.765C209.619 89.765 209.079 89.385 209.079 88.585ZM223.448 91.125L225.648 85.405L226.408 82.965H226.568L227.328 85.405L229.508 91.125H232.188L235.208 81.185H233.008L231.348 86.825L230.888 89.385H230.728L229.988 86.625L227.888 81.185H225.128L223.048 86.625L222.308 89.385H222.148L221.688 86.825L220.028 81.185H217.788L220.768 91.125H223.448ZM239.225 91.325C241.485 91.325 243.065 90.325 243.585 88.645H243.725V91.125H245.705V85.085C245.705 82.705 244.285 80.985 241.125 80.985C237.965 80.985 236.085 82.685 236.085 84.945V85.025H238.225V84.945C238.225 83.485 239.125 82.885 240.965 82.885C242.865 82.885 243.585 83.465 243.585 85.105V85.685L239.065 86.165C237.105 86.385 235.865 87.185 235.865 88.725C235.865 90.365 237.165 91.325 239.225 91.325ZM238.025 88.585C238.025 87.805 238.565 87.545 239.685 87.405L243.585 86.965C243.585 88.925 242.065 89.765 239.805 89.765C238.565 89.765 238.025 89.385 238.025 88.585ZM249.793 91.125V77.725H247.633V91.125H249.793Z" fill="#222222"/>
<path d="M67.4091 151.625V139.989H74.4318V141.239H68.8182V145.17H74.0682V146.42H68.8182V150.375H74.5227V151.625H67.4091ZM78.1307 146.375V151.625H76.7898V142.898H78.0852V144.261H78.1989C78.4034 143.818 78.714 143.462 79.1307 143.193C79.5473 142.92 80.0852 142.784 80.7443 142.784C81.3352 142.784 81.8523 142.905 82.2955 143.148C82.7386 143.386 83.0833 143.75 83.3295 144.239C83.5758 144.724 83.6989 145.337 83.6989 146.08V151.625H82.358V146.17C82.358 145.485 82.1799 144.951 81.8239 144.568C81.4678 144.182 80.9792 143.989 80.358 143.989C79.9299 143.989 79.5473 144.081 79.2102 144.267C78.8769 144.453 78.6136 144.724 78.4205 145.08C78.2273 145.436 78.1307 145.867 78.1307 146.375ZM89.9446 142.898V144.034H85.4219V142.898H89.9446ZM86.7401 140.807H88.081V149.125C88.081 149.504 88.1359 149.788 88.2457 149.977C88.3594 150.163 88.5033 150.288 88.6776 150.352C88.8556 150.413 89.0431 150.443 89.2401 150.443C89.3878 150.443 89.509 150.436 89.6037 150.42C89.6984 150.402 89.7741 150.386 89.831 150.375L90.1037 151.58C90.0128 151.614 89.8859 151.648 89.723 151.682C89.5601 151.72 89.3537 151.739 89.1037 151.739C88.7249 151.739 88.3537 151.657 87.9901 151.494C87.6302 151.331 87.331 151.083 87.0923 150.75C86.8575 150.417 86.7401 149.996 86.7401 149.489V140.807ZM95.527 151.807C94.6861 151.807 93.9607 151.621 93.3509 151.25C92.7448 150.875 92.277 150.352 91.9474 149.682C91.6217 149.008 91.4588 148.224 91.4588 147.33C91.4588 146.436 91.6217 145.648 91.9474 144.966C92.277 144.28 92.7353 143.746 93.3224 143.364C93.9134 142.977 94.6027 142.784 95.3906 142.784C95.8452 142.784 96.294 142.86 96.7372 143.011C97.1804 143.163 97.5838 143.409 97.9474 143.75C98.3111 144.087 98.6009 144.534 98.8168 145.091C99.0327 145.648 99.1406 146.333 99.1406 147.148V147.716H92.4134V146.557H97.777C97.777 146.064 97.6785 145.625 97.4815 145.239C97.2884 144.852 97.0118 144.547 96.652 144.324C96.2959 144.1 95.8755 143.989 95.3906 143.989C94.8565 143.989 94.3944 144.121 94.0043 144.386C93.6179 144.648 93.3205 144.989 93.1122 145.409C92.9039 145.83 92.7997 146.28 92.7997 146.761V147.534C92.7997 148.193 92.9134 148.752 93.1406 149.21C93.3717 149.665 93.6918 150.011 94.1009 150.25C94.5099 150.485 94.9853 150.602 95.527 150.602C95.8793 150.602 96.1974 150.553 96.4815 150.455C96.7694 150.352 97.0175 150.201 97.2259 150C97.4342 149.795 97.5952 149.542 97.7088 149.239L99.0043 149.602C98.8679 150.042 98.6387 150.428 98.3168 150.761C97.9948 151.091 97.5971 151.349 97.1236 151.534C96.6501 151.716 96.1179 151.807 95.527 151.807ZM101.18 151.625V142.898H102.476V144.216H102.567C102.726 143.784 103.014 143.434 103.43 143.165C103.847 142.896 104.317 142.761 104.839 142.761C104.938 142.761 105.061 142.763 105.209 142.767C105.357 142.771 105.468 142.777 105.544 142.784V144.148C105.499 144.136 105.394 144.119 105.232 144.097C105.072 144.07 104.904 144.057 104.726 144.057C104.302 144.057 103.923 144.146 103.589 144.324C103.26 144.498 102.999 144.741 102.805 145.051C102.616 145.358 102.521 145.708 102.521 146.102V151.625H101.18ZM114.202 151.83C113.649 151.83 113.147 151.725 112.696 151.517C112.245 151.305 111.887 151 111.622 150.602C111.357 150.201 111.224 149.716 111.224 149.148C111.224 148.648 111.323 148.242 111.52 147.932C111.717 147.617 111.98 147.371 112.31 147.193C112.639 147.015 113.003 146.883 113.401 146.795C113.802 146.705 114.205 146.633 114.611 146.58C115.141 146.511 115.571 146.46 115.901 146.426C116.234 146.388 116.476 146.326 116.628 146.239C116.783 146.152 116.861 146 116.861 145.784V145.739C116.861 145.178 116.707 144.742 116.401 144.432C116.098 144.121 115.637 143.966 115.02 143.966C114.38 143.966 113.878 144.106 113.514 144.386C113.151 144.667 112.895 144.966 112.747 145.284L111.474 144.83C111.702 144.299 112.005 143.886 112.384 143.591C112.766 143.292 113.183 143.083 113.634 142.966C114.088 142.845 114.535 142.784 114.974 142.784C115.255 142.784 115.577 142.818 115.94 142.886C116.308 142.951 116.662 143.085 117.003 143.29C117.348 143.494 117.634 143.803 117.861 144.216C118.088 144.629 118.202 145.182 118.202 145.875V151.625H116.861V150.443H116.793C116.702 150.633 116.55 150.835 116.338 151.051C116.126 151.267 115.844 151.451 115.491 151.602C115.139 151.754 114.709 151.83 114.202 151.83ZM114.406 150.625C114.937 150.625 115.384 150.521 115.747 150.313C116.115 150.104 116.391 149.835 116.577 149.506C116.766 149.176 116.861 148.83 116.861 148.466V147.239C116.804 147.307 116.679 147.369 116.486 147.426C116.296 147.479 116.077 147.527 115.827 147.568C115.58 147.606 115.34 147.64 115.105 147.67C114.874 147.697 114.687 147.72 114.543 147.739C114.194 147.784 113.868 147.858 113.565 147.96C113.266 148.059 113.024 148.208 112.838 148.409C112.656 148.606 112.565 148.875 112.565 149.216C112.565 149.682 112.738 150.034 113.082 150.273C113.431 150.508 113.872 150.625 114.406 150.625ZM120.649 151.625V142.898H121.945V144.261H122.058C122.24 143.795 122.534 143.434 122.939 143.176C123.344 142.915 123.831 142.784 124.399 142.784C124.975 142.784 125.454 142.915 125.837 143.176C126.223 143.434 126.524 143.795 126.74 144.261H126.831C127.054 143.811 127.39 143.453 127.837 143.188C128.284 142.919 128.82 142.784 129.445 142.784C130.225 142.784 130.863 143.028 131.359 143.517C131.856 144.002 132.104 144.758 132.104 145.784V151.625H130.763V145.784C130.763 145.14 130.587 144.68 130.234 144.403C129.882 144.127 129.467 143.989 128.99 143.989C128.376 143.989 127.901 144.174 127.564 144.545C127.227 144.913 127.058 145.379 127.058 145.943V151.625H125.695V145.648C125.695 145.152 125.534 144.752 125.212 144.449C124.89 144.142 124.475 143.989 123.967 143.989C123.619 143.989 123.293 144.081 122.99 144.267C122.691 144.453 122.448 144.71 122.263 145.04C122.081 145.366 121.99 145.742 121.99 146.17V151.625H120.649ZM138.101 151.807C137.313 151.807 136.622 151.619 136.027 151.244C135.436 150.869 134.974 150.345 134.641 149.67C134.311 148.996 134.146 148.208 134.146 147.307C134.146 146.398 134.311 145.604 134.641 144.926C134.974 144.248 135.436 143.722 136.027 143.347C136.622 142.972 137.313 142.784 138.101 142.784C138.889 142.784 139.578 142.972 140.169 143.347C140.764 143.722 141.226 144.248 141.555 144.926C141.889 145.604 142.055 146.398 142.055 147.307C142.055 148.208 141.889 148.996 141.555 149.67C141.226 150.345 140.764 150.869 140.169 151.244C139.578 151.619 138.889 151.807 138.101 151.807ZM138.101 150.602C138.699 150.602 139.192 150.449 139.578 150.142C139.964 149.835 140.25 149.432 140.436 148.932C140.622 148.432 140.714 147.89 140.714 147.307C140.714 146.724 140.622 146.18 140.436 145.676C140.25 145.172 139.964 144.765 139.578 144.455C139.192 144.144 138.699 143.989 138.101 143.989C137.502 143.989 137.01 144.144 136.624 144.455C136.237 144.765 135.951 145.172 135.766 145.676C135.58 146.18 135.487 146.724 135.487 147.307C135.487 147.89 135.58 148.432 135.766 148.932C135.951 149.432 136.237 149.835 136.624 150.142C137.01 150.449 137.502 150.602 138.101 150.602ZM149.602 148.057V142.898H150.943V151.625H149.602V150.148H149.511C149.307 150.591 148.989 150.968 148.557 151.278C148.125 151.585 147.58 151.739 146.92 151.739C146.375 151.739 145.89 151.619 145.466 151.381C145.042 151.138 144.708 150.775 144.466 150.29C144.223 149.801 144.102 149.186 144.102 148.443V142.898H145.443V148.352C145.443 148.989 145.621 149.496 145.977 149.875C146.337 150.254 146.795 150.443 147.352 150.443C147.686 150.443 148.025 150.358 148.369 150.188C148.718 150.017 149.009 149.756 149.244 149.403C149.483 149.051 149.602 148.602 149.602 148.057ZM154.74 146.375V151.625H153.399V142.898H154.695V144.261H154.808C155.013 143.818 155.323 143.462 155.74 143.193C156.157 142.92 156.695 142.784 157.354 142.784C157.945 142.784 158.462 142.905 158.905 143.148C159.348 143.386 159.693 143.75 159.939 144.239C160.185 144.724 160.308 145.337 160.308 146.08V151.625H158.967V146.17C158.967 145.485 158.789 144.951 158.433 144.568C158.077 144.182 157.589 143.989 156.967 143.989C156.539 143.989 156.157 144.081 155.82 144.267C155.486 144.453 155.223 144.724 155.03 145.08C154.837 145.436 154.74 145.867 154.74 146.375ZM166.554 142.898V144.034H162.031V142.898H166.554ZM163.349 140.807H164.69V149.125C164.69 149.504 164.745 149.788 164.855 149.977C164.969 150.163 165.113 150.288 165.287 150.352C165.465 150.413 165.652 150.443 165.849 150.443C165.997 150.443 166.118 150.436 166.213 150.42C166.308 150.402 166.384 150.386 166.44 150.375L166.713 151.58C166.622 151.614 166.495 151.648 166.332 151.682C166.17 151.72 165.963 151.739 165.713 151.739C165.334 151.739 164.963 151.657 164.599 151.494C164.24 151.331 163.94 151.083 163.702 150.75C163.467 150.417 163.349 149.996 163.349 149.489V140.807ZM176.866 142.898V144.034H172.344V142.898H176.866ZM173.662 140.807H175.003V149.125C175.003 149.504 175.058 149.788 175.168 149.977C175.281 150.163 175.425 150.288 175.599 150.352C175.777 150.413 175.965 150.443 176.162 150.443C176.31 150.443 176.431 150.436 176.526 150.42C176.62 150.402 176.696 150.386 176.753 150.375L177.026 151.58C176.935 151.614 176.808 151.648 176.645 151.682C176.482 151.72 176.276 151.739 176.026 151.739C175.647 151.739 175.276 151.657 174.912 151.494C174.552 151.331 174.253 151.083 174.014 150.75C173.779 150.417 173.662 149.996 173.662 149.489V140.807ZM182.335 151.807C181.547 151.807 180.856 151.619 180.261 151.244C179.67 150.869 179.208 150.345 178.875 149.67C178.545 148.996 178.381 148.208 178.381 147.307C178.381 146.398 178.545 145.604 178.875 144.926C179.208 144.248 179.67 143.722 180.261 143.347C180.856 142.972 181.547 142.784 182.335 142.784C183.123 142.784 183.813 142.972 184.403 143.347C184.998 143.722 185.46 144.248 185.79 144.926C186.123 145.604 186.29 146.398 186.29 147.307C186.29 148.208 186.123 148.996 185.79 149.67C185.46 150.345 184.998 150.869 184.403 151.244C183.813 151.619 183.123 151.807 182.335 151.807ZM182.335 150.602C182.934 150.602 183.426 150.449 183.812 150.142C184.199 149.835 184.485 149.432 184.67 148.932C184.856 148.432 184.949 147.89 184.949 147.307C184.949 146.724 184.856 146.18 184.67 145.676C184.485 145.172 184.199 144.765 183.812 144.455C183.426 144.144 182.934 143.989 182.335 143.989C181.737 143.989 181.244 144.144 180.858 144.455C180.472 144.765 180.186 145.172 180 145.676C179.814 146.18 179.722 146.724 179.722 147.307C179.722 147.89 179.814 148.432 180 148.932C180.186 149.432 180.472 149.835 180.858 150.142C181.244 150.449 181.737 150.602 182.335 150.602ZM194.814 151.625L192.155 142.898H193.564L195.45 149.58H195.541L197.405 142.898H198.837L200.678 149.557H200.768L202.655 142.898H204.064L201.405 151.625H200.087L198.178 144.92H198.041L196.132 151.625H194.814ZM205.837 151.625V142.898H207.178V151.625H205.837ZM206.518 141.443C206.257 141.443 206.032 141.354 205.842 141.176C205.657 140.998 205.564 140.784 205.564 140.534C205.564 140.284 205.657 140.07 205.842 139.892C206.032 139.714 206.257 139.625 206.518 139.625C206.78 139.625 207.003 139.714 207.189 139.892C207.378 140.07 207.473 140.284 207.473 140.534C207.473 140.784 207.378 140.998 207.189 141.176C207.003 141.354 206.78 141.443 206.518 141.443ZM213.429 142.898V144.034H208.906V142.898H213.429ZM210.224 140.807H211.565V149.125C211.565 149.504 211.62 149.788 211.73 149.977C211.844 150.163 211.988 150.288 212.162 150.352C212.34 150.413 212.527 150.443 212.724 150.443C212.872 150.443 212.993 150.436 213.088 150.42C213.183 150.402 213.259 150.386 213.315 150.375L213.588 151.58C213.497 151.614 213.37 151.648 213.207 151.682C213.045 151.72 212.838 151.739 212.588 151.739C212.209 151.739 211.838 151.657 211.474 151.494C211.115 151.331 210.815 151.083 210.577 150.75C210.342 150.417 210.224 149.996 210.224 149.489V140.807ZM216.974 146.375V151.625H215.634V139.989H216.974V144.261H217.088C217.293 143.811 217.599 143.453 218.009 143.188C218.421 142.919 218.971 142.784 219.656 142.784C220.251 142.784 220.772 142.903 221.219 143.142C221.666 143.377 222.012 143.739 222.259 144.227C222.509 144.712 222.634 145.33 222.634 146.08V151.625H221.293V146.17C221.293 145.477 221.113 144.941 220.753 144.563C220.397 144.18 219.902 143.989 219.27 143.989C218.83 143.989 218.437 144.081 218.088 144.267C217.743 144.453 217.471 144.724 217.27 145.08C217.073 145.436 216.974 145.867 216.974 146.375ZM228.382 151.807C227.655 151.807 227.013 151.623 226.456 151.256C225.899 150.885 225.464 150.362 225.149 149.688C224.835 149.01 224.678 148.208 224.678 147.284C224.678 146.367 224.835 145.572 225.149 144.898C225.464 144.224 225.901 143.703 226.462 143.335C227.022 142.968 227.67 142.784 228.405 142.784C228.973 142.784 229.422 142.879 229.751 143.068C230.085 143.254 230.339 143.466 230.513 143.705C230.691 143.939 230.829 144.133 230.928 144.284H231.041V139.989H232.382V151.625H231.087V150.284H230.928C230.829 150.443 230.689 150.644 230.507 150.886C230.325 151.125 230.066 151.339 229.729 151.528C229.392 151.714 228.943 151.807 228.382 151.807ZM228.564 150.602C229.102 150.602 229.556 150.462 229.928 150.182C230.299 149.898 230.581 149.506 230.774 149.006C230.967 148.502 231.064 147.92 231.064 147.261C231.064 146.61 230.969 146.04 230.78 145.551C230.59 145.059 230.31 144.676 229.939 144.403C229.568 144.127 229.109 143.989 228.564 143.989C227.996 143.989 227.522 144.134 227.143 144.426C226.768 144.714 226.486 145.106 226.297 145.602C226.111 146.095 226.018 146.648 226.018 147.261C226.018 147.883 226.113 148.447 226.303 148.955C226.496 149.458 226.78 149.86 227.155 150.159C227.534 150.455 228.003 150.602 228.564 150.602ZM235.024 151.625V142.898H236.32V144.216H236.411C236.57 143.784 236.857 143.434 237.274 143.165C237.691 142.896 238.161 142.761 238.683 142.761C238.782 142.761 238.905 142.763 239.053 142.767C239.2 142.771 239.312 142.777 239.388 142.784V144.148C239.342 144.136 239.238 144.119 239.075 144.097C238.916 144.07 238.748 144.057 238.57 144.057C238.145 144.057 237.767 144.146 237.433 144.324C237.104 144.498 236.842 144.741 236.649 145.051C236.46 145.358 236.365 145.708 236.365 146.102V151.625H235.024ZM243.545 151.83C242.992 151.83 242.491 151.725 242.04 151.517C241.589 151.305 241.231 151 240.966 150.602C240.701 150.201 240.568 149.716 240.568 149.148C240.568 148.648 240.667 148.242 240.864 147.932C241.061 147.617 241.324 147.371 241.653 147.193C241.983 147.015 242.347 146.883 242.744 146.795C243.146 146.705 243.549 146.633 243.955 146.58C244.485 146.511 244.915 146.46 245.244 146.426C245.578 146.388 245.82 146.326 245.972 146.239C246.127 146.152 246.205 146 246.205 145.784V145.739C246.205 145.178 246.051 144.742 245.744 144.432C245.441 144.121 244.981 143.966 244.364 143.966C243.723 143.966 243.222 144.106 242.858 144.386C242.494 144.667 242.239 144.966 242.091 145.284L240.818 144.83C241.045 144.299 241.348 143.886 241.727 143.591C242.11 143.292 242.527 143.083 242.977 142.966C243.432 142.845 243.879 142.784 244.318 142.784C244.598 142.784 244.92 142.818 245.284 142.886C245.652 142.951 246.006 143.085 246.347 143.29C246.691 143.494 246.977 143.803 247.205 144.216C247.432 144.629 247.545 145.182 247.545 145.875V151.625H246.205V150.443H246.136C246.045 150.633 245.894 150.835 245.682 151.051C245.47 151.267 245.188 151.451 244.835 151.602C244.483 151.754 244.053 151.83 243.545 151.83ZM243.75 150.625C244.28 150.625 244.727 150.521 245.091 150.313C245.458 150.104 245.735 149.835 245.92 149.506C246.11 149.176 246.205 148.83 246.205 148.466V147.239C246.148 147.307 246.023 147.369 245.83 147.426C245.64 147.479 245.42 147.527 245.17 147.568C244.924 147.606 244.684 147.64 244.449 147.67C244.218 147.697 244.03 147.72 243.886 147.739C243.538 147.784 243.212 147.858 242.909 147.96C242.61 148.059 242.367 148.208 242.182 148.409C242 148.606 241.909 148.875 241.909 149.216C241.909 149.682 242.081 150.034 242.426 150.273C242.775 150.508 243.216 150.625 243.75 150.625ZM251.97 151.625L249.311 142.898H250.72L252.607 149.58H252.697L254.561 142.898H255.993L257.834 149.557H257.925L259.811 142.898H261.22L258.561 151.625H257.243L255.334 144.92H255.197L253.288 151.625H251.97Z" fill="#808080"/>
<rect x="66" y="163.625" width="276" height="48" rx="5" fill="#F5F8FF"/>
<path d="M92.8359 184.711V186.225H77.4453V184.711H92.8359ZM92.8359 187.748V189.262H77.4453V187.748H92.8359ZM90.7461 179.906V194.125H88.3047L81.9277 183.939V194.125H79.4766V179.906H81.9277L88.3242 190.111V179.906H90.7461Z" fill="#555555"/>
<path d="M101.978 194.125V192.693L106.408 188.104C106.881 187.605 107.271 187.168 107.577 186.793C107.888 186.414 108.121 186.054 108.274 185.713C108.428 185.372 108.504 185.01 108.504 184.626C108.504 184.192 108.402 183.817 108.197 183.501C107.993 183.182 107.714 182.937 107.36 182.766C107.006 182.592 106.608 182.504 106.165 182.504C105.696 182.504 105.287 182.6 104.938 182.792C104.588 182.984 104.32 183.254 104.132 183.604C103.945 183.953 103.851 184.362 103.851 184.831H101.965C101.965 184.034 102.148 183.337 102.515 182.741C102.881 182.144 103.384 181.682 104.023 181.354C104.663 181.021 105.389 180.855 106.203 180.855C107.026 180.855 107.75 181.019 108.376 181.347C109.007 181.671 109.499 182.114 109.853 182.677C110.207 183.235 110.384 183.866 110.384 184.569C110.384 185.055 110.292 185.53 110.109 185.994C109.93 186.459 109.616 186.977 109.169 187.548C108.722 188.114 108.099 188.803 107.303 189.612L104.701 192.335V192.431H110.594V194.125H101.978ZM117.575 194.342C116.565 194.338 115.702 194.072 114.986 193.543C114.27 193.015 113.722 192.246 113.343 191.236C112.964 190.226 112.774 189.009 112.774 187.586C112.774 186.167 112.964 184.955 113.343 183.949C113.727 182.943 114.276 182.176 114.992 181.648C115.712 181.119 116.573 180.855 117.575 180.855C118.576 180.855 119.435 181.121 120.151 181.654C120.866 182.183 121.414 182.95 121.793 183.955C122.177 184.957 122.369 186.167 122.369 187.586C122.369 189.013 122.179 190.232 121.8 191.242C121.42 192.248 120.873 193.017 120.157 193.55C119.441 194.078 118.58 194.342 117.575 194.342ZM117.575 192.636C118.461 192.636 119.153 192.203 119.652 191.338C120.155 190.473 120.406 189.222 120.406 187.586C120.406 186.499 120.291 185.581 120.061 184.831C119.835 184.077 119.509 183.506 119.083 183.118C118.661 182.726 118.158 182.53 117.575 182.53C116.692 182.53 116 182.964 115.497 183.834C114.994 184.703 114.741 185.954 114.737 187.586C114.737 188.677 114.849 189.599 115.075 190.354C115.305 191.104 115.631 191.673 116.053 192.06C116.475 192.444 116.982 192.636 117.575 192.636ZM129.194 194.342C128.184 194.338 127.321 194.072 126.605 193.543C125.889 193.015 125.341 192.246 124.962 191.236C124.583 190.226 124.393 189.009 124.393 187.586C124.393 186.167 124.583 184.955 124.962 183.949C125.346 182.943 125.895 182.176 126.611 181.648C127.331 181.119 128.192 180.855 129.194 180.855C130.195 180.855 131.054 181.121 131.77 181.654C132.486 182.183 133.033 182.95 133.412 183.955C133.796 184.957 133.988 186.167 133.988 187.586C133.988 189.013 133.798 190.232 133.419 191.242C133.04 192.248 132.492 193.017 131.776 193.55C131.06 194.078 130.199 194.342 129.194 194.342ZM129.194 192.636C130.08 192.636 130.773 192.203 131.271 191.338C131.774 190.473 132.025 189.222 132.025 187.586C132.025 186.499 131.91 185.581 131.68 184.831C131.454 184.077 131.128 183.506 130.702 183.118C130.28 182.726 129.778 182.53 129.194 182.53C128.312 182.53 127.619 182.964 127.116 183.834C126.613 184.703 126.36 185.954 126.356 187.586C126.356 188.677 126.469 189.599 126.694 190.354C126.925 191.104 127.251 191.673 127.672 192.06C128.094 192.444 128.601 192.636 129.194 192.636ZM138.293 192.335L138.197 193.032C138.133 193.543 138.024 194.076 137.871 194.63C137.722 195.188 137.566 195.706 137.404 196.183C137.247 196.661 137.117 197.04 137.014 197.321H135.659C135.715 197.057 135.791 196.699 135.889 196.247C135.987 195.8 136.083 195.299 136.177 194.745C136.271 194.191 136.341 193.626 136.388 193.051L136.452 192.335H138.293ZM145.049 194.342C144.039 194.338 143.176 194.072 142.46 193.543C141.744 193.015 141.197 192.246 140.818 191.236C140.438 190.226 140.249 189.009 140.249 187.586C140.249 186.167 140.438 184.955 140.818 183.949C141.201 182.943 141.751 182.176 142.467 181.648C143.187 181.119 144.048 180.855 145.049 180.855C146.051 180.855 146.909 181.121 147.625 181.654C148.341 182.183 148.889 182.95 149.268 183.955C149.651 184.957 149.843 186.167 149.843 187.586C149.843 189.013 149.654 190.232 149.274 191.242C148.895 192.248 148.347 193.017 147.632 193.55C146.916 194.078 146.055 194.342 145.049 194.342ZM145.049 192.636C145.936 192.636 146.628 192.203 147.127 191.338C147.629 190.473 147.881 189.222 147.881 187.586C147.881 186.499 147.766 185.581 147.536 184.831C147.31 184.077 146.984 183.506 146.558 183.118C146.136 182.726 145.633 182.53 145.049 182.53C144.167 182.53 143.475 182.964 142.972 183.834C142.469 184.703 142.215 185.954 142.211 187.586C142.211 188.677 142.324 189.599 142.55 190.354C142.78 191.104 143.106 191.673 143.528 192.06C143.95 192.444 144.457 192.636 145.049 192.636ZM156.668 194.342C155.658 194.338 154.795 194.072 154.08 193.543C153.364 193.015 152.816 192.246 152.437 191.236C152.058 190.226 151.868 189.009 151.868 187.586C151.868 186.167 152.058 184.955 152.437 183.949C152.82 182.943 153.37 182.176 154.086 181.648C154.806 181.119 155.667 180.855 156.668 180.855C157.67 180.855 158.528 181.121 159.244 181.654C159.96 182.183 160.508 182.95 160.887 183.955C161.271 184.957 161.462 186.167 161.462 187.586C161.462 189.013 161.273 190.232 160.893 191.242C160.514 192.248 159.967 193.017 159.251 193.55C158.535 194.078 157.674 194.342 156.668 194.342ZM156.668 192.636C157.555 192.636 158.247 192.203 158.746 191.338C159.249 190.473 159.5 189.222 159.5 187.586C159.5 186.499 159.385 185.581 159.155 184.831C158.929 184.077 158.603 183.506 158.177 183.118C157.755 182.726 157.252 182.53 156.668 182.53C155.786 182.53 155.094 182.964 154.591 183.834C154.088 184.703 153.835 185.954 153.83 187.586C153.83 188.677 153.943 189.599 154.169 190.354C154.399 191.104 154.725 191.673 155.147 192.06C155.569 192.444 156.076 192.636 156.668 192.636ZM168.287 194.342C167.278 194.338 166.415 194.072 165.699 193.543C164.983 193.015 164.435 192.246 164.056 191.236C163.677 190.226 163.487 189.009 163.487 187.586C163.487 186.167 163.677 184.955 164.056 183.949C164.439 182.943 164.989 182.176 165.705 181.648C166.425 181.119 167.286 180.855 168.287 180.855C169.289 180.855 170.148 181.121 170.863 181.654C171.579 182.183 172.127 182.95 172.506 183.955C172.89 184.957 173.081 186.167 173.081 187.586C173.081 189.013 172.892 190.232 172.513 191.242C172.133 192.248 171.586 193.017 170.87 193.55C170.154 194.078 169.293 194.342 168.287 194.342ZM168.287 192.636C169.174 192.636 169.866 192.203 170.365 191.338C170.868 190.473 171.119 189.222 171.119 187.586C171.119 186.499 171.004 185.581 170.774 184.831C170.548 184.077 170.222 183.506 169.796 183.118C169.374 182.726 168.871 182.53 168.287 182.53C167.405 182.53 166.713 182.964 166.21 183.834C165.707 184.703 165.454 185.954 165.449 187.586C165.449 188.677 165.562 189.599 165.788 190.354C166.018 191.104 166.344 191.673 166.766 192.06C167.188 192.444 167.695 192.636 168.287 192.636ZM176.159 194.246C175.81 194.246 175.509 194.123 175.258 193.876C175.007 193.624 174.881 193.322 174.881 192.968C174.881 192.619 175.007 192.32 175.258 192.073C175.509 191.822 175.81 191.696 176.159 191.696C176.509 191.696 176.809 191.822 177.061 192.073C177.312 192.32 177.438 192.619 177.438 192.968C177.438 193.202 177.378 193.418 177.259 193.614C177.144 193.805 176.99 193.959 176.798 194.074C176.607 194.189 176.394 194.246 176.159 194.246ZM184.055 194.342C183.045 194.338 182.182 194.072 181.466 193.543C180.75 193.015 180.203 192.246 179.824 191.236C179.444 190.226 179.255 189.009 179.255 187.586C179.255 186.167 179.444 184.955 179.824 183.949C180.207 182.943 180.757 182.176 181.473 181.648C182.193 181.119 183.054 180.855 184.055 180.855C185.056 180.855 185.915 181.121 186.631 181.654C187.347 182.183 187.895 182.95 188.274 183.955C188.657 184.957 188.849 186.167 188.849 187.586C188.849 189.013 188.659 190.232 188.28 191.242C187.901 192.248 187.353 193.017 186.637 193.55C185.922 194.078 185.061 194.342 184.055 194.342ZM184.055 192.636C184.941 192.636 185.634 192.203 186.132 191.338C186.635 190.473 186.887 189.222 186.887 187.586C186.887 186.499 186.772 185.581 186.542 184.831C186.316 184.077 185.99 183.506 185.564 183.118C185.142 182.726 184.639 182.53 184.055 182.53C183.173 182.53 182.48 182.964 181.978 183.834C181.475 184.703 181.221 185.954 181.217 187.586C181.217 188.677 181.33 189.599 181.556 190.354C181.786 191.104 182.112 191.673 182.534 192.06C182.956 192.444 183.463 192.636 184.055 192.636ZM195.674 194.342C194.664 194.338 193.801 194.072 193.085 193.543C192.369 193.015 191.822 192.246 191.443 191.236C191.063 190.226 190.874 189.009 190.874 187.586C190.874 186.167 191.063 184.955 191.443 183.949C191.826 182.943 192.376 182.176 193.092 181.648C193.812 181.119 194.673 180.855 195.674 180.855C196.676 180.855 197.534 181.121 198.25 181.654C198.966 182.183 199.514 182.95 199.893 183.955C200.276 184.957 200.468 186.167 200.468 187.586C200.468 189.013 200.279 190.232 199.899 191.242C199.52 192.248 198.972 193.017 198.257 193.55C197.541 194.078 196.68 194.342 195.674 194.342ZM195.674 192.636C196.561 192.636 197.253 192.203 197.752 191.338C198.254 190.473 198.506 189.222 198.506 187.586C198.506 186.499 198.391 185.581 198.161 184.831C197.935 184.077 197.609 183.506 197.183 183.118C196.761 182.726 196.258 182.53 195.674 182.53C194.792 182.53 194.1 182.964 193.597 183.834C193.094 184.703 192.84 185.954 192.836 187.586C192.836 188.677 192.949 189.599 193.175 190.354C193.405 191.104 193.731 191.673 194.153 192.06C194.575 192.444 195.082 192.636 195.674 192.636Z" fill="#555555"/>
</g>
<defs>
<filter id="filter0_d_75_6396" x="0" y="0.625031" width="408" height="287" filterUnits="userSpaceOnUse" color-interpolation-filters="sRGB">
<feFlood flood-opacity="0" result="BackgroundImageFix"/>
<feColorMatrix in="SourceAlpha" type="matrix" values="0 0 0 0 0 0 0 0 0 0 0 0 0 0 0 0 0 0 127 0" result="hardAlpha"/>
<feOffset dy="10"/>
<feGaussianBlur stdDeviation="25"/>
<feComposite in2="hardAlpha" operator="out"/>
<feColorMatrix type="matrix" values="0 0 0 0 0 0 0 0 0 0 0 0 0 0 0 0 0 0 0.05 0"/>
<feBlend mode="normal" in2="BackgroundImageFix" result="effect1_dropShadow_75_6396"/>
<feBlend mode="normal" in="SourceGraphic" in2="effect1_dropShadow_75_6396" result="shape"/>
</filter>
<clipPath id="clip0_75_6396">
<rect width="24" height="24" fill="white" transform="translate(82 72.625)"/>
</clipPath>
</defs>
</svg>
