<svg width="67" height="66" viewBox="0 0 67 66" fill="none" xmlns="http://www.w3.org/2000/svg">
<path d="M47.3363 65.4746H19.2792C9.02048 65.4746 0.615723 57.0698 0.615723 46.811V18.754C0.615723 8.49522 9.02048 0.0904541 19.2792 0.0904541H47.3363C57.5951 0.0904541 65.9998 8.49522 65.9998 18.754V46.811C65.9998 57.0698 57.5951 65.4746 47.3363 65.4746Z" fill="#F19436"/>
<g clip-path="url(#clip0_51_330)">
<path d="M38.2735 18.5386L38.2554 18.5204L38.2917 18.6021V18.5749L38.2735 18.5386Z" fill="white"/>
<path d="M47.6024 25.3151C47.4661 27.2863 46.5214 28.9941 45.4404 30.6382C44.7864 31.6284 44.2323 32.7003 44.0052 33.8721C43.9779 33.9993 43.9597 34.1355 43.9688 34.2718C43.9779 34.408 44.0233 34.5443 44.0688 34.6805C44.1323 34.8895 44.205 35.0893 44.2686 35.2982C44.4321 35.8069 44.6501 36.3701 45.1406 36.57C44.8954 37.3694 45.6766 38.2051 45.4586 39.0045C45.3768 39.3042 45.1679 39.5404 44.968 39.7766C44.3958 40.4306 43.8235 41.0756 43.2512 41.7296C43.5146 42.1293 43.7781 42.5471 43.8689 43.0104C43.9688 43.4737 43.8598 44.0187 43.4874 44.3185C43.2421 44.5093 42.8697 44.6455 42.8606 44.9634C43.0695 44.9544 43.124 45.245 43.0877 45.454C42.9424 46.3442 42.47 47.1345 42.0703 47.9248L41.6706 48.5425L40.9621 49.3419C40.9621 49.3419 40.7168 49.3691 40.6986 49.3691C40.6441 49.3782 40.5806 49.4145 40.5261 49.4327C40.4806 49.6689 38.4822 50.1957 38.0825 50.4773C38.0553 50.441 38.0371 50.4137 38.0098 50.3865C37.7918 50.1321 37.4466 49.7143 37.2286 49.4599L36.9198 48.9694C36.1658 47.7703 35.4028 46.5622 34.8941 45.236C34.8123 45.0179 34.7306 44.7999 34.6216 44.591C34.5307 44.4275 34.4217 44.2731 34.3127 44.1186C33.8131 43.4464 33.2136 42.8015 33.0591 41.9839C32.8866 41.1119 33.3317 40.4851 33.4679 39.6676C33.5588 39.1044 33.2681 38.7138 33.0773 38.1869C32.8956 37.6873 32.6958 37.1695 32.3324 36.7789L32.5141 36.679C31.9055 36.0704 31.2878 35.4527 30.6792 34.8441C30.5793 34.7441 30.4703 34.6351 30.4248 34.508C30.3794 34.3899 30.3794 34.2536 30.3885 34.1264C30.4248 33.5905 30.5338 33.0455 30.3794 32.5368C30.2068 31.9645 29.5255 31.483 28.9987 31.8918C28.9169 31.9554 28.8261 32.0008 28.7262 32.0281C28.3719 32.1189 28.2992 31.8555 28.172 31.6738C27.8087 31.156 27.0002 31.1924 26.4461 31.5012C25.892 31.8101 25.4651 32.3097 24.9019 32.6094C24.5567 32.346 24.0662 32.4459 23.6755 32.6367C23.2849 32.8274 22.9216 33.1 22.4856 33.1363C22.1858 33.1635 21.886 33.0727 21.6044 32.9637C20.9231 32.6912 20.3054 32.2642 19.7968 31.7283C19.5515 31.474 19.3698 31.1469 19.1155 30.9108C18.8611 30.6837 18.4796 30.6382 18.3706 30.2476C18.0981 30.393 17.8165 30.0478 17.7529 29.7389C17.6893 29.4301 17.6439 29.0486 17.3532 28.9487C17.5621 29.0213 17.7166 26.2417 16.9717 25.7966C17.2351 24.3977 17.5349 22.9261 18.4978 21.8814C18.8702 21.4727 19.3698 21.0821 19.4061 20.5279C19.4243 20.2554 19.3244 19.9829 19.3607 19.7195C19.4425 19.0291 20.3236 18.6748 20.4871 18.0026C20.6961 17.1488 21.4318 17.5848 22.1495 17.3304C22.7127 17.1397 23.185 16.7582 23.6937 16.4675C24.7202 15.8952 25.892 15.659 27.0547 15.5046C27.2909 15.4682 27.4726 15.6953 27.3908 15.9224V15.9315C27.6724 16.2131 27.6815 16.7218 27.3999 17.0034C27.4817 17.0397 28.1539 17.2305 28.7625 17.3577C29.1985 17.4485 29.6345 17.5757 30.0433 17.7665C30.1614 17.821 30.2977 17.8573 30.4158 17.8755C30.7609 17.939 31.1061 18.0026 31.4513 18.0571C31.5966 18.0844 31.742 18.0299 31.8328 17.9209C31.9873 17.712 31.7874 17.503 31.7692 17.2759C31.742 17.0216 31.96 16.8036 32.1962 16.7218C32.4324 16.6491 32.6958 16.6855 32.9411 16.7218C33.7586 16.849 34.6852 17.1306 35.4845 16.9852C36.2476 16.8399 36.8471 16.5311 37.6465 16.5311C37.7282 16.5401 37.8009 16.5492 37.8736 16.5856C38.3368 16.7763 38.246 17.4394 38.2551 17.9481C38.2642 18.7203 38.7184 19.4742 39.3997 19.8376C39.2725 19.9466 39.3179 20.1646 39.436 20.2918C39.5541 20.4189 39.7176 20.4734 39.8538 20.5734C40.1718 20.8005 40.3171 21.1911 40.4806 21.5453C41.0166 22.7081 41.9613 23.68 43.1149 24.2432C43.342 24.3522 43.5873 24.4612 43.769 24.6429C43.9507 24.8246 44.0506 25.1153 43.9325 25.3424C44.1323 25.624 44.5229 25.7239 44.859 25.6876C45.2042 25.6512 45.5222 25.4877 45.831 25.3333C46.2852 25.1062 46.7394 24.87 47.2027 24.6429C47.3117 24.5884 47.4752 24.5339 47.5479 24.6338C47.5842 24.6793 47.5933 24.7519 47.5933 24.8155C47.6205 24.9609 47.6205 25.1425 47.6024 25.3151Z" fill="white"/>
<path d="M49.6825 37.233L49.3283 36.7607L49.1738 36.5518L49.0103 36.8697L49.0739 37.2058L48.9013 37.4601L48.6833 37.5056L48.7378 37.769L48.6742 38.0052L48.4471 38.314L48.2291 38.5775L48.002 38.7591L47.5842 39.068L47.3843 39.1043V39.4222L47.2026 39.8401L47.3298 40.2489L47.5387 40.6849C47.5387 40.6849 47.6023 41.0028 47.6205 41.0392C47.6387 41.0755 47.4479 41.5024 47.4479 41.5024L47.4752 41.666L47.2844 41.8749L47.2571 42.1656L47.3389 42.5653L47.5569 42.865L47.5387 43.2647L47.8385 43.6462L48.0565 43.7643L48.4562 43.9006L48.8014 43.5645L49.1557 43.4736L49.2465 43.0013L49.7552 39.5222L49.6371 39.1861C49.6371 39.1861 49.7461 39.0498 49.7824 39.0316C49.8188 39.0135 49.7824 38.6955 49.7824 38.6955L49.6734 38.5593L49.628 38.2686L49.846 38.5139L49.9914 38.423L50.0095 38.0778L49.8279 37.9507L49.6825 37.233Z" fill="white"/>
</g>
<defs>
<clipPath id="clip0_51_330">
<rect width="33.0197" height="35" fill="white" transform="translate(16.9897 15.4773)"/>
</clipPath>
</defs>
</svg>
