<svg width="66" height="66" viewBox="0 0 66 66" fill="none" xmlns="http://www.w3.org/2000/svg">
<path d="M47.0287 65.4973H18.9716C8.71287 65.4973 0.308105 57.0925 0.308105 46.8337V18.7767C0.308105 8.51792 8.71287 0.113159 18.9716 0.113159H47.0287C57.2874 0.113159 65.6922 8.51792 65.6922 18.7767V46.8337C65.6922 57.0925 57.2874 65.4973 47.0287 65.4973Z" fill="#F19436"/>
<g clip-path="url(#clip0_51_702)">
<path d="M17.6919 46.5C17.6919 45.6716 18.3635 45 19.1919 45H46.1919C47.0203 45 47.6919 45.6716 47.6919 46.5C47.6919 47.3284 47.0203 48 46.1919 48H19.1919C18.3635 48 17.6919 47.3284 17.6919 46.5ZM20.6919 34.5C20.6919 33.6716 21.3635 33 22.1919 33C23.0203 33 23.6919 33.6716 23.6919 34.5V42C23.6919 42.8284 23.0203 43.5 22.1919 43.5C21.3635 43.5 20.6919 42.8284 20.6919 42V34.5ZM28.1919 34.5C28.1919 33.6716 28.8635 33 29.6919 33C30.5203 33 31.1919 33.6716 31.1919 34.5V42C31.1919 42.8284 30.5203 43.5 29.6919 43.5C28.8635 43.5 28.1919 42.8284 28.1919 42V34.5ZM34.1919 34.5C34.1919 33.6716 34.8635 33 35.6919 33C36.5203 33 37.1919 33.6716 37.1919 34.5V42C37.1919 42.8284 36.5203 43.5 35.6919 43.5C34.8635 43.5 34.1919 42.8284 34.1919 42V34.5ZM41.6919 34.5C41.6919 33.6716 42.3635 33 43.1919 33C44.0203 33 44.6919 33.6716 44.6919 34.5V42C44.6919 42.8284 44.0203 43.5 43.1919 43.5C42.3635 43.5 41.6919 42.8284 41.6919 42V34.5ZM17.6919 26.7361C17.6919 25.9785 18.1199 25.286 18.7975 24.9472L31.7975 18.4472C32.3605 18.1657 33.0233 18.1657 33.5863 18.4472L46.5863 24.9472C47.2639 25.286 47.6919 25.9785 47.6919 26.7361V29.5C47.6919 30.6046 46.7965 31.5 45.6919 31.5H19.6919C18.5873 31.5 17.6919 30.6046 17.6919 29.5V26.7361ZM32.6919 27C33.0897 27 33.4712 26.842 33.7526 26.5607C34.0339 26.2794 34.1919 25.8978 34.1919 25.5C34.1919 25.1022 34.0339 24.7206 33.7526 24.4393C33.4712 24.158 33.0897 24 32.6919 24C32.2941 24 31.9125 24.158 31.6312 24.4393C31.3499 24.7206 31.1919 25.1022 31.1919 25.5C31.1919 25.8978 31.3499 26.2794 31.6312 26.5607C31.9125 26.842 32.2941 27 32.6919 27Z" fill="white"/>
</g>
<defs>
<clipPath id="clip0_51_702">
<rect width="36" height="36" fill="white" transform="translate(14.6919 15)"/>
</clipPath>
</defs>
</svg>
