<svg width="67" height="66" viewBox="0 0 67 66" fill="none" xmlns="http://www.w3.org/2000/svg">
<path d="M47.5287 65.4973H19.4716C9.21287 65.4973 0.808105 57.0925 0.808105 46.8337V18.7767C0.808105 8.51792 9.21287 0.113159 19.4716 0.113159H47.5287C57.7874 0.113159 66.1922 8.51792 66.1922 18.7767V46.8337C66.1922 57.0925 57.7874 65.4973 47.5287 65.4973Z" fill="#F19436"/>
<path d="M23.5267 18.375C22.7812 18.375 22.0657 18.672 21.5392 19.2L19.5892 21.147C18.5816 22.1528 17.9928 23.5033 17.9416 24.9261C17.8905 26.3489 18.3807 27.7381 19.3136 28.8137C20.2464 29.8893 21.5524 30.5711 22.9681 30.7216C24.3839 30.8722 25.804 30.4803 26.9422 29.625C27.8827 30.33 29.0512 30.75 30.3172 30.75C31.5832 30.75 32.7532 30.33 33.6922 29.625C34.6312 30.33 35.8012 30.75 37.0672 30.75C38.3332 30.75 39.5017 30.33 40.4422 29.625C41.5804 30.4803 43.0006 30.8722 44.4163 30.7216C45.832 30.5711 47.138 29.8893 48.0708 28.8137C49.0037 27.7381 49.494 26.3489 49.4428 24.9261C49.3916 23.5033 48.8029 22.1528 47.7952 21.147L45.8452 19.1985C45.318 18.6715 44.6032 18.3753 43.8577 18.375H23.5267Z" fill="white"/>
<path fill-rule="evenodd" clip-rule="evenodd" d="M20.1924 45.375V32.2425C22.3224 33.2535 24.8124 33.252 26.9424 32.2425C27.9971 32.7428 29.1501 33.0015 30.3174 33C31.5234 33 32.6694 32.727 33.6924 32.241C34.747 32.7418 35.8999 33.0011 37.0674 33C38.2734 33 39.4179 32.727 40.4424 32.241C42.5724 33.252 45.0624 33.2535 47.1924 32.2425V45.375H48.3174C48.6158 45.375 48.9019 45.4935 49.1129 45.7045C49.3239 45.9155 49.4424 46.2016 49.4424 46.5C49.4424 46.7984 49.3239 47.0845 49.1129 47.2955C48.9019 47.5065 48.6158 47.625 48.3174 47.625H19.0674C18.769 47.625 18.4829 47.5065 18.2719 47.2955C18.0609 47.0845 17.9424 46.7984 17.9424 46.5C17.9424 46.2016 18.0609 45.9155 18.2719 45.7045C18.4829 45.4935 18.769 45.375 19.0674 45.375H20.1924ZM24.6924 36.375C24.6924 36.0766 24.8109 35.7905 25.0219 35.5795C25.2329 35.3685 25.519 35.25 25.8174 35.25H30.3174C30.6158 35.25 30.9019 35.3685 31.1129 35.5795C31.3239 35.7905 31.4424 36.0766 31.4424 36.375V40.875C31.4424 41.1734 31.3239 41.4595 31.1129 41.6705C30.9019 41.8815 30.6158 42 30.3174 42H25.8174C25.519 42 25.2329 41.8815 25.0219 41.6705C24.8109 41.4595 24.6924 41.1734 24.6924 40.875V36.375ZM37.0674 35.25C36.769 35.25 36.4829 35.3685 36.2719 35.5795C36.0609 35.7905 35.9424 36.0766 35.9424 36.375V44.25C35.9424 44.871 36.4464 45.375 37.0674 45.375H41.5674C41.8658 45.375 42.1519 45.2565 42.3629 45.0455C42.5739 44.8345 42.6924 44.5484 42.6924 44.25V36.375C42.6924 36.0766 42.5739 35.7905 42.3629 35.5795C42.1519 35.3685 41.8658 35.25 41.5674 35.25H37.0674Z" fill="white"/>
</svg>
