<svg width="25" height="25" viewBox="0 0 25 25" fill="none" xmlns="http://www.w3.org/2000/svg">
<path d="M2 8.74402V17.324C2 18.1197 2.31607 18.8827 2.87868 19.4453C3.44129 20.0079 4.20435 20.324 5 20.324H20C20.7956 20.324 21.5587 20.0079 22.1213 19.4453C22.6839 18.8827 23 18.1197 23 17.324V8.74402L14.072 14.237C13.5992 14.5279 13.0551 14.6819 12.5 14.6819C11.9449 14.6819 11.4008 14.5279 10.928 14.237L2 8.74402Z" fill="white"/>
<path d="M23 6.98197V6.82397C23 6.02833 22.6839 5.26526 22.1213 4.70265C21.5587 4.14005 20.7956 3.82397 20 3.82397H5C4.20435 3.82397 3.44129 4.14005 2.87868 4.70265C2.31607 5.26526 2 6.02833 2 6.82397V6.98197L11.714 12.96C11.9504 13.1054 12.2225 13.1824 12.5 13.1824C12.7775 13.1824 13.0496 13.1054 13.286 12.96L23 6.98197Z" fill="white"/>
</svg>
