<svg width="17" height="16" viewBox="0 0 17 16" fill="none" xmlns="http://www.w3.org/2000/svg">
<path fill-rule="evenodd" clip-rule="evenodd" d="M1.75 0.761475C1.60082 0.761475 1.45774 0.820738 1.35225 0.926227C1.24676 1.03172 1.1875 1.17479 1.1875 1.32397C1.1875 1.47316 1.24676 1.61623 1.35225 1.72172C1.45774 1.82721 1.60082 1.88647 1.75 1.88647V14.2615H1.1875C1.03832 14.2615 0.895242 14.3207 0.789752 14.4262C0.684263 14.5317 0.625 14.6748 0.625 14.824C0.625 14.9732 0.684263 15.1162 0.789752 15.2217C0.895242 15.3272 1.03832 15.3865 1.1875 15.3865H10.75V1.88647C10.8992 1.88647 11.0423 1.82721 11.1477 1.72172C11.2532 1.61623 11.3125 1.47316 11.3125 1.32397C11.3125 1.17479 11.2532 1.03172 11.1477 0.926227C11.0423 0.820738 10.8992 0.761475 10.75 0.761475H1.75ZM4.5625 13.699V12.0115C4.5625 11.8623 4.62176 11.7192 4.72725 11.6137C4.83274 11.5082 4.97582 11.449 5.125 11.449H7.375C7.52418 11.449 7.66726 11.5082 7.77275 11.6137C7.87824 11.7192 7.9375 11.8623 7.9375 12.0115V13.699C7.9375 13.8482 7.87824 13.9912 7.77275 14.0967C7.66726 14.2022 7.52418 14.2615 7.375 14.2615H5.125C4.97582 14.2615 4.83274 14.2022 4.72725 14.0967C4.62176 13.9912 4.5625 13.8482 4.5625 13.699ZM4 4.13647C4 3.98729 4.05926 3.84422 4.16475 3.73873C4.27024 3.63324 4.41332 3.57397 4.5625 3.57397H5.125C5.27418 3.57397 5.41726 3.63324 5.52275 3.73873C5.62824 3.84422 5.6875 3.98729 5.6875 4.13647C5.6875 4.28566 5.62824 4.42873 5.52275 4.53422C5.41726 4.63971 5.27418 4.69897 5.125 4.69897H4.5625C4.41332 4.69897 4.27024 4.63971 4.16475 4.53422C4.05926 4.42873 4 4.28566 4 4.13647ZM4.5625 5.82397C4.41332 5.82397 4.27024 5.88324 4.16475 5.98873C4.05926 6.09422 4 6.23729 4 6.38647C4 6.53566 4.05926 6.67873 4.16475 6.78422C4.27024 6.88971 4.41332 6.94897 4.5625 6.94897H5.125C5.27418 6.94897 5.41726 6.88971 5.52275 6.78422C5.62824 6.67873 5.6875 6.53566 5.6875 6.38647C5.6875 6.23729 5.62824 6.09422 5.52275 5.98873C5.41726 5.88324 5.27418 5.82397 5.125 5.82397H4.5625ZM4 8.63647C4 8.48729 4.05926 8.34422 4.16475 8.23873C4.27024 8.13324 4.41332 8.07397 4.5625 8.07397H5.125C5.27418 8.07397 5.41726 8.13324 5.52275 8.23873C5.62824 8.34422 5.6875 8.48729 5.6875 8.63647C5.6875 8.78566 5.62824 8.92873 5.52275 9.03422C5.41726 9.13971 5.27418 9.19897 5.125 9.19897H4.5625C4.41332 9.19897 4.27024 9.13971 4.16475 9.03422C4.05926 8.92873 4 8.78566 4 8.63647ZM7.375 3.57397C7.22582 3.57397 7.08274 3.63324 6.97725 3.73873C6.87176 3.84422 6.8125 3.98729 6.8125 4.13647C6.8125 4.28566 6.87176 4.42873 6.97725 4.53422C7.08274 4.63971 7.22582 4.69897 7.375 4.69897H7.9375C8.08668 4.69897 8.22976 4.63971 8.33525 4.53422C8.44074 4.42873 8.5 4.28566 8.5 4.13647C8.5 3.98729 8.44074 3.84422 8.33525 3.73873C8.22976 3.63324 8.08668 3.57397 7.9375 3.57397H7.375ZM6.8125 6.38647C6.8125 6.23729 6.87176 6.09422 6.97725 5.98873C7.08274 5.88324 7.22582 5.82397 7.375 5.82397H7.9375C8.08668 5.82397 8.22976 5.88324 8.33525 5.98873C8.44074 6.09422 8.5 6.23729 8.5 6.38647C8.5 6.53566 8.44074 6.67873 8.33525 6.78422C8.22976 6.88971 8.08668 6.94897 7.9375 6.94897H7.375C7.22582 6.94897 7.08274 6.88971 6.97725 6.78422C6.87176 6.67873 6.8125 6.53566 6.8125 6.38647ZM7.375 8.07397C7.22582 8.07397 7.08274 8.13324 6.97725 8.23873C6.87176 8.34422 6.8125 8.48729 6.8125 8.63647C6.8125 8.78566 6.87176 8.92873 6.97725 9.03422C7.08274 9.13971 7.22582 9.19897 7.375 9.19897H7.9375C8.08668 9.19897 8.22976 9.13971 8.33525 9.03422C8.44074 8.92873 8.5 8.78566 8.5 8.63647C8.5 8.48729 8.44074 8.34422 8.33525 8.23873C8.22976 8.13324 8.08668 8.07397 7.9375 8.07397H7.375ZM11.875 4.13647V15.3865H15.8125C15.9617 15.3865 16.1048 15.3272 16.2102 15.2217C16.3157 15.1162 16.375 14.9732 16.375 14.824C16.375 14.6748 16.3157 14.5317 16.2102 14.4262C16.1048 14.3207 15.9617 14.2615 15.8125 14.2615H15.25V5.26147C15.3992 5.26147 15.5423 5.20221 15.6477 5.09672C15.7532 4.99123 15.8125 4.84816 15.8125 4.69897C15.8125 4.54979 15.7532 4.40672 15.6477 4.30123C15.5423 4.19574 15.3992 4.13647 15.25 4.13647H11.875ZM13 7.51147C13 7.36229 13.0593 7.21922 13.1648 7.11373C13.2702 7.00824 13.4133 6.94897 13.5625 6.94897H13.5685C13.7177 6.94897 13.8608 7.00824 13.9662 7.11373C14.0717 7.21922 14.131 7.36229 14.131 7.51147V7.51748C14.131 7.66666 14.0717 7.80973 13.9662 7.91522C13.8608 8.02071 13.7177 8.07998 13.5685 8.07998H13.5625C13.4133 8.07998 13.2702 8.02071 13.1648 7.91522C13.0593 7.80973 13 7.66666 13 7.51748V7.51147ZM13.5625 9.19897C13.4133 9.19897 13.2702 9.25824 13.1648 9.36373C13.0593 9.46922 13 9.61229 13 9.76147V9.76748C13 10.078 13.252 10.33 13.5625 10.33H13.5685C13.7177 10.33 13.8608 10.2707 13.9662 10.1652C14.0717 10.0597 14.131 9.91666 14.131 9.76748V9.76147C14.131 9.61229 14.0717 9.46922 13.9662 9.36373C13.8608 9.25824 13.7177 9.19897 13.5685 9.19897H13.5625ZM13 12.0115C13 11.8623 13.0593 11.7192 13.1648 11.6137C13.2702 11.5082 13.4133 11.449 13.5625 11.449H13.5685C13.7177 11.449 13.8608 11.5082 13.9662 11.6137C14.0717 11.7192 14.131 11.8623 14.131 12.0115V12.0175C14.131 12.1667 14.0717 12.3097 13.9662 12.4152C13.8608 12.5207 13.7177 12.58 13.5685 12.58H13.5625C13.4133 12.58 13.2702 12.5207 13.1648 12.4152C13.0593 12.3097 13 12.1667 13 12.0175V12.0115Z" fill="#4583FF"/>
</svg>
