<svg width="18" height="19" viewBox="0 0 18 19" fill="none" xmlns="http://www.w3.org/2000/svg">
<path d="M3.91716 2.33813C3.54441 2.33813 3.18666 2.48663 2.92341 2.75063L1.94841 3.72413C1.44459 4.22703 1.1502 4.90227 1.12462 5.61367C1.09904 6.32507 1.34418 7.01971 1.8106 7.55748C2.27701 8.09526 2.93 8.43617 3.63787 8.51145C4.34574 8.58673 5.05583 8.39079 5.62492 7.96313C6.09516 8.31563 6.67941 8.52563 7.31242 8.52563C7.94542 8.52563 8.53042 8.31563 8.99992 7.96313C9.46941 8.31563 10.0544 8.52563 10.6874 8.52563C11.3204 8.52563 11.9047 8.31563 12.3749 7.96313C12.944 8.39079 13.6541 8.58673 14.362 8.51145C15.0698 8.43617 15.7228 8.09526 16.1892 7.55748C16.6556 7.01971 16.9008 6.32507 16.8752 5.61367C16.8496 4.90227 16.5552 4.22703 16.0514 3.72413L15.0764 2.74988C14.8128 2.48636 14.4554 2.33826 14.0827 2.33813H3.91716Z" fill="#83A735"/>
<path fill-rule="evenodd" clip-rule="evenodd" d="M2.25 15.8382V9.27199C3.315 9.77749 4.56 9.77674 5.625 9.27199C6.15235 9.52212 6.72884 9.65151 7.3125 9.65074C7.9155 9.65074 8.4885 9.51424 9 9.27124C9.52729 9.52163 10.1038 9.65128 10.6875 9.65074C11.2905 9.65074 11.8628 9.51424 12.375 9.27124C13.44 9.77674 14.685 9.77749 15.75 9.27199V15.8382H16.3125C16.4617 15.8382 16.6048 15.8975 16.7102 16.003C16.8157 16.1085 16.875 16.2516 16.875 16.4007C16.875 16.5499 16.8157 16.693 16.7102 16.7985C16.6048 16.904 16.4617 16.9632 16.3125 16.9632H1.6875C1.53832 16.9632 1.39524 16.904 1.28975 16.7985C1.18426 16.693 1.125 16.5499 1.125 16.4007C1.125 16.2516 1.18426 16.1085 1.28975 16.003C1.39524 15.8975 1.53832 15.8382 1.6875 15.8382H2.25ZM4.5 11.3382C4.5 11.1891 4.55926 11.046 4.66475 10.9405C4.77024 10.835 4.91332 10.7757 5.0625 10.7757H7.3125C7.46168 10.7757 7.60476 10.835 7.71025 10.9405C7.81574 11.046 7.875 11.1891 7.875 11.3382V13.5882C7.875 13.7374 7.81574 13.8805 7.71025 13.986C7.60476 14.0915 7.46168 14.1507 7.3125 14.1507H5.0625C4.91332 14.1507 4.77024 14.0915 4.66475 13.986C4.55926 13.8805 4.5 13.7374 4.5 13.5882V11.3382ZM10.6875 10.7757C10.5383 10.7757 10.3952 10.835 10.2898 10.9405C10.1843 11.046 10.125 11.1891 10.125 11.3382V15.2757C10.125 15.5862 10.377 15.8382 10.6875 15.8382H12.9375C13.0867 15.8382 13.2298 15.779 13.3352 15.6735C13.4407 15.568 13.5 15.4249 13.5 15.2757V11.3382C13.5 11.1891 13.4407 11.046 13.3352 10.9405C13.2298 10.835 13.0867 10.7757 12.9375 10.7757H10.6875Z" fill="#83A735"/>
</svg>
