<svg width="67" height="66" viewBox="0 0 67 66" fill="none" xmlns="http://www.w3.org/2000/svg">
<path d="M47.5286 65.4973H19.4715C9.21274 65.4973 0.807983 57.0925 0.807983 46.8337V18.7767C0.807983 8.51792 9.21274 0.113159 19.4715 0.113159H47.5286C57.7873 0.113159 66.1921 8.51792 66.1921 18.7767V46.8337C66.1921 57.0925 57.7873 65.4973 47.5286 65.4973Z" fill="#EA3CCC"/>
<g clip-path="url(#clip0_51_845)">
<path d="M18.692 46.5C18.692 45.6716 19.3636 45 20.192 45H47.192C48.0204 45 48.692 45.6716 48.692 46.5V46.5C48.692 47.3284 48.0204 48 47.192 48H20.192C19.3636 48 18.692 47.3284 18.692 46.5V46.5ZM21.692 34.5C21.692 33.6716 22.3636 33 23.192 33V33C24.0204 33 24.692 33.6716 24.692 34.5V42C24.692 42.8284 24.0204 43.5 23.192 43.5V43.5C22.3636 43.5 21.692 42.8284 21.692 42V34.5ZM29.192 34.5C29.192 33.6716 29.8636 33 30.692 33V33C31.5204 33 32.192 33.6716 32.192 34.5V42C32.192 42.8284 31.5204 43.5 30.692 43.5V43.5C29.8636 43.5 29.192 42.8284 29.192 42V34.5ZM35.192 34.5C35.192 33.6716 35.8636 33 36.692 33V33C37.5204 33 38.192 33.6716 38.192 34.5V42C38.192 42.8284 37.5204 43.5 36.692 43.5V43.5C35.8636 43.5 35.192 42.8284 35.192 42V34.5ZM42.692 34.5C42.692 33.6716 43.3636 33 44.192 33V33C45.0204 33 45.692 33.6716 45.692 34.5V42C45.692 42.8284 45.0204 43.5 44.192 43.5V43.5C43.3636 43.5 42.692 42.8284 42.692 42V34.5ZM18.692 26.7361C18.692 25.9785 19.12 25.286 19.7976 24.9472L32.7976 18.4472C33.3606 18.1657 34.0234 18.1657 34.5864 18.4472L47.5864 24.9472C48.264 25.286 48.692 25.9785 48.692 26.7361V29.5C48.692 30.6046 47.7966 31.5 46.692 31.5H20.692C19.5874 31.5 18.692 30.6046 18.692 29.5V26.7361ZM33.692 27C34.0898 27 34.4714 26.842 34.7527 26.5607C35.034 26.2794 35.192 25.8978 35.192 25.5C35.192 25.1022 35.034 24.7206 34.7527 24.4393C34.4714 24.158 34.0898 24 33.692 24C33.2942 24 32.9127 24.158 32.6314 24.4393C32.3501 24.7206 32.192 25.1022 32.192 25.5C32.192 25.8978 32.3501 26.2794 32.6314 26.5607C32.9127 26.842 33.2942 27 33.692 27Z" fill="white"/>
</g>
<defs>
<clipPath id="clip0_51_845">
<rect width="36" height="36" fill="white" transform="translate(15.692 15)"/>
</clipPath>
</defs>
</svg>
