<svg width="230" height="33" viewBox="0 0 230 33" fill="none" xmlns="http://www.w3.org/2000/svg">
<path d="M43.7444 0.5L39.5019 13.9749H39.499L35.2938 27.4584H20.3559L24.5639 13.9749L7.63696 13.9778L11.8364 0.5H43.7444Z" fill="#0900B0"/>
<g style="mix-blend-mode:multiply">
<g style="mix-blend-mode:multiply">
<path d="M36.6074 5.51572L32.3649 18.9935H32.362L28.154 32.4741H13.2189L17.4241 18.9935L0.5 18.9964L4.69653 5.51572H36.6074Z" fill="#3280FF"/>
</g>
</g>
<g style="mix-blend-mode:multiply">
<path d="M68.524 5.47835V25.7942H63.7986V5.47835H55.7821V0.609222H76.5406V5.47835H68.524Z" fill="#3280FF"/>
<path d="M93.3411 17.907H80.4066C80.717 21.7442 82.4186 22.9428 84.6204 22.9428C86.6324 22.9428 88.1156 21.8132 88.4231 19.8616H93.1514C92.2259 24.1069 88.7997 26.2656 84.5284 26.2656C79.5299 26.2656 75.6582 23.1498 75.6582 16.7429C75.6582 11.1581 79.323 7.08224 84.9078 7.08224C90.4927 7.08224 93.4187 11.3305 93.4187 16.3089C93.4234 16.8426 93.3975 17.3762 93.3411 17.907ZM80.5388 14.8257H88.5554C88.2478 11.9514 86.9457 10.405 84.6836 10.405C82.4905 10.405 80.9499 11.8105 80.5388 14.8257Z" fill="#3280FF"/>
<path d="M100.929 19.827C100.929 20.5456 100.929 21.0256 100.964 21.5057C101.064 22.4283 101.475 22.7387 103.088 22.6353V25.889C102.121 25.9899 101.149 26.0359 100.176 26.027C97.8452 26.027 96.3735 25.1647 96.27 22.8049C96.201 21.9828 96.201 21.1291 96.201 19.9305V0.609222H100.929V19.827Z" fill="#3280FF"/>
<path d="M110.486 19.827C110.486 20.5456 110.486 21.0256 110.521 21.5057C110.622 22.4283 111.033 22.7387 112.642 22.6353V25.889C111.675 25.99 110.703 26.0361 109.731 26.027C107.402 26.027 105.931 25.1647 105.827 22.8049C105.758 21.9828 105.758 21.1291 105.758 19.9305V0.609222H110.486V19.827Z" fill="#3280FF"/>
<path d="M131.929 17.907H118.98C119.288 21.7442 120.992 22.9428 123.194 22.9428C125.206 22.9428 126.689 21.8132 126.997 19.8616H131.722C130.8 24.1069 127.373 26.2656 123.099 26.2656C118.098 26.2656 114.226 23.1498 114.226 16.7429C114.226 11.1581 117.894 7.08224 123.476 7.08224C129.058 7.08224 131.998 11.3305 131.998 16.3089C132.006 16.8425 131.983 17.376 131.929 17.907ZM119.118 14.8257H127.132C126.824 11.9514 125.522 10.405 123.263 10.405C121.07 10.405 119.529 11.8105 119.118 14.8257Z" fill="#3280FF"/>
<path d="M145.87 7.25471V11.0575C141.932 10.77 139.977 12.5291 139.977 17.427V25.7942H135.252V7.56226H139.977V10.885L141.414 8.34983C142.268 7.57062 143.377 7.13008 144.533 7.11099C144.983 7.10014 145.432 7.14846 145.87 7.25471Z" fill="#3280FF"/>
<path d="M167.212 16.3319C167.212 22.9083 163.167 26.2656 158.476 26.2656C156.967 26.2656 155.119 25.889 154.194 25.2394L152.995 23.3539V32.5H148.267V7.56226H152.995V10.336L154.363 8.34983C155.392 7.52777 157.238 7.08224 159.092 7.08224C164.196 7.08224 167.212 10.954 167.212 16.3319ZM162.325 16.6394C162.325 12.9028 160.546 10.405 157.726 10.405C155.125 10.405 153.001 12.0146 153.001 16.4698V17.3321C153.001 21.4769 155.364 22.9486 157.557 22.9486C160.29 22.9428 162.325 20.8532 162.325 16.6394Z" fill="#3280FF"/>
<path d="M188.482 16.6739C188.482 22.1898 185.09 26.2656 179.025 26.2656C172.96 26.2656 169.571 22.1898 169.571 16.6739C169.571 11.1581 172.96 7.08224 179.025 7.08224C185.09 7.08224 188.482 11.1351 188.482 16.6739ZM183.595 16.6739C183.595 12.7361 181.871 10.405 179.037 10.405C176.203 10.405 174.481 12.7361 174.481 16.6739C174.481 20.6118 176.205 22.9428 179.037 22.9428C181.868 22.9428 183.595 20.5801 183.595 16.6739Z" fill="#3280FF"/>
<path d="M196.018 3.00067C196.018 4.50683 194.955 5.50135 193.414 5.50135C191.873 5.50135 190.81 4.50683 190.81 3.00067C190.81 1.49452 191.873 0.5 193.414 0.5C194.955 0.5 196.018 1.52614 196.018 3.00067Z" fill="#3280FF"/>
<path d="M195.78 7.56226H191.051V25.7856H195.78V7.56226Z" fill="#3280FF"/>
<path d="M215.475 15.5098V25.7942H210.746V16.1594C210.746 15.4063 210.746 14.5498 210.677 13.6271C210.542 11.7071 209.479 10.405 207.185 10.405C204.891 10.405 203.072 12.3911 203.072 17.4586V25.7942H198.346V7.56226H203.072V10.5085L204.477 8.34983C205.779 7.42429 207.116 7.08224 208.864 7.08224C212.732 7.08224 214.96 9.0023 215.337 12.1871C215.447 13.2911 215.493 14.4005 215.475 15.5098Z" fill="#3280FF"/>
<path d="M225.273 19.2436C225.273 19.8615 225.273 20.3732 225.308 20.8532C225.443 22.6353 226.457 23.0118 229.102 22.8077V25.7942C227.955 26.0345 226.787 26.1597 225.615 26.1678C222.086 26.1678 220.821 25.0181 220.614 22.4312C220.545 21.6091 220.545 20.8216 220.545 19.7954V10.816H217.875V7.51626H220.545V3.00067H225.273V7.51626H229.039V10.816H225.273V19.2436Z" fill="#3280FF"/>
</g>
</svg>
