<?xml version="1.0" standalone="no"?>
<!DOCTYPE svg PUBLIC "-//W3C//DTD SVG 20010904//EN"
 "http://www.w3.org/TR/2001/REC-SVG-20010904/DTD/svg10.dtd">
<svg version="1.0" xmlns="http://www.w3.org/2000/svg"
 width="704.000000pt" height="704.000000pt" viewBox="0 0 704.000000 704.000000"
 preserveAspectRatio="xMidYMid meet">
<metadata>
Created by potrace 1.14, written by Peter Selinger 2001-2017
</metadata>
<g transform="translate(0.000000,704.000000) scale(0.100000,-0.100000)"
fill="#000000" stroke="none">
<path d="M1945 6062 c-16 -2 -25 -17 -37 -60 -9 -31 -51 -167 -93 -302 -97
-308 -98 -314 -100 -320 0 -3 -9 -30 -19 -61 l-18 -57 -439 0 c-241 0 -443 -3
-448 -6 -8 -5 -33 -76 -47 -131 -1 -5 -30 -98 -64 -205 -34 -107 -63 -203 -65
-213 -2 -9 -7 -22 -10 -27 -3 -5 -8 -18 -10 -27 -5 -27 -75 -255 -85 -278 -5
-11 -20 -60 -35 -110 -14 -49 -30 -101 -35 -115 -9 -27 -81 -257 -87 -277 -7
-28 -10 -39 -16 -53 -5 -12 -58 -182 -62 -200 -1 -3 -10 -32 -20 -65 -11 -33
-20 -63 -21 -67 -1 -5 -3 -10 -4 -13 -1 -3 -3 -8 -4 -12 -1 -5 -7 -24 -13 -43
-53 -162 -93 -301 -89 -308 2 -4 608 -7 1346 -7 738 0 1344 -3 1346 -6 2 -3
-8 -42 -22 -85 -28 -89 -25 -80 -129 -414 -42 -135 -80 -256 -85 -270 -13 -38
-51 -168 -52 -177 0 -5 -4 -16 -10 -26 -5 -10 -11 -26 -13 -35 -2 -9 -14 -48
-26 -87 -12 -38 -23 -74 -25 -80 -2 -12 -84 -274 -125 -401 -16 -50 -31 -100
-34 -112 -2 -11 -9 -30 -15 -41 -6 -12 -8 -21 -4 -21 3 0 2 -6 -4 -13 -6 -6
-10 -14 -10 -17 0 -10 -33 -125 -42 -145 -8 -16 -24 -72 -36 -120 -1 -5 -9
-30 -18 -54 -9 -24 -14 -46 -12 -48 2 -2 539 -5 1192 -5 l1189 -1 27 79 c28
83 169 532 172 549 1 6 15 47 30 92 l28 83 445 2 446 3 8 25 c4 14 21 68 37
120 17 52 44 142 62 200 17 58 36 117 42 132 6 15 10 28 9 30 -1 2 12 44 29
93 17 50 30 90 30 90 -1 0 1 7 4 15 18 57 89 287 90 295 1 6 12 39 23 75 12
36 40 126 63 200 23 74 56 182 75 240 18 58 50 159 70 225 20 66 39 127 43
135 7 19 6 17 21 70 6 25 17 59 24 75 6 17 12 35 13 40 1 6 16 55 34 110 17
55 47 150 66 210 68 215 75 240 81 255 3 8 7 20 8 26 3 14 82 265 105 334 30
90 99 314 100 322 1 4 8 27 16 50 9 24 17 48 18 53 4 16 130 416 160 510 9 28
32 100 50 160 19 61 41 130 50 155 9 25 16 50 16 55 0 9 -5024 16 -5085 7z"/>
</g>
</svg>
