<svg width="445" height="107" viewBox="0 0 445 107" fill="none" xmlns="http://www.w3.org/2000/svg">
<path d="M151.565 36.457H144.505V72.7834H151.565V36.457Z" fill="#5B5B5B"/>
<path d="M178.89 59.8945C178.89 64.9081 175.664 67.1607 171.369 67.1607C167.075 67.1607 164.204 64.9081 164.204 60.1487V47.2029H157.144V61.7878C157.144 69.0495 161.697 73.2961 169.27 73.2961C174.03 73.2961 176.69 71.5431 178.473 69.5623H178.885L179.499 72.7878H185.994V47.2029H178.89V59.8945Z" fill="#5B5B5B"/>
<path d="M248.146 67.7217C242.979 67.7217 240.065 65.3683 239.604 61.9412H262.012C262.115 61.2286 262.167 60.5094 262.165 59.7894C262.117 50.5862 255.153 46.6902 247.703 46.6902C239.057 46.6902 232.557 51.8615 232.557 60.2014C232.557 68.1292 238.802 73.2962 248.163 73.2962C255.995 73.2962 261.21 69.8209 262.288 64.4962H255.311C254.439 66.5954 251.932 67.7217 248.146 67.7217ZM247.708 52.2691C252.213 52.2691 254.82 54.2631 255.232 57.0898H239.758C240.42 54.3814 243.031 52.2691 247.686 52.2691H247.708Z" fill="#5B5B5B"/>
<path d="M274.16 50.8754H273.722L273.056 47.1897H266.64V72.7877H273.7V61.7877C273.7 56.8224 276.562 54.0614 281.887 54.0614C282.854 54.048 283.82 54.1332 284.77 54.3156V47.2028H283.784C279.077 47.2028 276.154 48.1758 274.16 50.8754Z" fill="#5B5B5B"/>
<path d="M319.436 64.8029H319.028L312.989 48.7893H305.723L299.789 64.7547H299.329L293.702 47.2029H286.69L295.337 72.7878H303.015L309.155 56.463H309.562L315.601 72.7878H323.327L331.974 47.2029H324.962L319.436 64.8029Z" fill="#5B5B5B"/>
<path d="M360.074 65.3376V56.7743C360.074 49.8149 354.189 46.6946 346.87 46.6946C339.096 46.6946 334.235 50.3802 333.569 55.8978H340.629C341.142 53.4918 343.189 52.1639 346.87 52.1639C350.551 52.1639 353.005 53.5444 353.005 56.3579V57.0109L341.493 57.8874C336.172 58.2994 332.29 60.6528 332.29 65.6663C332.29 70.8332 336.742 73.2874 343.29 73.2874C348.575 73.2874 351.796 71.8149 353.768 69.593H354.119C355.227 72.091 357.476 72.7791 359.921 72.7791H362.888V67.5683H362.222C360.736 67.5683 360.074 66.854 360.074 65.3376ZM353.01 62.6249C353.01 66.6699 348.189 67.9978 344.056 67.9978C341.243 67.9978 339.402 67.2834 339.402 65.3376C339.402 63.5846 340.989 62.7301 343.347 62.5241L353.014 61.8097L353.01 62.6249Z" fill="#5B5B5B"/>
<path d="M386.176 47.2029L377.937 65.7276H377.477L369.137 47.2029H361.512L373.432 72.7878H381.877L393.745 47.2029H386.176Z" fill="#5B5B5B"/>
<path d="M416.315 64.4962C415.438 66.5954 412.936 67.7217 409.149 67.7217C403.982 67.7217 401.068 65.3683 400.608 61.9412H423.015C423.119 61.2286 423.17 60.5094 423.169 59.7894C423.121 50.5862 416.157 46.6902 408.707 46.6902C400.06 46.6902 393.565 51.8615 393.565 60.2014C393.565 68.1292 399.806 73.2962 409.167 73.2962C416.998 73.2962 422.213 69.8209 423.291 64.4962H416.315ZM408.689 52.2691C413.194 52.2691 415.802 54.2631 416.214 57.0898H400.744C401.414 54.3814 404.017 52.2691 408.672 52.2691H408.689Z" fill="#5B5B5B"/>
<path d="M133.032 45.3184C133.032 43.0658 134.618 42.0973 136.665 42.0973C137.617 42.1061 138.563 42.2432 139.478 42.5049L140.657 37.3861C138.948 36.7818 137.149 36.4707 135.337 36.4658C130.117 36.4658 125.923 39.2312 125.923 44.9591V47.2029H119.832V52.8081H125.923V72.7878H133.032V52.8037H140.99V47.2029H133.032V45.3184Z" fill="#5B5B5B"/>
<path d="M201.573 39.9893H195L194.632 47.2028H189.075V52.808H194.5V65.4208C194.5 69.7156 196.691 73.3092 203.265 73.3092C204.969 73.3092 206.668 73.1211 208.331 72.7483V67.3622C207.372 67.5771 206.395 67.6975 205.412 67.7216C201.885 67.7216 201.578 65.7275 201.578 64.1893V52.7948H208.59V47.2028H201.573V39.9893Z" fill="#5B5B5B"/>
<path d="M223.744 39.9893H217.193L216.825 47.2028H211.254V52.808H216.68V65.4208C216.68 69.7156 218.871 73.3092 225.445 73.3092C227.145 73.3039 228.84 73.1114 230.498 72.7351V67.3622C229.539 67.5771 228.561 67.6975 227.579 67.7216C224.051 67.7216 223.744 65.7275 223.744 64.1893V52.7948H230.778V47.2028H223.744V39.9893Z" fill="#5B5B5B"/>
<path d="M21.5546 35.4885C21.5546 31.3821 22.7554 27.8761 25.2753 25.3562L29.6578 29.7387C24.7801 34.5988 29.0398 49.7096 42.9279 63.6108C56.816 77.512 71.9355 81.7674 76.8088 76.8985L81.1913 81.281C72.9698 89.5025 54.2434 83.6694 38.5673 67.9889C27.6944 57.1116 21.5546 44.7706 21.5546 35.4885Z" fill="#CDCDCD"/>
<path d="M49.1904 85.0585C45.084 85.0585 41.578 83.8577 39.0537 81.3378L43.4362 76.9553C48.3051 81.8243 63.4159 77.5645 77.3171 63.6677C91.2183 49.7709 95.4693 34.6601 90.6004 29.7912L94.9828 25.4087C103.209 33.6302 97.3713 52.3565 81.6908 68.0326C70.8135 78.9231 58.4725 85.0585 49.1904 85.0585Z" fill="#A3A3A3"/>
<path d="M83.1413 61.7615C80.4812 54.1009 75.0469 45.9144 67.8377 38.7096C52.1616 23.0292 33.4353 17.1917 25.2138 25.4176C24.6309 26.0049 25.1349 27.4555 26.3445 28.665C27.554 29.8746 29.0046 30.3742 29.5875 29.7913C34.4608 24.9224 49.5716 29.1822 63.4684 43.0834C70.0421 49.6571 74.9417 56.9977 77.3039 63.7906C79.3724 69.7463 79.1708 74.5495 76.7605 76.9599C76.1732 77.5428 76.6816 78.9977 77.8868 80.2029C79.0919 81.4081 80.5469 81.9165 81.1342 81.3292C85.3457 77.1177 86.0601 70.1583 83.1413 61.7615Z" fill="#E4E4E4"/>
<path d="M94.9741 25.4175C90.7538 21.1971 83.8032 20.4828 75.3976 23.4059C67.7414 26.0617 59.5506 31.5003 52.3458 38.7051C36.6697 54.3812 30.8322 73.1076 39.0537 81.3335C39.641 81.9163 41.0916 81.4123 42.3011 80.2072C43.5107 79.002 44.0147 77.547 43.4274 76.9597C38.5454 72.0908 42.8183 56.98 56.7195 43.0788C63.2932 36.5051 70.6338 31.6055 77.4267 29.2434C83.3825 27.1792 88.1856 27.3764 90.6004 29.7868C91.1833 30.3697 92.6382 29.8657 93.8434 28.6561C95.0486 27.4466 95.557 26.0003 94.9741 25.4175Z" fill="#DADADA"/>
</svg>
