<svg width="313" height="71" viewBox="0 0 313 71" fill="none" xmlns="http://www.w3.org/2000/svg">
<g clip-path="url(#clip0_13_2441)">
<path d="M196.387 44.5821C197.135 45.5439 198.083 46.3326 199.165 46.8939C200.247 47.4552 201.437 47.776 202.654 47.8342C203.113 47.836 203.571 47.7869 204.019 47.6879C204.406 47.602 204.776 47.448 205.11 47.2331C205.409 47.0216 205.657 46.7448 205.833 46.4236C206.016 46.0537 206.107 45.645 206.097 45.2325C206.107 44.9153 206.032 44.6012 205.879 44.3228C205.733 44.0573 205.539 43.8211 205.307 43.6263C205.062 43.4238 204.796 43.2499 204.512 43.1079C204.232 42.9546 203.94 42.8253 203.639 42.7214C203.098 42.4988 202.556 42.2936 202.02 42.1124C201.484 41.9311 200.951 41.7355 200.41 41.508C200.041 41.3797 199.674 41.2446 199.31 41.1025C198.843 40.926 198.387 40.721 197.946 40.4887C197.47 40.2369 197.014 39.9498 196.581 39.6299C196.124 39.2888 195.714 38.8882 195.363 38.4388C194.99 37.9608 194.693 37.4288 194.48 36.8612C194.244 36.212 194.129 35.5245 194.143 34.8336C194.124 33.9515 194.364 33.0832 194.835 32.3369C195.308 31.6013 195.939 30.98 196.681 30.5176C197.487 30.019 198.367 29.6523 199.288 29.4315C200.269 29.1855 201.277 29.0631 202.289 29.0673C203.797 29.0478 205.3 29.2405 206.754 29.6398C208.099 30.0233 209.351 30.6782 210.432 31.564L208.095 35.166C207.711 34.7829 207.311 34.4172 206.894 34.0703C206.51 33.7529 206.096 33.4743 205.657 33.2386C205.203 33.0051 204.722 32.8278 204.226 32.7106C203.645 32.589 203.053 32.5309 202.46 32.5373C201.976 32.5285 201.493 32.5945 201.029 32.7329C200.671 32.8478 200.338 33.0285 200.046 33.2656C199.803 33.4769 199.611 33.7413 199.486 34.0385C199.366 34.3265 199.304 34.6358 199.305 34.9481C199.298 35.2698 199.387 35.5864 199.56 35.8578C199.739 36.1223 199.966 36.3519 200.228 36.5352C200.51 36.7355 200.816 36.902 201.137 37.0314C201.482 37.1729 201.829 37.3002 202.184 37.4131C202.739 37.6182 203.297 37.8138 203.861 38.0047C204.426 38.1955 204.975 38.3911 205.534 38.5867C205.811 38.6964 206.148 38.8141 206.549 38.9636C206.969 39.1195 207.378 39.305 207.772 39.5186C208.217 39.754 208.638 40.0309 209.031 40.3456C209.459 40.6766 209.837 41.0669 210.154 41.5049C210.498 41.9918 210.766 42.528 210.949 43.0951C211.173 43.7691 211.281 44.4763 211.267 45.1864C211.285 46.1143 211.029 47.0269 210.531 47.8103C210.036 48.5797 209.378 49.2311 208.604 49.7187C207.761 50.2488 206.84 50.6417 205.875 50.8828C204.851 51.1458 203.798 51.2772 202.742 51.274C201.842 51.2738 200.943 51.2207 200.049 51.1149C199.232 51.0157 198.426 50.8362 197.643 50.579C196.88 50.3289 196.15 49.9866 195.469 49.5596C194.754 49.1069 194.102 48.5626 193.528 47.9407L196.387 44.5821ZM176.645 29.4203V44.0859C176.633 44.5872 176.718 45.0862 176.895 45.5553C177.039 45.934 177.267 46.2757 177.56 46.5556C177.838 46.8185 178.175 47.012 178.542 47.1201C178.936 47.2416 179.346 47.3001 179.757 47.2935C180.779 47.29 181.797 47.1678 182.79 46.9293C183.79 46.7058 184.747 46.3218 185.624 45.7923V29.4203H190.799V47.0979C190.81 47.5923 190.851 48.0857 190.921 48.5753C190.994 49.2114 191.117 49.9668 191.271 50.8271H186.383C186.356 50.746 186.309 50.5997 186.255 50.3723C186.201 50.1449 186.133 49.9175 186.069 49.6678C186.006 49.4181 185.956 49.1812 185.901 48.9585C185.859 48.7935 185.827 48.6262 185.805 48.4576C185.337 48.8715 184.83 49.24 184.291 49.5581C183.729 49.8996 183.139 50.1917 182.526 50.4311C181.925 50.6737 181.304 50.8626 180.67 50.9957C180.085 51.1264 179.487 51.1936 178.888 51.196C177.678 51.2363 176.472 51.0419 175.336 50.6235C174.459 50.288 173.679 49.7418 173.062 49.0333C172.482 48.3447 172.066 47.5326 171.847 46.659C171.607 45.6987 171.489 44.7117 171.498 43.7217V29.4283L176.645 29.4203ZM153.143 47.4382C153.774 47.6527 154.422 47.8155 155.079 47.9248C155.831 48.0511 156.592 48.1149 157.354 48.1157C158.131 48.1211 158.897 47.9285 159.58 47.5559C160.277 47.161 160.872 46.6081 161.317 45.9418C161.845 45.1553 162.233 44.2831 162.463 43.3639C162.746 42.2402 162.883 41.0845 162.869 39.9257C162.876 38.9686 162.775 38.0137 162.568 37.0791C162.402 36.2953 162.085 35.5511 161.636 34.8877C161.226 34.2916 160.673 33.8081 160.027 33.4819C159.291 33.1353 158.485 32.9654 157.672 32.9857C157.246 32.9879 156.821 33.0166 156.399 33.0716C155.983 33.1338 155.571 33.2155 155.162 33.3165C154.784 33.4078 154.412 33.5231 154.049 33.6616C153.732 33.7834 153.427 33.9357 153.139 34.1164L153.143 47.4382ZM147.995 19.7673H153.143V31.0281C153.95 30.417 154.854 29.9451 155.817 29.6318C156.923 29.2586 158.084 29.0742 159.251 29.0864C160.689 29.052 162.115 29.364 163.408 29.996C164.514 30.5682 165.472 31.3911 166.203 32.3989C166.95 33.4434 167.49 34.6213 167.794 35.8689C168.133 37.2069 168.302 38.5821 168.298 39.9623C168.34 41.6746 168.03 43.3773 167.388 44.9653C166.837 46.2903 166.018 47.487 164.982 48.4798C164.015 49.3908 162.871 50.0943 161.622 50.5472C160.404 50.9861 159.119 51.2136 157.824 51.2199C156.833 51.2199 155.923 51.2093 155.095 51.1881C154.264 51.1658 153.459 51.1388 152.689 51.1022C151.92 51.0656 151.148 51.0068 150.388 50.9289C149.628 50.8509 148.833 50.7603 148.003 50.6474L147.995 19.7673ZM134.107 47.8008C134.924 47.8236 135.725 47.5704 136.381 47.082C137.038 46.5817 137.572 45.9376 137.941 45.1991C138.372 44.369 138.678 43.4801 138.851 42.5608C139.054 41.5779 139.155 40.5764 139.151 39.5727C139.154 38.676 139.066 37.7814 138.887 36.9026C138.727 36.1228 138.426 35.3787 138 34.7064C137.601 34.0843 137.055 33.5703 136.41 33.21C135.684 32.8184 134.869 32.6253 134.045 32.6502C133.271 32.6368 132.509 32.8347 131.839 33.2227C131.193 33.6173 130.649 34.1575 130.249 34.8002C129.801 35.537 129.478 36.3431 129.295 37.1857C128.866 39.0394 128.852 40.965 129.253 42.8248C129.43 43.6864 129.736 44.516 130.163 45.285C130.556 46.0028 131.104 46.6243 131.768 47.1042C132.455 47.5792 133.275 47.8242 134.11 47.804L134.107 47.8008ZM134.28 51.3662C132.701 51.3937 131.131 51.1173 129.656 50.552C128.371 50.0474 127.218 49.2591 126.281 48.2461C125.344 47.2011 124.639 45.969 124.214 44.6314C123.722 43.1131 123.481 41.5248 123.5 39.9289C123.493 38.5148 123.712 37.1087 124.15 35.764C124.568 34.4924 125.243 33.3204 126.133 32.321C127.06 31.2984 128.2 30.4912 129.473 29.9562C130.974 29.3476 132.583 29.0521 134.202 29.088C135.804 29.0489 137.397 29.3446 138.878 29.9562C140.124 30.4932 141.23 31.3093 142.111 32.3417C142.976 33.387 143.614 34.6013 143.984 35.9071C144.393 37.3339 144.597 38.8119 144.588 40.2963C144.597 41.757 144.359 43.2087 143.884 44.59C143.437 45.8841 142.744 47.0793 141.842 48.1093C140.936 49.1173 139.83 49.9259 138.595 50.4836C137.237 51.0812 135.767 51.379 134.283 51.3567L134.28 51.3662ZM113.739 19.7689H118.886V45.6539C118.838 46.1539 118.953 46.656 119.214 47.0852C119.321 47.2227 119.459 47.3326 119.618 47.4053C119.776 47.4781 119.949 47.5118 120.124 47.5034C120.503 47.5147 120.881 47.4531 121.237 47.3221C121.542 47.2076 121.897 47.0629 122.288 46.9086L123.161 49.5596C122.816 49.7978 122.454 50.0104 122.078 50.1958C121.683 50.3992 121.274 50.5756 120.855 50.7237C120.419 50.8749 119.974 50.9981 119.522 51.0927C119.073 51.1849 118.616 51.2323 118.158 51.2342C117.604 51.2343 117.052 51.1735 116.512 51.0529C115.995 50.9416 115.512 50.7057 115.106 50.3659C114.664 49.9921 114.322 49.5138 114.111 48.9744C113.84 48.2386 113.714 47.457 113.742 46.6733L113.739 19.7689ZM110.369 48.747C109.65 49.1334 108.914 49.4833 108.153 49.8061C107.339 50.1507 106.499 50.4335 105.642 50.6522C104.639 50.9069 103.619 51.0924 102.591 51.2072C101.323 51.3477 100.049 51.4146 98.774 51.4075C97.3346 51.4261 95.9018 51.2113 94.5311 50.7714C92.1169 49.986 90.023 48.4379 88.5644 46.36C87.8293 45.3303 87.2272 44.212 86.7721 43.0315C86.2965 41.8111 85.9433 40.5465 85.7178 39.2562C85.487 37.9334 85.3715 36.5931 85.3727 35.2503C85.3712 33.8451 85.5114 32.4434 85.7909 31.0663C86.0566 29.74 86.4666 28.4468 87.0139 27.2098C87.5464 26.0213 88.2265 24.9046 89.0383 23.8861C89.8337 22.8844 90.7732 22.006 91.826 21.2797C92.9041 20.5332 94.0913 19.9581 95.3453 19.5749C96.7115 19.1505 98.1355 18.9417 99.5659 18.9563C100.317 18.9563 101.008 18.9785 101.633 19.0199C102.216 19.0564 102.796 19.1265 103.37 19.2298C103.893 19.3213 104.407 19.457 104.908 19.6353C105.413 19.8138 105.904 20.0297 106.377 20.281C106.909 20.5557 107.421 20.8671 107.91 21.2129C108.44 21.5733 109.023 21.9974 109.659 22.4851L106.786 26.4465C106.183 25.8844 105.545 25.3602 104.877 24.8769C104.333 24.4823 103.746 24.15 103.128 23.8861C102.557 23.6434 101.958 23.4694 101.345 23.3677C100.667 23.2644 99.9806 23.2155 99.294 23.2214C98.0706 23.1983 96.863 23.5013 95.7954 24.0992C94.7663 24.7003 93.8887 25.5294 93.2303 26.5228C92.5016 27.6252 91.9694 28.8455 91.6575 30.1296C91.2896 31.5849 91.1095 33.0813 91.1216 34.5824C91.1098 36.1809 91.2622 37.7763 91.5764 39.3437C91.8446 40.7503 92.3426 42.1032 93.0506 43.348C93.6889 44.4627 94.5821 45.4104 95.657 46.1135C96.8096 46.8218 98.1437 47.1788 99.496 47.1408C99.9362 47.1494 100.377 47.1298 100.814 47.082C101.283 47.0231 101.751 46.9866 102.228 46.9134C102.705 46.8403 103.174 46.7544 103.629 46.6542C104.084 46.554 104.507 46.4538 104.901 46.3489V35.8626H110.359L110.369 48.747ZM298.373 37.483L305.371 29.5746H311.814L302.077 39.1242L312.446 50.975H306.266L298.375 41.7211V50.975H293.218V19.9152H298.375L298.373 37.483ZM270.332 33.245C270.332 32.8172 270.332 32.2765 270.295 31.6038C270.276 30.923 270.202 30.2449 270.073 29.5762H274.929C274.976 29.7026 275.016 29.8316 275.047 29.9626C275.084 30.1216 275.125 30.3077 275.174 30.4954C275.224 30.683 275.26 30.8913 275.297 31.0917C275.333 31.2921 275.356 31.4877 275.383 31.6594C275.741 31.336 276.126 31.0439 276.534 30.7864C277.514 30.1532 278.6 29.7003 279.74 29.4489C280.381 29.3066 281.035 29.2362 281.691 29.239C282.745 29.2313 283.793 29.405 284.788 29.7527C285.712 30.0747 286.561 30.5805 287.284 31.2396C288.005 31.9081 288.577 32.7209 288.962 33.625C289.383 34.6318 289.592 35.7145 289.576 36.8056V50.9766H284.423V37.7884C284.437 37.0537 284.35 36.3206 284.164 35.6097C284.023 35.0773 283.762 34.5844 283.401 34.1689C283.065 33.8006 282.638 33.5265 282.164 33.3738C281.618 33.2002 281.049 33.1158 280.476 33.1241C280.077 33.1264 279.679 33.1583 279.285 33.2195C278.847 33.2751 278.414 33.3634 277.989 33.4835C277.547 33.5995 277.111 33.7391 276.683 33.9017C276.27 34.0473 275.868 34.2255 275.483 34.4345V50.9829H270.33L270.332 33.245ZM259.722 39.8064C258.45 39.8333 257.184 39.998 255.948 40.2978C255.111 40.4944 254.32 40.8478 253.615 41.3395C253.078 41.7161 252.659 42.2387 252.409 42.8455C252.182 43.4502 252.069 44.0919 252.077 44.7379C252.061 45.2289 252.127 45.719 252.273 46.1882C252.383 46.5401 252.576 46.8599 252.837 47.1201C253.093 47.3618 253.406 47.5342 253.747 47.6211C254.114 47.7247 254.493 47.775 254.874 47.7706C255.247 47.7706 255.625 47.7483 256.011 47.7165C256.419 47.6722 256.822 47.5946 257.217 47.4843C257.643 47.3684 258.059 47.2163 258.459 47.0295C258.91 46.8196 259.341 46.5683 259.745 46.2789L259.722 39.8064ZM247.189 32.4912C248.356 31.4436 249.717 30.6333 251.194 30.1057C252.754 29.5284 254.405 29.2359 256.069 29.2422C257.185 29.2399 258.297 29.3745 259.38 29.643C260.379 29.8801 261.331 30.2862 262.194 30.8436C263.003 31.377 263.674 32.0935 264.154 32.9348C264.659 33.8603 264.911 34.9024 264.885 35.9564V45.506C264.88 45.8957 264.908 46.2851 264.968 46.6701C265.001 46.929 265.091 47.1773 265.232 47.3969C265.352 47.5701 265.522 47.7031 265.719 47.7785C265.956 47.8555 266.205 47.891 266.455 47.8835C266.655 47.8754 266.854 47.8558 267.051 47.8246C267.354 47.7822 267.632 47.7366 267.883 47.6879L268.438 49.962C268.12 50.1576 267.792 50.3389 267.465 50.517C267.123 50.6979 266.767 50.85 266.401 50.9718C266.002 51.1088 265.593 51.2152 265.178 51.2899C264.694 51.3706 264.204 51.4116 263.713 51.4123C262.835 51.4382 261.969 51.197 261.231 50.7205C260.901 50.4951 260.618 50.2067 260.4 49.8719C260.182 49.537 260.032 49.1623 259.958 48.7693C259.436 49.2634 258.857 49.6952 258.235 50.0558C257.667 50.3877 257.066 50.6605 256.442 50.87C255.85 51.0658 255.241 51.2058 254.623 51.2883C254.043 51.3641 253.459 51.405 252.874 51.4107C251.994 51.4173 251.118 51.2886 250.277 51.0291C249.549 50.8015 248.878 50.4184 248.313 49.9063C247.763 49.4027 247.336 48.7805 247.063 48.087C246.751 47.2651 246.596 46.3916 246.608 45.5124C246.588 44.5293 246.759 43.5516 247.112 42.634C247.431 41.8371 247.905 41.112 248.508 40.5014C249.127 39.8923 249.845 39.3937 250.632 39.0272C251.49 38.6233 252.392 38.3182 253.319 38.1176C254.333 37.8854 255.362 37.726 256.398 37.6405C257.48 37.5493 258.582 37.5037 259.704 37.5037V36.7308C259.721 36.1116 259.622 35.4946 259.413 34.9116C259.234 34.4442 258.953 34.023 258.589 33.6791C258.222 33.3613 257.793 33.123 257.33 32.9794C256.803 32.8228 256.256 32.7461 255.706 32.752C255.226 32.7476 254.746 32.7918 254.275 32.884C253.802 32.975 253.343 33.128 252.91 33.3388C252.412 33.5835 251.939 33.8759 251.497 34.2118C250.924 34.6454 250.379 35.1132 249.863 35.6129L247.189 32.4912ZM228.77 23.9227V33.1464H231.663C232.559 33.1585 233.453 33.0656 234.328 32.8696C235.058 32.7152 235.753 32.4238 236.375 32.0109C236.921 31.6356 237.367 31.1308 237.671 30.5415C237.986 29.8915 238.142 29.1757 238.126 28.4534C238.139 27.7698 238.025 27.0898 237.788 26.4481C237.559 25.8758 237.163 25.3859 236.651 25.0423C236.01 24.6276 235.293 24.3448 234.541 24.2106C233.469 24.0057 232.379 23.9092 231.287 23.9227H228.77ZM228.77 37.1427V46.9818H232.949C233.909 47.0016 234.865 46.8619 235.778 46.5683C236.504 46.3293 237.177 45.9542 237.761 45.4631C238.255 45.046 238.65 44.5239 238.916 43.9348C239.162 43.3983 239.29 42.8154 239.293 42.2253C239.295 41.5524 239.167 40.8854 238.916 40.2613C238.662 39.637 238.261 39.0833 237.747 38.6471C237.148 38.1536 236.457 37.7829 235.715 37.5562C234.747 37.2666 233.741 37.1298 232.731 37.1507L228.77 37.1427ZM233.245 19.9168C234.675 19.9011 236.101 20.0787 237.483 20.4448C238.627 20.7511 239.705 21.2642 240.664 21.9587C241.523 22.6022 242.22 23.4369 242.701 24.3966C243.189 25.4311 243.431 26.5641 243.41 27.7076C243.414 28.4886 243.26 29.2624 242.955 29.9817C242.647 30.7227 242.224 31.4103 241.7 32.0188C241.162 32.6418 240.534 33.1814 239.837 33.6203C239.135 34.0705 238.368 34.4096 237.563 34.6253C238.423 34.787 239.26 35.0541 240.055 35.4205C240.915 35.8092 241.703 36.3398 242.387 36.9901C243.118 37.6738 243.712 38.4903 244.137 39.3962C244.613 40.4286 244.846 41.5563 244.819 42.6928C244.816 43.7588 244.58 44.8113 244.127 45.7764C243.641 46.801 242.935 47.7061 242.06 48.4274C241.06 49.2568 239.91 49.8868 238.673 50.2832C237.164 50.7766 235.584 51.0131 233.997 50.9829H223.304V19.92L233.245 19.9168Z" fill="#58595B"/>
<path fill-rule="evenodd" clip-rule="evenodd" d="M35.1389 0.44218C42.0704 0.452871 48.8431 2.51805 54.6012 6.37674C60.3593 10.2354 64.8443 15.7144 67.4895 22.1213C70.1346 28.5282 70.8212 35.5755 69.4624 42.3724C68.1035 49.1694 64.7604 55.411 59.8553 60.3085C54.9502 65.206 48.7035 68.5396 41.9044 69.8879C35.1054 71.2363 28.0592 70.5389 21.6564 67.8838C15.2536 65.2288 9.78147 60.7354 5.93166 54.9713C2.08185 49.2073 0.0271079 42.4314 0.0270996 35.4999C0.0270941 30.8915 0.935678 26.3283 2.70087 22.0714C4.46607 17.8145 7.05324 13.9473 10.3144 10.6912C13.5755 7.4351 17.4466 4.85389 21.7063 3.09526C25.9659 1.33662 30.5305 0.435073 35.1389 0.44218Z" fill="#717171"/>
<path fill-rule="evenodd" clip-rule="evenodd" d="M37.9967 41.4984V34.8956L46.3743 34.9496C50.4088 34.9767 52.3728 38.2017 52.3728 41.5716C52.3728 50.889 38.0205 52.8864 38.0062 41.4984M38.0062 23.9846C53.459 15.8742 54.8234 33.6853 45.4917 32.8393H37.9696L38.0062 23.9846ZM51.4711 33.6535C62.549 29.4107 53.2904 12.894 35.158 23.1116C33.2969 21.5938 31.0797 20.5753 28.7158 20.1521C24.236 19.2424 18.2295 20.0344 14.8597 23.1736L16.4881 24.7639C18.2332 23.2606 20.3695 22.2843 22.6481 21.9487C24.9268 21.6131 27.2539 21.932 29.3583 22.8683C30.0624 23.2026 30.6827 23.6903 31.1736 24.2958C31.6646 24.9012 32.0137 25.6089 32.1953 26.3669L32.2764 41.5429C31.6117 52.0849 18.0339 51.2707 18.037 41.5429V34.8844H28.7158V32.8743H12.4154V39.4279C12.4568 51.8845 27.6089 53.9805 35.1135 47.9184C38.1825 50.1938 41.9383 51.3494 45.7556 51.1928C59.2078 51.1021 61.9765 36.594 51.4361 33.644L51.4711 33.6535Z" fill="white"/>
</g>
<defs>
<clipPath id="clip0_13_2441">
<rect width="312.415" height="70.1155" fill="white" transform="translate(0.0270996 0.442139)"/>
</clipPath>
</defs>
</svg>
