<svg width="215" height="59" viewBox="0 0 215 59" fill="none" xmlns="http://www.w3.org/2000/svg">
<g clip-path="url(#clip0_69_3992)">
<path d="M211.549 15.3931C212.026 15.3964 212.494 15.5192 212.911 15.7502C213.347 15.9842 213.707 16.3399 213.945 16.7741C214.187 17.1976 214.314 17.6763 214.316 18.1637C214.315 18.6465 214.189 19.1208 213.95 19.5404C213.714 19.9732 213.358 20.3292 212.926 20.5664C212.506 20.8047 212.031 20.93 211.548 20.93C211.065 20.93 210.591 20.8047 210.17 20.5664C209.738 20.3288 209.382 19.9729 209.144 19.5404C208.903 19.1195 208.776 18.6426 208.776 18.1572C208.776 17.6718 208.903 17.195 209.144 16.7741C209.383 16.3393 209.744 15.9835 210.181 15.7502C210.6 15.5177 211.07 15.3948 211.549 15.3931ZM211.549 15.852C211.154 15.8552 210.765 15.9579 210.419 16.1507C210.054 16.3461 209.754 16.6431 209.554 17.0057C209.351 17.3562 209.245 17.7537 209.245 18.1583C209.245 18.5629 209.351 18.9604 209.554 19.3109C209.754 19.6729 210.055 19.9696 210.419 20.1659C210.769 20.3673 211.165 20.4733 211.568 20.4733C211.971 20.4733 212.367 20.3673 212.716 20.1659C213.081 19.9708 213.382 19.6738 213.582 19.3109C213.781 18.9613 213.886 18.5661 213.887 18.1637C213.885 17.7575 213.779 17.3586 213.578 17.0057C213.377 16.6431 213.077 16.3461 212.712 16.1507C212.356 15.9535 211.956 15.8506 211.549 15.852ZM210.335 19.7006V16.7135H211.357C211.613 16.7016 211.869 16.7301 212.116 16.7979C212.27 16.8489 212.402 16.9503 212.491 17.0858C212.581 17.2123 212.63 17.3634 212.632 17.5187C212.633 17.6244 212.613 17.7292 212.572 17.827C212.532 17.9248 212.473 18.0135 212.398 18.088C212.234 18.2542 212.012 18.3517 211.779 18.3607C211.873 18.396 211.959 18.4498 212.032 18.5187C212.198 18.6988 212.343 18.897 212.465 19.1096L212.829 19.6919H212.24L211.976 19.2222C211.852 18.9629 211.681 18.7282 211.474 18.5295C211.36 18.453 211.225 18.4165 211.088 18.4256H210.807V19.7006H210.335ZM210.816 18.023H211.398C211.596 18.0428 211.796 17.9997 211.969 17.8996C212.018 17.8599 212.058 17.8093 212.084 17.7518C212.11 17.6944 212.123 17.6316 212.121 17.5685C212.122 17.4839 212.097 17.4012 212.047 17.3325C211.997 17.2612 211.926 17.2069 211.844 17.1767C211.687 17.1331 211.524 17.1156 211.361 17.1247H210.816V18.023Z" fill="#58595B"/>
<path d="M34.8271 16.9342C39.4177 16.9342 43.1391 13.2128 43.1391 8.62226C43.1391 4.03169 39.4177 0.310303 34.8271 0.310303C30.2365 0.310303 26.5151 4.03169 26.5151 8.62226C26.5151 13.2128 30.2365 16.9342 34.8271 16.9342Z" fill="#B1B1B1"/>
<path d="M46.6003 53.5023C51.1909 53.5023 54.9122 49.7809 54.9122 45.1904C54.9122 40.5998 51.1909 36.8784 46.6003 36.8784C42.0097 36.8784 38.2883 40.5998 38.2883 45.1904C38.2883 49.7809 42.0097 53.5023 46.6003 53.5023Z" fill="#B1B1B1"/>
<path d="M9.20063 45.7467C13.7912 45.7467 17.5126 42.0253 17.5126 37.4348C17.5126 32.8442 13.7912 29.1228 9.20063 29.1228C4.61006 29.1228 0.888672 32.8442 0.888672 37.4348C0.888672 42.0253 4.61006 45.7467 9.20063 45.7467Z" fill="#B1B1B1"/>
<path d="M10.309 26.0751C13.2929 26.0751 15.7118 23.6562 15.7118 20.6723C15.7118 17.6884 13.2929 15.2695 10.309 15.2695C7.32515 15.2695 4.90625 17.6884 4.90625 20.6723C4.90625 23.6562 7.32515 26.0751 10.309 26.0751Z" fill="#636363"/>
<path d="M48.9553 23.8607C51.9391 23.8607 54.358 21.4418 54.358 18.458C54.358 15.4741 51.9391 13.0552 48.9553 13.0552C45.9714 13.0552 43.5525 15.4741 43.5525 18.458C43.5525 21.4418 45.9714 23.8607 48.9553 23.8607Z" fill="#636363"/>
<path d="M31.2253 57.6583C34.2091 57.6583 36.6281 55.2394 36.6281 52.2556C36.6281 49.2717 34.2091 46.8528 31.2253 46.8528C28.2414 46.8528 25.8225 49.2717 25.8225 52.2556C25.8225 55.2394 28.2414 57.6583 31.2253 57.6583Z" fill="#636363"/>
<path d="M18.4801 52.9483C20.5459 52.9483 22.2205 51.2737 22.2205 49.2079C22.2205 47.1422 20.5459 45.4675 18.4801 45.4675C16.4144 45.4675 14.7397 47.1422 14.7397 49.2079C14.7397 51.2737 16.4144 52.9483 18.4801 52.9483Z" fill="#D1D1D1"/>
<path d="M52.557 34.387C54.6228 34.387 56.2974 32.7124 56.2974 30.6466C56.2974 28.5809 54.6228 26.9062 52.557 26.9062C50.4913 26.9062 48.8167 28.5809 48.8167 30.6466C48.8167 32.7124 50.4913 34.387 52.557 34.387Z" fill="#D1D1D1"/>
<path d="M19.3115 14.9947C21.3773 14.9947 23.0519 13.3201 23.0519 11.2543C23.0519 9.18854 21.3773 7.51392 19.3115 7.51392C17.2458 7.51392 15.5712 9.18854 15.5712 11.2543C15.5712 13.3201 17.2458 14.9947 19.3115 14.9947Z" fill="#D1D1D1"/>
<path d="M82.1619 58.4463V16.4277H86.6534V21.7374C87.7183 19.6998 89.1253 18.1355 90.8743 17.0446C92.6264 15.9529 94.6543 15.3851 96.7186 15.4081C100.697 15.4081 103.893 16.7978 106.306 19.5771C108.718 22.3564 109.924 26.0412 109.923 30.6316C109.923 35.3042 108.742 39.015 106.381 41.764C104.02 44.513 100.862 45.8889 96.9048 45.8918C94.632 45.8918 92.6521 45.3615 90.9652 44.3009C89.2783 43.2402 87.9016 41.6601 86.8352 39.5604V58.4463H82.1619ZM86.7075 30.6229C86.7075 33.7976 87.5618 36.3403 89.2703 38.2509C90.9789 40.1615 93.2423 41.1211 96.0606 41.1298C98.811 41.1298 100.976 40.2545 102.554 38.5041C104.133 36.7537 104.922 34.3243 104.92 31.216C104.92 27.7368 104.132 25.0095 102.554 23.0339C100.977 21.0584 98.7815 20.0699 95.9675 20.0685C93.093 20.0685 90.8317 21.0065 89.1837 22.8824C87.5358 24.7584 86.7125 27.3414 86.714 30.6316L86.7075 30.6229Z" fill="#58595B"/>
<path d="M140.369 16.4276V44.6818H135.787V39.5561C134.682 41.6139 133.27 43.1839 131.551 44.2662C129.825 45.3499 127.823 45.9142 125.785 45.8918C121.825 45.8918 118.634 44.4971 116.213 41.7077C113.791 38.9183 112.581 35.2262 112.581 30.6316C112.581 25.9792 113.757 22.2785 116.109 19.5295C118.461 16.7805 121.606 15.4096 125.544 15.4168C127.853 15.4168 129.858 15.9471 131.557 17.0077C133.257 18.0684 134.628 19.6478 135.67 21.746V16.4276H140.369ZM135.787 30.8177C135.787 27.6271 134.938 25.0585 133.239 23.1118C131.541 21.1652 129.325 20.1925 126.592 20.194C123.759 20.194 121.549 21.0894 119.96 22.8802C118.371 24.671 117.577 27.1726 117.579 30.3848C117.579 33.8019 118.377 36.4369 119.975 38.2898C121.572 40.1427 123.839 41.0691 126.774 41.0691C129.588 41.0691 131.793 40.1687 133.391 38.3677C134.988 36.5668 135.787 34.0501 135.787 30.8177Z" fill="#58595B"/>
<path d="M172.71 16.4278V44.1884C172.71 47.2549 172.51 49.4375 172.109 50.7362C171.707 52.0295 171.028 53.2195 170.119 54.2233C168.826 55.6494 167.207 56.7412 165.401 57.4053C163.542 58.0994 161.407 58.4464 158.996 58.4464C154.811 58.4464 151.549 57.4688 149.212 55.5134C146.874 53.5581 145.653 50.7889 145.549 47.2058H150.855V47.5759C150.855 49.6972 151.568 51.3344 152.995 52.4874C154.423 53.6403 156.443 54.2176 159.056 54.219C160.945 54.219 162.558 53.9052 163.896 53.2774C165.185 52.6919 166.256 51.7137 166.955 50.483C167.395 49.7329 167.7 48.9117 167.857 48.0565C168.039 47.13 168.129 45.8024 168.128 44.0737V39.3116C167.063 41.3319 165.667 42.881 163.939 43.9589C162.195 45.0438 160.176 45.6064 158.121 45.5802C154.16 45.5802 150.969 44.2007 148.549 41.4415C146.129 38.6824 144.919 35.0178 144.917 30.4477C144.917 25.8299 146.093 22.1711 148.443 19.4711C150.794 16.7712 153.939 15.4176 157.879 15.4104C160.17 15.4104 162.18 15.9407 163.909 17.0014C165.638 18.062 167.005 19.6212 168.009 21.679V16.4278H172.71ZM168.128 30.6317C168.128 27.457 167.284 24.9042 165.598 22.9734C163.911 21.0426 161.69 20.0751 158.935 20.0707C156.101 20.0707 153.89 20.9661 152.303 22.757C150.715 24.5478 149.922 27.0493 149.922 30.2615C149.922 33.6801 150.72 36.3151 152.318 38.1665C153.915 40.018 156.182 40.9444 159.119 40.9459C161.933 40.9459 164.139 40.0353 165.736 38.2142C167.334 36.393 168.131 33.8655 168.128 30.6317Z" fill="#58595B"/>
<path d="M205.172 16.4276V44.6818H200.59V39.5561C199.486 41.6153 198.073 43.1854 196.35 44.2662C194.623 45.3499 192.621 45.9142 190.583 45.8918C186.622 45.8918 183.431 44.4971 181.011 41.7077C178.591 38.9183 177.381 35.2262 177.379 30.6316C177.379 25.9792 178.555 22.2785 180.905 19.5295C183.256 16.7805 186.401 15.4096 190.341 15.4168C192.65 15.4168 194.655 15.9471 196.356 17.0077C198.057 18.0684 199.428 19.6478 200.469 21.746V16.4276H205.172ZM200.59 30.8177C200.59 27.6271 199.741 25.0585 198.044 23.1118C196.347 21.1652 194.132 20.1925 191.397 20.194C188.563 20.194 186.352 21.0894 184.765 22.8802C183.177 24.671 182.384 27.1726 182.384 30.3848C182.384 33.8019 183.182 36.4369 184.78 38.2898C186.377 40.1427 188.647 41.0691 191.588 41.0691C194.401 41.0691 196.607 40.1687 198.205 38.3677C199.802 36.5668 200.597 34.0501 200.59 30.8177Z" fill="#58595B"/>
</g>
<defs>
<clipPath id="clip0_69_3992">
<rect width="213.643" height="58.227" fill="white" transform="translate(0.774536 0.229004)"/>
</clipPath>
</defs>
</svg>
