<svg width="161" height="39" viewBox="0 0 161 39" fill="none" xmlns="http://www.w3.org/2000/svg">
<path d="M55.0718 13.4097H52.5254V26.5115H55.0718V13.4097Z" fill="#5B5B5B"/>
<path d="M64.9271 21.8631C64.9271 23.6714 63.7637 24.4838 62.2147 24.4838C60.6657 24.4838 59.6304 23.6714 59.6304 21.9548V17.2856H57.084V22.546C57.084 25.1651 58.7263 26.6967 61.4576 26.6967C63.1741 26.6967 64.1336 26.0645 64.7769 25.35H64.9255L65.1468 26.5134H67.4893V17.2856H64.9271V21.8631Z" fill="#5B5B5B"/>
<path d="M89.9057 24.686C88.0422 24.686 86.9911 23.8372 86.8251 22.6012H94.9068C94.9441 22.3442 94.9626 22.0848 94.9622 21.8251C94.9448 18.5058 92.4332 17.1006 89.7461 17.1006C86.6275 17.1006 84.2834 18.9657 84.2834 21.9737C84.2834 24.833 86.5358 26.6966 89.9121 26.6966C92.7366 26.6966 94.6176 25.4431 95.0064 23.5227H92.4901C92.1755 24.2798 91.2714 24.686 89.9057 24.686ZM89.7477 19.1127C91.3726 19.1127 92.313 19.8319 92.4616 20.8514H86.8804C87.1191 19.8746 88.0611 19.1127 89.7398 19.1127H89.7477Z" fill="#5B5B5B"/>
<path d="M99.2885 18.6101H99.1305L98.8902 17.2808H96.5762V26.5132H99.1226V22.5458C99.1226 20.755 100.155 19.7592 102.075 19.7592C102.424 19.7543 102.773 19.7851 103.115 19.8509V17.2855H102.76C101.062 17.2855 100.008 17.6364 99.2885 18.6101Z" fill="#5B5B5B"/>
<path d="M115.618 23.6335H115.471L113.293 17.8578H110.672L108.532 23.6161H108.366L106.336 17.2856H103.807L106.926 26.5134H109.695L111.91 20.6255H112.057L114.235 26.5134H117.021L120.14 17.2856H117.611L115.618 23.6335Z" fill="#5B5B5B"/>
<path d="M130.275 23.826V20.7375C130.275 18.2275 128.152 17.1021 125.513 17.1021C122.709 17.1021 120.956 18.4314 120.715 20.4214H123.262C123.447 19.5536 124.185 19.0747 125.513 19.0747C126.84 19.0747 127.726 19.5726 127.726 20.5873V20.8229L123.573 21.139C121.654 21.2876 120.254 22.1364 120.254 23.9446C120.254 25.8082 121.86 26.6933 124.221 26.6933C126.128 26.6933 127.289 26.1622 128.001 25.3608H128.127C128.527 26.2618 129.338 26.51 130.22 26.51H131.29V24.6306H131.05C130.514 24.6306 130.275 24.3729 130.275 23.826ZM127.727 22.8476C127.727 24.3066 125.988 24.7855 124.498 24.7855C123.483 24.7855 122.819 24.5278 122.819 23.826C122.819 23.1938 123.391 22.8856 124.242 22.8113L127.729 22.5536L127.727 22.8476Z" fill="#5B5B5B"/>
<path d="M139.689 17.2856L136.718 23.967H136.552L133.544 17.2856H130.793L135.093 26.5134H138.139L142.419 17.2856H139.689Z" fill="#5B5B5B"/>
<path d="M150.559 23.5227C150.243 24.2798 149.341 24.686 147.975 24.686C146.111 24.686 145.06 23.8372 144.894 22.6012H152.976C153.013 22.3442 153.032 22.0848 153.031 21.8251C153.014 18.5058 150.502 17.1006 147.815 17.1006C144.697 17.1006 142.354 18.9657 142.354 21.9737C142.354 24.833 144.605 26.6966 147.981 26.6966C150.806 26.6966 152.687 25.4431 153.076 23.5227H150.559ZM147.809 19.1127C149.434 19.1127 150.374 19.8319 150.523 20.8514H144.943C145.185 19.8746 146.124 19.1127 147.803 19.1127H147.809Z" fill="#5B5B5B"/>
<path d="M48.3873 16.606C48.3873 15.7935 48.9595 15.4442 49.6977 15.4442C50.041 15.4474 50.3823 15.4968 50.7124 15.5912L51.1376 13.745C50.5213 13.5271 49.8725 13.4148 49.2187 13.4131C47.3362 13.4131 45.8235 14.4105 45.8235 16.4763V17.2856H43.6265V19.3073H45.8235V26.5133H48.3873V19.3057H51.2577V17.2856H48.3873V16.606Z" fill="#5B5B5B"/>
<path d="M73.1085 14.6836H70.7376L70.6048 17.2853H68.6006V19.3069H70.5574V23.856C70.5574 25.405 71.3477 26.7011 73.7187 26.7011C74.3333 26.7011 74.9461 26.6333 75.5459 26.4988V24.5562C75.2001 24.6337 74.8475 24.6771 74.4932 24.6858C73.2208 24.6858 73.1101 23.9666 73.1101 23.4118V19.3022H75.6391V17.2853H73.1085V14.6836Z" fill="#5B5B5B"/>
<path d="M81.1049 14.6836H78.7419L78.6091 17.2853H76.6001V19.3069H78.5569V23.856C78.5569 25.405 79.3472 26.7011 81.7182 26.7011C82.3314 26.6992 82.9426 26.6298 83.5406 26.4941V24.5562C83.1948 24.6337 82.8422 24.6771 82.4879 24.6858C81.2155 24.6858 81.1049 23.9666 81.1049 23.4118V19.3022H83.6418V17.2853H81.1049V14.6836Z" fill="#5B5B5B"/>
<path d="M8.18091 13.0607C8.18091 11.5796 8.614 10.3151 9.52286 9.40625L11.1035 10.9869C9.34425 12.7398 10.8806 18.1898 15.8896 23.2036C20.8986 28.2173 26.3518 29.7521 28.1095 27.996L29.6901 29.5767C26.7248 32.5419 19.9708 30.4381 14.3169 24.7826C10.3954 20.8595 8.18091 16.4084 8.18091 13.0607Z" fill="#CDCDCD"/>
<path d="M18.1484 30.9387C16.6674 30.9387 15.4029 30.5057 14.4924 29.5968L16.0731 28.0162C17.8291 29.7722 23.2791 28.2359 28.2929 23.2237C33.3067 18.2115 34.8399 12.7615 33.0838 11.0054L34.6644 9.4248C37.6313 12.3901 35.5259 19.1441 29.8704 24.798C25.9472 28.7259 21.4962 30.9387 18.1484 30.9387Z" fill="#A3A3A3"/>
<path d="M30.3935 22.5364C29.4341 19.7735 27.4741 16.8209 24.8739 14.2223C19.22 8.56684 12.466 6.46144 9.50074 9.42828C9.29052 9.64009 9.47229 10.1633 9.90855 10.5995C10.3448 11.0358 10.868 11.216 11.0782 11.0058C12.8359 9.24967 18.2859 10.786 23.2981 15.7998C25.669 18.1707 27.4361 20.8183 28.2881 23.2683C29.0342 25.4163 28.9614 27.1487 28.0921 28.0181C27.8803 28.2283 28.0637 28.7531 28.4983 29.1877C28.933 29.6224 29.4578 29.8058 29.6696 29.5939C31.1886 28.075 31.4462 25.5649 30.3935 22.5364Z" fill="#E4E4E4"/>
<path d="M34.6613 9.42801C33.1391 7.90586 30.6323 7.64822 27.6006 8.7025C24.8393 9.66036 21.8851 11.6219 19.2865 14.2205C13.6326 19.8744 11.5272 26.6284 14.4925 29.5953C14.7043 29.8055 15.2275 29.6237 15.6637 29.189C16.1 28.7544 16.2817 28.2296 16.0699 28.0178C14.3091 26.2617 15.8502 20.8117 20.864 15.7979C23.2349 13.427 25.8825 11.6599 28.3324 10.8079C30.4805 10.0634 32.2129 10.1346 33.0838 11.0039C33.294 11.2141 33.8188 11.0323 34.2535 10.5961C34.6882 10.1598 34.8715 9.63823 34.6613 9.42801Z" fill="#DADADA"/>
</svg>
