<svg width="171" height="39" viewBox="0 0 171 39" fill="none" xmlns="http://www.w3.org/2000/svg">
<g clip-path="url(#clip0_51_1551)">
<path d="M107.168 24.171C107.575 24.694 108.091 25.1229 108.679 25.4281C109.267 25.7334 109.914 25.9078 110.576 25.9394C110.826 25.9404 111.075 25.9137 111.318 25.8599C111.529 25.8132 111.73 25.7294 111.912 25.6126C112.074 25.4976 112.209 25.347 112.305 25.1724C112.404 24.9712 112.454 24.749 112.449 24.5247C112.454 24.3522 112.413 24.1814 112.33 24.03C112.251 23.8856 112.145 23.7572 112.019 23.6513C111.886 23.5412 111.741 23.4466 111.586 23.3694C111.434 23.286 111.276 23.2157 111.112 23.1592C110.818 23.0382 110.523 22.9266 110.231 22.828C109.94 22.7294 109.65 22.6231 109.356 22.4994C109.155 22.4297 108.956 22.3561 108.758 22.2789C108.504 22.1829 108.256 22.0714 108.016 21.9451C107.757 21.8082 107.509 21.6521 107.274 21.4781C107.025 21.2926 106.803 21.0748 106.611 20.8304C106.409 20.5705 106.247 20.2812 106.132 19.9726C106.003 19.6195 105.941 19.2457 105.948 18.87C105.938 18.3903 106.068 17.9181 106.324 17.5123C106.582 17.1124 106.925 16.7745 107.328 16.523C107.766 16.2519 108.245 16.0525 108.746 15.9324C109.279 15.7987 109.827 15.7321 110.377 15.7344C111.197 15.7238 112.015 15.8286 112.806 16.0457C113.537 16.2542 114.218 16.6103 114.806 17.0921L113.535 19.0507C113.326 18.8424 113.108 18.6436 112.882 18.4549C112.673 18.2823 112.448 18.1308 112.209 18.0027C111.962 17.8757 111.701 17.7793 111.431 17.7156C111.115 17.6494 110.793 17.6178 110.471 17.6213C110.208 17.6165 109.945 17.6524 109.693 17.7277C109.498 17.7901 109.317 17.8884 109.158 18.0174C109.026 18.1322 108.922 18.276 108.854 18.4376C108.788 18.5942 108.754 18.7624 108.755 18.9323C108.751 19.1072 108.8 19.2793 108.894 19.4269C108.991 19.5708 109.114 19.6956 109.257 19.7953C109.411 19.9042 109.577 19.9947 109.751 20.0651C109.939 20.1421 110.128 20.2113 110.32 20.2727C110.622 20.3842 110.926 20.4906 111.233 20.5943C111.54 20.6981 111.838 20.8045 112.142 20.9109C112.293 20.9705 112.476 21.0345 112.694 21.1158C112.923 21.2006 113.145 21.3014 113.359 21.4176C113.601 21.5456 113.83 21.6961 114.044 21.8673C114.277 22.0473 114.482 22.2596 114.655 22.4977C114.842 22.7625 114.987 23.054 115.087 23.3625C115.209 23.7289 115.267 24.1135 115.26 24.4996C115.269 25.0042 115.13 25.5004 114.86 25.9265C114.59 26.3448 114.232 26.6991 113.811 26.9642C113.353 27.2525 112.853 27.4661 112.328 27.5972C111.771 27.7402 111.199 27.8117 110.624 27.8099C110.135 27.8098 109.646 27.7809 109.16 27.7234C108.715 27.6695 108.277 27.5719 107.852 27.432C107.436 27.296 107.039 27.1099 106.669 26.8777C106.281 26.6315 105.926 26.3356 105.614 25.9974L107.168 24.171ZM96.4332 15.9264V23.9012C96.4264 24.1738 96.4725 24.4452 96.569 24.7002C96.6476 24.9061 96.771 25.092 96.9304 25.2442C97.0819 25.3871 97.265 25.4923 97.4649 25.5512C97.6787 25.6172 97.9017 25.649 98.1255 25.6454C98.681 25.6435 99.2345 25.5771 99.7746 25.4474C100.318 25.3259 100.839 25.1171 101.316 24.8291V15.9264H104.13V25.5391C104.136 25.8079 104.158 26.0762 104.196 26.3424C104.236 26.6883 104.303 27.0991 104.386 27.5669H101.728C101.713 27.5228 101.688 27.4433 101.659 27.3196C101.63 27.1959 101.592 27.0723 101.558 26.9365C101.523 26.8007 101.496 26.6719 101.466 26.5508C101.444 26.4611 101.426 26.3701 101.414 26.2784C101.159 26.5035 100.884 26.7039 100.591 26.8768C100.285 27.0625 99.9642 27.2214 99.6311 27.3516C99.3044 27.4835 98.9667 27.5863 98.6219 27.6586C98.3036 27.7297 97.9786 27.7662 97.6525 27.7676C96.9948 27.7895 96.339 27.6837 95.7215 27.4562C95.2446 27.2738 94.8199 26.9768 94.4849 26.5915C94.1692 26.217 93.9432 25.7754 93.8242 25.3004C93.6933 24.7782 93.6293 24.2415 93.634 23.7032V15.9307L96.4332 15.9264ZM83.6529 25.7241C83.9962 25.8408 84.3485 25.9293 84.7062 25.9887C85.1148 26.0574 85.5284 26.0921 85.9428 26.0925C86.3656 26.0955 86.7823 25.9907 87.1534 25.7881C87.5325 25.5734 87.8559 25.2727 88.0978 24.9104C88.3851 24.4827 88.5961 24.0084 88.7212 23.5086C88.8752 22.8975 88.9494 22.2691 88.9418 21.639C88.9456 21.1185 88.8908 20.5992 88.7783 20.0911C88.688 19.6648 88.5159 19.2602 88.2716 18.8994C88.0486 18.5752 87.7476 18.3124 87.3964 18.135C86.9964 17.9465 86.5578 17.8541 86.1157 17.8652C85.8844 17.8663 85.6533 17.8819 85.4239 17.9119C85.1977 17.9457 84.9732 17.9901 84.7511 18.045C84.5456 18.0947 84.3434 18.1574 84.1458 18.2327C83.9733 18.2989 83.8076 18.3817 83.6511 18.48L83.6529 25.7241ZM80.8536 10.6773H83.6529V16.8006C84.0921 16.4683 84.5837 16.2117 85.1074 16.0414C85.7087 15.8384 86.3399 15.7381 86.9744 15.7448C87.7567 15.7261 88.532 15.8957 89.2349 16.2394C89.8365 16.5506 90.3571 16.998 90.7552 17.5461C91.1613 18.114 91.4549 18.7545 91.6199 19.433C91.8042 20.1605 91.8963 20.9084 91.8941 21.6589C91.9168 22.59 91.7485 23.5159 91.3994 24.3794C91.0999 25.0999 90.6544 25.7506 90.091 26.2905C89.5649 26.7859 88.9431 27.1685 88.2638 27.4147C87.6013 27.6534 86.9029 27.7771 86.1987 27.7805C85.6597 27.7805 85.1651 27.7748 84.7148 27.7632C84.2625 27.7511 83.825 27.7364 83.4064 27.7165C82.9879 27.6966 82.5685 27.6646 82.1551 27.6223C81.7418 27.5799 81.3094 27.5306 80.858 27.4692L80.8536 10.6773ZM73.3017 25.9213C73.7461 25.9337 74.1817 25.796 74.5383 25.5304C74.8955 25.2584 75.1857 24.9081 75.3866 24.5065C75.6209 24.0551 75.7876 23.5718 75.8813 23.0719C75.9918 22.5374 76.0466 21.9928 76.0447 21.447C76.0462 20.9594 75.9981 20.4729 75.9011 19.9951C75.814 19.5711 75.6505 19.1664 75.4186 18.8008C75.2017 18.4625 74.9047 18.183 74.5538 17.9871C74.1595 17.7742 73.7159 17.6692 73.2679 17.6827C72.8473 17.6754 72.4326 17.783 72.0685 17.994C71.7173 18.2086 71.4212 18.5024 71.2038 18.8519C70.9601 19.2525 70.7847 19.6908 70.6849 20.149C70.4517 21.157 70.444 22.2041 70.6624 23.2154C70.7583 23.6839 70.9251 24.1351 71.1571 24.5532C71.371 24.9436 71.669 25.2815 72.0296 25.5425C72.4033 25.8008 72.8493 25.934 73.3034 25.923L73.3017 25.9213ZM73.3959 27.8601C72.5371 27.8751 71.6833 27.7247 70.8812 27.4173C70.1829 27.1429 69.5556 26.7143 69.0462 26.1634C68.5365 25.5952 68.1533 24.9252 67.922 24.1978C67.6545 23.3722 67.5234 22.5085 67.5337 21.6407C67.53 20.8717 67.6494 20.1071 67.8874 19.3759C68.1146 18.6845 68.4817 18.0472 68.9657 17.5037C69.4699 16.9476 70.0898 16.5087 70.7818 16.2178C71.5979 15.8868 72.4731 15.7261 73.3536 15.7456C74.2246 15.7244 75.0906 15.8852 75.896 16.2178C76.5736 16.5097 77.1751 16.9536 77.654 17.5149C78.1247 18.0833 78.4716 18.7437 78.6727 19.4537C78.8953 20.2296 79.0059 21.0333 79.0013 21.8405C79.006 22.6348 78.8765 23.4242 78.6182 24.1753C78.3753 24.879 77.9983 25.5289 77.5079 26.089C77.0152 26.6372 76.4138 27.0769 75.742 27.3801C75.0038 27.7051 74.2042 27.867 73.3977 27.8549L73.3959 27.8601ZM62.2258 10.6781H65.025V24.7539C64.9987 25.0257 65.0612 25.2988 65.2032 25.5321C65.2613 25.6069 65.3366 25.6667 65.4227 25.7062C65.5088 25.7458 65.6032 25.7641 65.6978 25.7596C65.904 25.7657 66.1095 25.7322 66.3032 25.661C66.4692 25.5987 66.662 25.52 66.8748 25.4362L67.3495 26.8777C67.1619 27.0072 66.9651 27.1228 66.7606 27.2236C66.5457 27.3343 66.3235 27.4302 66.0956 27.5107C65.8585 27.5929 65.6165 27.6599 65.3709 27.7113C65.1268 27.7615 64.8782 27.7873 64.629 27.7883C64.3279 27.7884 64.0278 27.7553 63.7339 27.6897C63.4526 27.6292 63.1902 27.5009 62.9695 27.3161C62.7289 27.1129 62.5429 26.8528 62.4282 26.5595C62.2807 26.1593 62.2126 25.7343 62.2275 25.3082L62.2258 10.6781ZM60.3934 26.4358C60.0025 26.646 59.6021 26.8362 59.1887 27.0117C58.7458 27.1991 58.2893 27.3529 57.8233 27.4718C57.2777 27.6103 56.7232 27.7112 56.1638 27.7736C55.4747 27.85 54.7817 27.8864 54.0884 27.8826C53.3057 27.8926 52.5265 27.7758 51.7812 27.5367C50.4684 27.1096 49.3298 26.2677 48.5366 25.1378C48.1369 24.5779 47.8094 23.9698 47.562 23.3279C47.3034 22.6642 47.1113 21.9765 46.9887 21.2749C46.8632 20.5556 46.8004 19.8268 46.801 19.0966C46.8002 18.3325 46.8764 17.5702 47.0285 16.8214C47.1729 16.1002 47.3959 15.397 47.6935 14.7243C47.983 14.078 48.3529 13.4708 48.7943 12.917C49.2268 12.3723 49.7377 11.8946 50.3102 11.4996C50.8965 11.0937 51.542 10.781 52.224 10.5726C52.9668 10.3418 53.7412 10.2283 54.519 10.2362C54.9272 10.2362 55.3034 10.2483 55.6432 10.2708C55.9599 10.2907 56.2752 10.3288 56.5875 10.385C56.872 10.4347 57.1518 10.5085 57.4238 10.6055C57.6984 10.7026 57.9655 10.8199 58.2228 10.9566C58.5121 11.106 58.7906 11.2753 59.0564 11.4633C59.3447 11.6593 59.6618 11.8899 60.0077 12.1551L58.4451 14.3093C58.1171 14.0036 57.7705 13.7185 57.4073 13.4557C57.1114 13.2412 56.7923 13.0604 56.4561 12.917C56.1453 12.785 55.8198 12.6904 55.4867 12.6351C55.1176 12.5789 54.7445 12.5523 54.3712 12.5555C53.7059 12.543 53.0492 12.7077 52.4687 13.0329C51.9091 13.3597 51.4319 13.8106 51.0738 14.3508C50.6776 14.9502 50.3882 15.6138 50.2186 16.312C50.0185 17.1034 49.9206 17.9171 49.9271 18.7334C49.9208 19.6026 50.0036 20.4702 50.1745 21.3225C50.3203 22.0874 50.5911 22.8231 50.9761 23.4999C51.3232 24.1061 51.8089 24.6214 52.3934 25.0038C53.0202 25.3889 53.7456 25.5831 54.481 25.5624C54.7204 25.5671 54.9598 25.5564 55.1979 25.5304C55.453 25.4984 55.7072 25.4785 55.9666 25.4387C56.2261 25.399 56.4812 25.3523 56.7285 25.2978C56.9758 25.2433 57.2058 25.1888 57.4203 25.1318V19.4295H60.3882L60.3934 26.4358ZM162.626 20.3107L166.431 16.0102H169.935L164.64 21.2031L170.279 27.6473H166.918L162.627 22.6153V27.6473H159.823V10.7577H162.627L162.626 20.3107ZM147.378 18.0061C147.378 17.7735 147.378 17.4795 147.358 17.1137C147.348 16.7435 147.307 16.3748 147.237 16.0111H149.878C149.904 16.0798 149.925 16.15 149.942 16.2212C149.962 16.3077 149.984 16.4089 150.011 16.5109C150.038 16.613 150.058 16.7263 150.078 16.8352C150.098 16.9442 150.11 17.0506 150.125 17.1439C150.319 16.9681 150.529 16.8092 150.751 16.6692C151.284 16.3249 151.874 16.0786 152.494 15.9419C152.842 15.8645 153.198 15.8262 153.555 15.8278C154.128 15.8235 154.698 15.918 155.239 16.1071C155.741 16.2822 156.203 16.5572 156.596 16.9156C156.988 17.2792 157.299 17.7211 157.509 18.2128C157.738 18.7602 157.851 19.349 157.843 19.9423V27.6482H155.041V20.4767C155.048 20.0772 155.001 19.6786 154.9 19.292C154.823 19.0025 154.681 18.7345 154.485 18.5085C154.302 18.3083 154.07 18.1592 153.812 18.0762C153.515 17.9818 153.206 17.9359 152.894 17.9404C152.678 17.9416 152.461 17.959 152.247 17.9923C152.009 18.0225 151.773 18.0705 151.542 18.1358C151.301 18.1989 151.064 18.2748 150.832 18.3633C150.607 18.4424 150.389 18.5393 150.179 18.653V27.6517H147.377L147.378 18.0061ZM141.608 21.5741C140.917 21.5887 140.229 21.6783 139.556 21.8413C139.101 21.9482 138.671 22.1404 138.288 22.4078C137.995 22.6126 137.768 22.8967 137.632 23.2267C137.509 23.5555 137.447 23.9045 137.451 24.2558C137.443 24.5227 137.479 24.7893 137.558 25.0444C137.618 25.2357 137.723 25.4096 137.865 25.5512C138.004 25.6826 138.174 25.7763 138.359 25.8236C138.559 25.8799 138.765 25.9073 138.973 25.9049C139.175 25.9049 139.381 25.8927 139.591 25.8755C139.812 25.8514 140.032 25.8091 140.246 25.7492C140.478 25.6862 140.704 25.6034 140.922 25.5019C141.167 25.3877 141.401 25.2511 141.621 25.0937L141.608 21.5741ZM134.793 17.5962C135.428 17.0266 136.168 16.586 136.972 16.2991C137.82 15.9851 138.718 15.8261 139.622 15.8295C140.229 15.8282 140.833 15.9014 141.422 16.0474C141.966 16.1764 142.484 16.3972 142.953 16.7003C143.393 16.9904 143.758 17.38 144.018 17.8375C144.293 18.3407 144.43 18.9074 144.416 19.4805V24.6734C144.413 24.8853 144.428 25.0971 144.461 25.3064C144.479 25.4472 144.528 25.5823 144.605 25.7016C144.67 25.7958 144.762 25.8681 144.869 25.9092C144.999 25.951 145.134 25.9703 145.27 25.9663C145.378 25.9619 145.487 25.9512 145.594 25.9343C145.759 25.9112 145.91 25.8864 146.046 25.8599L146.348 27.0965C146.175 27.2029 145.997 27.3014 145.819 27.3983C145.633 27.4967 145.44 27.5794 145.24 27.6456C145.023 27.7201 144.801 27.7779 144.575 27.8186C144.312 27.8625 144.046 27.8848 143.779 27.8852C143.301 27.8992 142.831 27.7681 142.429 27.509C142.25 27.3864 142.096 27.2296 141.977 27.0475C141.859 26.8654 141.777 26.6616 141.737 26.4479C141.453 26.7166 141.138 26.9514 140.8 27.1475C140.491 27.328 140.164 27.4764 139.825 27.5903C139.503 27.6967 139.172 27.7729 138.836 27.8177C138.52 27.8589 138.203 27.8812 137.885 27.8843C137.406 27.8879 136.93 27.8179 136.473 27.6768C136.077 27.553 135.712 27.3447 135.405 27.0662C135.106 26.7924 134.873 26.454 134.725 26.0769C134.555 25.63 134.471 25.155 134.478 24.6769C134.466 24.1423 134.56 23.6107 134.752 23.1117C134.925 22.6783 135.183 22.284 135.511 21.952C135.847 21.6208 136.238 21.3497 136.665 21.1504C137.132 20.9308 137.623 20.7648 138.127 20.6557C138.678 20.5295 139.237 20.4428 139.801 20.3963C140.39 20.3467 140.989 20.3219 141.599 20.3219V19.9017C141.608 19.5649 141.554 19.2294 141.441 18.9124C141.343 18.6582 141.19 18.4292 140.993 18.2422C140.793 18.0694 140.56 17.9398 140.308 17.8617C140.021 17.7765 139.724 17.7349 139.425 17.738C139.164 17.7356 138.903 17.7597 138.647 17.8098C138.389 17.8593 138.14 17.9425 137.905 18.0571C137.634 18.1902 137.376 18.3492 137.136 18.5319C136.825 18.7676 136.528 19.0221 136.248 19.2937L134.793 17.5962ZM124.778 12.9369V17.9525H126.351C126.838 17.9591 127.324 17.9086 127.8 17.802C128.197 17.718 128.575 17.5596 128.913 17.3351C129.21 17.131 129.452 16.8565 129.618 16.536C129.789 16.1826 129.874 15.7933 129.865 15.4006C129.872 15.0289 129.81 14.659 129.682 14.3101C129.557 13.9989 129.342 13.7325 129.063 13.5457C128.715 13.3202 128.324 13.1664 127.916 13.0934C127.333 12.982 126.74 12.9295 126.146 12.9369H124.778ZM124.778 20.1256V25.4759H127.05C127.572 25.4867 128.092 25.4107 128.589 25.2511C128.983 25.1211 129.349 24.9171 129.667 24.6501C129.935 24.4233 130.15 24.1394 130.295 23.819C130.428 23.5273 130.498 23.2104 130.5 22.8894C130.501 22.5235 130.431 22.1609 130.295 21.8214C130.157 21.482 129.938 21.1809 129.659 20.9437C129.333 20.6753 128.958 20.4737 128.554 20.3505C128.028 20.193 127.481 20.1186 126.932 20.13L124.778 20.1256ZM127.211 10.7585C127.989 10.75 128.764 10.8466 129.516 11.0456C130.137 11.2122 130.724 11.4912 131.245 11.8689C131.712 12.2188 132.092 12.6727 132.353 13.1946C132.618 13.7571 132.75 14.3732 132.739 14.995C132.741 15.4197 132.657 15.8405 132.491 16.2316C132.324 16.6346 132.093 17.0085 131.809 17.3394C131.516 17.6781 131.174 17.9716 130.795 18.2102C130.414 18.455 129.997 18.6394 129.559 18.7567C130.027 18.8447 130.482 18.9899 130.914 19.1891C131.382 19.4005 131.81 19.689 132.182 20.0426C132.58 20.4144 132.903 20.8584 133.134 21.351C133.392 21.9125 133.519 22.5256 133.505 23.1437C133.503 23.7233 133.375 24.2957 133.129 24.8204C132.864 25.3776 132.48 25.8698 132.004 26.262C131.461 26.713 130.835 27.0556 130.162 27.2712C129.342 27.5395 128.483 27.6681 127.62 27.6517H121.805V10.7603L127.211 10.7585Z" fill="#58595B"/>
<path fill-rule="evenodd" clip-rule="evenodd" d="M19.4849 0.16848C23.2541 0.174293 26.937 1.2973 30.0681 3.39557C33.1993 5.49385 35.6381 8.47322 37.0765 11.9572C38.5149 15.4411 38.8882 19.2732 38.1493 22.9693C37.4104 26.6653 35.5925 30.0594 32.9252 32.7226C30.2579 35.3857 26.8611 37.1985 23.1639 37.9317C19.4667 38.6649 15.6351 38.2856 12.1534 36.8419C8.67168 35.3981 5.69607 32.9547 3.60263 29.8203C1.50918 26.6859 0.39185 23.0014 0.391846 19.2322C0.391843 16.7262 0.885912 14.2448 1.84579 11.93C2.80567 9.61518 4.21252 7.51231 5.98586 5.7417C7.7592 3.97109 9.86424 2.56748 12.1805 1.61117C14.4969 0.654859 16.979 0.164615 19.4849 0.16848Z" fill="#717171"/>
<path fill-rule="evenodd" clip-rule="evenodd" d="M21.0387 22.4941V18.9036L25.5943 18.933C27.7882 18.9477 28.8562 20.7015 28.8562 22.5339C28.8562 27.6005 21.0517 28.6867 21.0439 22.4941M21.0439 12.9705C29.4468 8.5602 30.1888 18.2455 25.1144 17.7855H21.024L21.0439 12.9705ZM28.3659 18.2282C34.3898 15.9211 29.3552 6.93964 19.4951 12.4957C18.4831 11.6704 17.2775 11.1165 15.992 10.8864C13.556 10.3918 10.2897 10.8224 8.45731 12.5295L9.34283 13.3942C10.2918 12.5768 11.4534 12.0459 12.6925 11.8634C13.9316 11.6809 15.197 11.8543 16.3414 12.3634C16.7242 12.5452 17.0616 12.8105 17.3285 13.1397C17.5955 13.4689 17.7853 13.8537 17.8841 14.2659L17.9282 22.5183C17.5667 28.2508 10.1834 27.8081 10.1851 22.5183V18.8976H15.992V17.8045H7.12817V21.3682C7.15066 28.1419 15.3901 29.2816 19.4709 25.9852C21.1398 27.2225 23.1821 27.8509 25.2579 27.7657C32.5729 27.7164 34.0785 19.8272 28.3468 18.2231L28.3659 18.2282Z" fill="white"/>
</g>
<defs>
<clipPath id="clip0_51_1551">
<rect width="169.885" height="38.1274" fill="white" transform="translate(0.391846 0.168457)"/>
</clipPath>
</defs>
</svg>
