<svg width="105" height="29" viewBox="0 0 105 29" fill="none" xmlns="http://www.w3.org/2000/svg">
<g clip-path="url(#clip0_82_7322)">
<path d="M103.565 7.60205C103.798 7.6037 104.026 7.66373 104.23 7.77664C104.444 7.89103 104.619 8.06489 104.736 8.27713C104.854 8.48418 104.916 8.71819 104.917 8.95644C104.916 9.19244 104.855 9.42428 104.738 9.62941C104.623 9.84098 104.449 10.015 104.238 10.131C104.032 10.2474 103.8 10.3087 103.564 10.3087C103.328 10.3087 103.096 10.2474 102.891 10.131C102.679 10.0148 102.505 9.84084 102.389 9.62941C102.271 9.42366 102.209 9.19053 102.209 8.95327C102.209 8.716 102.271 8.48288 102.389 8.27713C102.506 8.06459 102.682 7.89067 102.896 7.77664C103.101 7.66296 103.331 7.6029 103.565 7.60205ZM103.565 7.82637C103.371 7.82795 103.181 7.87817 103.012 7.97239C102.834 8.06794 102.687 8.21309 102.589 8.39035C102.49 8.56169 102.438 8.75601 102.438 8.9538C102.438 9.15159 102.49 9.3459 102.589 9.51725C102.687 9.69417 102.834 9.83922 103.012 9.9352C103.183 10.0336 103.377 10.0854 103.574 10.0854C103.771 10.0854 103.964 10.0336 104.135 9.9352C104.314 9.8398 104.461 9.69461 104.558 9.51725C104.656 9.34634 104.707 9.15312 104.707 8.95644C104.707 8.75786 104.654 8.56285 104.556 8.39035C104.458 8.21309 104.311 8.06794 104.133 7.97239C103.959 7.876 103.763 7.82573 103.565 7.82637ZM102.971 9.70771V8.2475H103.47C103.596 8.24171 103.721 8.25563 103.842 8.28877C103.917 8.31371 103.982 8.3633 104.025 8.4295C104.069 8.49135 104.093 8.56521 104.094 8.64112C104.094 8.6928 104.084 8.74405 104.065 8.79185C104.045 8.83965 104.016 8.88302 103.979 8.91941C103.899 9.00067 103.791 9.04834 103.677 9.05273C103.723 9.07001 103.765 9.09627 103.801 9.12997C103.882 9.21802 103.953 9.31492 104.012 9.41884L104.19 9.70347H103.902L103.773 9.47386C103.712 9.3471 103.629 9.23238 103.528 9.13526C103.472 9.09786 103.406 9.07999 103.339 9.08447H103.202V9.70771H102.971ZM103.206 8.88766H103.491C103.588 8.89734 103.685 8.87624 103.77 8.82735C103.794 8.80792 103.813 8.78319 103.826 8.7551C103.839 8.72701 103.845 8.69633 103.844 8.66546C103.845 8.62414 103.832 8.58368 103.808 8.55012C103.783 8.51527 103.749 8.48871 103.709 8.47394C103.632 8.45264 103.552 8.44407 103.473 8.44855H103.206V8.88766Z" fill="#58595B"/>
<path d="M17.1765 8.35584C19.4205 8.35584 21.2396 6.5367 21.2396 4.29267C21.2396 2.04864 19.4205 0.229492 17.1765 0.229492C14.9324 0.229492 13.1133 2.04864 13.1133 4.29267C13.1133 6.5367 14.9324 8.35584 17.1765 8.35584Z" fill="#B1B1B1"/>
<path d="M22.9316 26.2313C25.1756 26.2313 26.9948 24.4122 26.9948 22.1682C26.9948 19.9241 25.1756 18.105 22.9316 18.105C20.6876 18.105 18.8684 19.9241 18.8684 22.1682C18.8684 24.4122 20.6876 26.2313 22.9316 26.2313Z" fill="#B1B1B1"/>
<path d="M4.6496 22.4403C6.89363 22.4403 8.71278 20.6212 8.71278 18.3771C8.71278 16.1331 6.89363 14.314 4.6496 14.314C2.40557 14.314 0.586426 16.1331 0.586426 18.3771C0.586426 20.6212 2.40557 22.4403 4.6496 22.4403Z" fill="#B1B1B1"/>
<path d="M5.19136 12.8236C6.64998 12.8236 7.83242 11.6412 7.83242 10.1826C7.83242 8.72395 6.64998 7.5415 5.19136 7.5415C3.73274 7.5415 2.55029 8.72395 2.55029 10.1826C2.55029 11.6412 3.73274 12.8236 5.19136 12.8236Z" fill="#636363"/>
<path d="M24.083 11.7416C25.5416 11.7416 26.724 10.5592 26.724 9.10054C26.724 7.64192 25.5416 6.45947 24.083 6.45947C22.6243 6.45947 21.4419 7.64192 21.4419 9.10054C21.4419 10.5592 22.6243 11.7416 24.083 11.7416Z" fill="#636363"/>
<path d="M15.416 28.2631C16.8746 28.2631 18.057 27.0806 18.057 25.622C18.057 24.1634 16.8746 22.981 15.416 22.981C13.9573 22.981 12.7749 24.1634 12.7749 25.622C12.7749 27.0806 13.9573 28.2631 15.416 28.2631Z" fill="#636363"/>
<path d="M9.18561 25.9606C10.1954 25.9606 11.014 25.142 11.014 24.1321C11.014 23.1223 10.1954 22.3037 9.18561 22.3037C8.17579 22.3037 7.35718 23.1223 7.35718 24.1321C7.35718 25.142 8.17579 25.9606 9.18561 25.9606Z" fill="#D1D1D1"/>
<path d="M25.8436 16.8868C26.8534 16.8868 27.672 16.0682 27.672 15.0584C27.672 14.0486 26.8534 13.23 25.8436 13.23C24.8338 13.23 24.0151 14.0486 24.0151 15.0584C24.0151 16.0682 24.8338 16.8868 25.8436 16.8868Z" fill="#D1D1D1"/>
<path d="M9.5921 7.40735C10.6019 7.40735 11.4205 6.58873 11.4205 5.57892C11.4205 4.5691 10.6019 3.75049 9.5921 3.75049C8.58229 3.75049 7.76367 4.5691 7.76367 5.57892C7.76367 6.58873 8.58229 7.40735 9.5921 7.40735Z" fill="#D1D1D1"/>
<path d="M40.3154 28.6478V8.10759H42.511V10.7032C43.0316 9.70711 43.7194 8.94245 44.5744 8.40916C45.4309 7.87549 46.4222 7.59793 47.4313 7.60922C49.3761 7.60922 50.9382 8.28853 52.1177 9.64715C53.2971 11.0058 53.8865 12.807 53.8858 15.051C53.8858 17.3351 53.3088 19.1491 52.1547 20.4929C51.0007 21.8367 49.4565 22.5093 47.5223 22.5107C46.4112 22.5107 45.4434 22.2515 44.6188 21.733C43.7942 21.2145 43.1212 20.4421 42.5999 19.4157V28.6478H40.3154ZM42.5375 15.0467C42.5375 16.5986 42.9551 17.8416 43.7903 18.7755C44.6255 19.7095 45.7319 20.1786 47.1096 20.1828C48.4541 20.1828 49.5122 19.755 50.284 18.8993C51.0557 18.0437 51.4412 16.8561 51.4405 15.3367C51.4405 13.6359 51.055 12.3027 50.284 11.337C49.5129 10.3713 48.4397 9.88805 47.0641 9.88735C45.6589 9.88735 44.5535 10.3459 43.748 11.2629C42.9424 12.1799 42.5399 13.4426 42.5407 15.051L42.5375 15.0467Z" fill="#58595B"/>
<path d="M68.7694 8.10793V21.9195H66.5294V19.4139C65.989 20.4198 65.2988 21.1873 64.4587 21.7164C63.6147 22.2462 62.6362 22.522 61.6398 22.511C59.7042 22.511 58.1445 21.8293 56.9608 20.4657C55.7771 19.1021 55.1853 17.2973 55.1853 15.0513C55.1853 12.777 55.7602 10.968 56.91 9.62421C58.0599 8.2804 59.5973 7.61026 61.5224 7.61378C62.651 7.61378 63.6308 7.87302 64.4618 8.3915C65.2928 8.90998 65.9629 9.68205 66.4722 10.7077V8.10793H68.7694ZM66.5294 15.1423C66.5294 13.5826 66.1143 12.327 65.284 11.3754C64.4537 10.4238 63.3706 9.94835 62.0345 9.94905C60.6498 9.94905 59.5691 10.3868 58.7924 11.2622C58.0158 12.1376 57.6278 13.3604 57.6285 14.9307C57.6285 16.6011 58.0189 17.8892 58.7998 18.7949C59.5807 19.7007 60.6886 20.1535 62.1234 20.1535C63.4989 20.1535 64.5772 19.7134 65.3581 18.833C66.1389 17.9527 66.5294 16.7224 66.5294 15.1423Z" fill="#58595B"/>
<path d="M84.5787 8.10816V21.6785C84.5787 23.1775 84.4806 24.2445 84.2845 24.8793C84.0882 25.5115 83.7564 26.0933 83.3121 26.584C82.6801 27.2811 81.8886 27.8148 81.0054 28.1394C80.0968 28.4787 79.0532 28.6483 77.8744 28.6483C75.8287 28.6483 74.2345 28.1704 73.0917 27.2146C71.949 26.2588 71.3522 24.9051 71.3014 23.1535H73.8948V23.3345C73.8948 24.3714 74.2437 25.1717 74.9413 25.7353C75.639 26.299 76.6266 26.5811 77.9041 26.5818C78.8274 26.5818 79.6161 26.4284 80.27 26.1216C80.9 25.8353 81.4233 25.3572 81.7651 24.7555C81.9802 24.3889 82.1295 23.9875 82.2064 23.5694C82.2953 23.1165 82.3393 22.4675 82.3386 21.6224V19.2946C81.818 20.2822 81.1356 21.0394 80.2912 21.5664C79.4382 22.0967 78.4513 22.3717 77.447 22.3589C75.5106 22.3589 73.9509 21.6845 72.768 20.3358C71.585 18.987 70.9931 17.1956 70.9924 14.9616C70.9924 12.7043 71.567 10.9157 72.7161 9.59587C73.8652 8.27604 75.4027 7.61437 77.3284 7.61084C78.4486 7.61084 79.4313 7.87008 80.2764 8.38856C81.1214 8.90704 81.7895 9.66923 82.2804 10.6752V8.10816H84.5787ZM82.3386 15.0515C82.3386 13.4996 81.9263 12.2517 81.1017 11.3079C80.2771 10.3641 79.1914 9.89108 77.8448 9.88897C76.4594 9.88897 75.3787 10.3267 74.6027 11.2021C73.8268 12.0775 73.4388 13.3003 73.4388 14.8706C73.4388 16.5417 73.8292 17.8298 74.6101 18.7348C75.391 19.6399 76.4992 20.0928 77.9347 20.0935C79.3103 20.0935 80.3885 19.6484 81.1694 18.7581C81.9503 17.8679 82.34 16.6324 82.3386 15.0515Z" fill="#58595B"/>
<path d="M100.447 8.10793V21.9195H98.2073V19.4139C97.6677 20.4205 96.9767 21.188 96.1344 21.7164C95.2905 22.2462 94.312 22.522 93.3156 22.511C91.3792 22.511 89.8196 21.8293 88.6366 20.4657C87.4536 19.1021 86.8618 17.2973 86.8611 15.0513C86.8611 12.777 87.4356 10.968 88.5848 9.62421C89.7339 8.2804 91.2713 7.61026 93.1971 7.61378C94.3258 7.61378 95.3059 7.87302 96.1376 8.3915C96.9693 8.90998 97.6394 9.68205 98.148 10.7077V8.10793H100.447ZM98.2073 15.1423C98.2073 13.5826 97.7925 12.327 96.9629 11.3754C96.1334 10.4238 95.0502 9.94835 93.7135 9.94905C92.328 9.94905 91.2473 10.3868 90.4714 11.2622C89.6954 12.1376 89.3075 13.3604 89.3075 14.9307C89.3075 16.6011 89.6979 17.8892 90.4788 18.7949C91.2597 19.7007 92.3689 20.1535 93.8066 20.1535C95.1821 20.1535 96.2604 19.7134 97.0412 18.833C97.8221 17.9527 98.2108 16.7224 98.2073 15.1423Z" fill="#58595B"/>
</g>
<defs>
<clipPath id="clip0_82_7322">
<rect width="104.436" height="28.4634" fill="white" transform="translate(0.530518 0.189453)"/>
</clipPath>
</defs>
</svg>
