<svg width="230" height="32" viewBox="0 0 230 32" fill="none" xmlns="http://www.w3.org/2000/svg">
<g clip-path="url(#clip0_51_1518)">
<path d="M43.8556 0L39.6131 13.4749H39.6102L35.405 26.9584H20.4671L24.6751 13.4749L7.74817 13.4778L11.9476 0H43.8556Z" fill="#AAAAAA"/>
<g style="mix-blend-mode:multiply">
<g style="mix-blend-mode:multiply">
<path d="M36.7186 5.01562L32.4761 18.4934H32.4732L28.2652 31.974H13.3301L17.5353 18.4934L0.611206 18.4963L4.80774 5.01562H36.7186Z" fill="#AAAAAA"/>
</g>
</g>
<path d="M68.6353 4.9785V25.2943H63.9098V4.9785H55.8933V0.109375H76.6518V4.9785H68.6353Z" fill="#AAAAAA"/>
<path d="M93.4523 17.4068H80.5178C80.8282 21.244 82.5298 22.4426 84.7316 22.4426C86.7436 22.4426 88.2268 21.313 88.5343 19.3613H93.2626C92.3371 23.6067 88.9109 25.7654 84.6396 25.7654C79.6411 25.7654 75.7694 22.6496 75.7694 16.2427C75.7694 10.6578 79.4342 6.58203 85.019 6.58203C90.6039 6.58203 93.5299 10.8303 93.5299 15.8087C93.5347 16.3424 93.5087 16.876 93.4523 17.4068ZM80.65 14.3255H88.6666C88.359 11.4512 87.0569 9.90477 84.7948 9.90477C82.6017 9.90477 81.0611 11.3103 80.65 14.3255Z" fill="#AAAAAA"/>
<path d="M101.041 19.3272C101.041 20.0458 101.041 20.5258 101.075 21.0058C101.176 21.9285 101.587 22.2389 103.199 22.1354V25.3892C102.232 25.49 101.26 25.5361 100.287 25.5271C97.9564 25.5271 96.4847 24.6648 96.3812 22.305C96.3123 21.4829 96.3123 20.6293 96.3123 19.4307V0.109375H101.041V19.3272Z" fill="#AAAAAA"/>
<path d="M110.598 19.3272C110.598 20.0458 110.598 20.5258 110.632 21.0058C110.733 21.9285 111.144 22.2389 112.753 22.1354V25.3892C111.786 25.4901 110.814 25.5362 109.842 25.5271C107.513 25.5271 106.042 24.6648 105.938 22.305C105.869 21.4829 105.869 20.6293 105.869 19.4307V0.109375H110.598V19.3272Z" fill="#AAAAAA"/>
<path d="M132.04 17.4068H119.091C119.399 21.244 121.103 22.4426 123.305 22.4426C125.317 22.4426 126.8 21.313 127.108 19.3613H131.833C130.911 23.6067 127.484 25.7654 123.21 25.7654C118.209 25.7654 114.337 22.6496 114.337 16.2427C114.337 10.6578 118.005 6.58203 123.587 6.58203C129.169 6.58203 132.109 10.8303 132.109 15.8087C132.117 16.3422 132.094 16.8758 132.04 17.4068ZM119.229 14.3255H127.243C126.936 11.4512 125.633 9.90477 123.374 9.90477C121.181 9.90477 119.64 11.3103 119.229 14.3255Z" fill="#AAAAAA"/>
<path d="M145.981 6.75459V10.5573C142.043 10.2699 140.088 12.029 140.088 16.9269V25.2941H135.363V7.06214H140.088V10.3849L141.526 7.84971C142.379 7.0705 143.488 6.62996 144.644 6.61087C145.094 6.60002 145.544 6.64834 145.981 6.75459Z" fill="#AAAAAA"/>
<path d="M167.323 15.8316C167.323 22.4081 163.279 25.7654 158.588 25.7654C157.079 25.7654 155.23 25.3888 154.305 24.7392L153.106 22.8537V31.9998H148.378V7.06205H153.106V9.83578L154.475 7.84961C155.504 7.02755 157.349 6.58203 159.203 6.58203C164.308 6.58203 167.323 10.4538 167.323 15.8316ZM162.436 16.1392C162.436 12.4026 160.657 9.90477 157.837 9.90477C155.236 9.90477 153.112 11.5144 153.112 15.9696V16.8319C153.112 20.9767 155.475 22.4484 157.668 22.4484C160.401 22.4426 162.436 20.353 162.436 16.1392Z" fill="#AAAAAA"/>
<path d="M188.593 16.1737C188.593 21.6896 185.201 25.7654 179.136 25.7654C173.071 25.7654 169.683 21.6896 169.683 16.1737C169.683 10.6578 173.071 6.58203 179.136 6.58203C185.201 6.58203 188.593 10.6348 188.593 16.1737ZM183.707 16.1737C183.707 12.2359 181.982 9.90477 179.148 9.90477C176.314 9.90477 174.592 12.2359 174.592 16.1737C174.592 20.1115 176.317 22.4426 179.148 22.4426C181.979 22.4426 183.707 20.0799 183.707 16.1737Z" fill="#AAAAAA"/>
<path d="M196.129 2.50067C196.129 4.00683 195.066 5.00135 193.525 5.00135C191.985 5.00135 190.921 4.00683 190.921 2.50067C190.921 0.994521 191.985 0 193.525 0C195.066 0 196.129 1.02614 196.129 2.50067Z" fill="#AAAAAA"/>
<path d="M195.891 7.06201H191.162V25.2853H195.891V7.06201Z" fill="#AAAAAA"/>
<path d="M215.586 15.0096V25.294H210.858V15.6592C210.858 14.9061 210.858 14.0496 210.789 13.1269C210.653 11.2068 209.59 9.90477 207.296 9.90477C205.003 9.90477 203.183 11.8909 203.183 16.9584V25.294H198.458V7.06205H203.183V10.0082L204.589 7.84961C205.891 6.92408 207.227 6.58203 208.975 6.58203C212.844 6.58203 215.071 8.50209 215.448 11.6869C215.558 12.7909 215.604 13.9003 215.586 15.0096Z" fill="#AAAAAA"/>
<path d="M225.384 18.7434C225.384 19.3614 225.384 19.873 225.419 20.353C225.554 22.1351 226.569 22.5116 229.213 22.3076V25.294C228.066 25.5343 226.898 25.6595 225.726 25.6677C222.197 25.6677 220.932 24.5179 220.725 21.931C220.656 21.109 220.656 20.3214 220.656 19.2952V10.3158H217.986V7.01607H220.656V2.50049H225.384V7.01607H229.15V10.3158H225.384V18.7434Z" fill="#AAAAAA"/>
</g>
<defs>
<clipPath id="clip0_51_1518">
<rect width="228.599" height="32" fill="white" transform="translate(0.611206)"/>
</clipPath>
</defs>
</svg>
