<svg width="229" height="32" viewBox="0 0 229 32" fill="none" xmlns="http://www.w3.org/2000/svg">
<g style="mix-blend-mode:multiply">
<path d="M36.3173 5.13477L32.0747 18.6125H32.0719L27.8638 32.0932H12.9288L17.1339 18.6125L0.209839 18.6154L4.40637 5.13477H36.3173Z" fill="#393939"/>
<path d="M43.4542 0.119141L39.2117 13.594H39.2088L35.0037 27.0776H20.0657L24.2738 13.594L7.3468 13.5969L11.5462 0.119141H43.4542Z" fill="#AAAAAA"/>
</g>
<path fill-rule="evenodd" clip-rule="evenodd" d="M9.98344 5.13477H36.3172L32.0747 18.6125H32.0718L29.4294 27.0776H20.0657L24.2738 13.594L7.3468 13.5969L9.98344 5.13477Z" fill="#717171"/>
<path d="M68.024 4.9785V25.2943H63.2986V4.9785H55.2821V0.109375H76.0406V4.9785H68.024Z" fill="#AAAAAA"/>
<path d="M92.8411 17.4068H79.9066C80.217 21.244 81.9186 22.4426 84.1204 22.4426C86.1324 22.4426 87.6156 21.313 87.9231 19.3613H92.6514C91.7259 23.6067 88.2997 25.7654 84.0284 25.7654C79.0299 25.7654 75.1582 22.6496 75.1582 16.2427C75.1582 10.6578 78.823 6.58203 84.4078 6.58203C89.9927 6.58203 92.9187 10.8303 92.9187 15.8087C92.9234 16.3424 92.8975 16.876 92.8411 17.4068ZM80.0388 14.3255H88.0554C87.7478 11.4512 86.4457 9.90477 84.1836 9.90477C81.9905 9.90477 80.4499 11.3103 80.0388 14.3255Z" fill="#AAAAAA"/>
<path d="M100.429 19.3272C100.429 20.0458 100.429 20.5258 100.464 21.0058C100.564 21.9285 100.975 22.2389 102.588 22.1354V25.3892C101.621 25.49 100.649 25.5361 99.6763 25.5271C97.3452 25.5271 95.8735 24.6648 95.77 22.305C95.701 21.4829 95.701 20.6293 95.701 19.4307V0.109375H100.429V19.3272Z" fill="#AAAAAA"/>
<path d="M109.986 19.3272C109.986 20.0458 109.986 20.5258 110.021 21.0058C110.122 21.9285 110.533 22.2389 112.142 22.1354V25.3892C111.175 25.4901 110.203 25.5362 109.231 25.5271C106.902 25.5271 105.431 24.6648 105.327 22.305C105.258 21.4829 105.258 20.6293 105.258 19.4307V0.109375H109.986V19.3272Z" fill="#AAAAAA"/>
<path d="M131.429 17.4068H118.48C118.788 21.244 120.492 22.4426 122.694 22.4426C124.706 22.4426 126.189 21.313 126.497 19.3613H131.222C130.3 23.6067 126.873 25.7654 122.599 25.7654C117.598 25.7654 113.726 22.6496 113.726 16.2427C113.726 10.6578 117.394 6.58203 122.976 6.58203C128.558 6.58203 131.498 10.8303 131.498 15.8087C131.506 16.3422 131.483 16.8758 131.429 17.4068ZM118.618 14.3255H126.632C126.324 11.4512 125.022 9.90477 122.763 9.90477C120.57 9.90477 119.029 11.3103 118.618 14.3255Z" fill="#AAAAAA"/>
<path d="M145.37 6.75459V10.5573C141.432 10.2699 139.477 12.029 139.477 16.9269V25.2941H134.752V7.06214H139.477V10.3849L140.914 7.84971C141.768 7.0705 142.877 6.62996 144.033 6.61087C144.483 6.60002 144.932 6.64834 145.37 6.75459Z" fill="#AAAAAA"/>
<path d="M166.712 15.8316C166.712 22.4081 162.667 25.7654 157.976 25.7654C156.467 25.7654 154.619 25.3888 153.694 24.7392L152.495 22.8537V31.9998H147.767V7.06205H152.495V9.83578L153.863 7.84961C154.892 7.02755 156.738 6.58203 158.592 6.58203C163.696 6.58203 166.712 10.4538 166.712 15.8316ZM161.825 16.1392C161.825 12.4026 160.046 9.90477 157.226 9.90477C154.625 9.90477 152.501 11.5144 152.501 15.9696V16.8319C152.501 20.9767 154.864 22.4484 157.057 22.4484C159.79 22.4426 161.825 20.353 161.825 16.1392Z" fill="#AAAAAA"/>
<path d="M187.982 16.1737C187.982 21.6896 184.59 25.7654 178.525 25.7654C172.46 25.7654 169.071 21.6896 169.071 16.1737C169.071 10.6578 172.46 6.58203 178.525 6.58203C184.59 6.58203 187.982 10.6348 187.982 16.1737ZM183.095 16.1737C183.095 12.2359 181.371 9.90477 178.537 9.90477C175.703 9.90477 173.981 12.2359 173.981 16.1737C173.981 20.1115 175.705 22.4426 178.537 22.4426C181.368 22.4426 183.095 20.0799 183.095 16.1737Z" fill="#AAAAAA"/>
<path d="M195.518 2.50067C195.518 4.00683 194.455 5.00135 192.914 5.00135C191.373 5.00135 190.31 4.00683 190.31 2.50067C190.31 0.994521 191.373 0 192.914 0C194.455 0 195.518 1.02614 195.518 2.50067Z" fill="#AAAAAA"/>
<path d="M195.28 7.06201H190.551V25.2853H195.28V7.06201Z" fill="#AAAAAA"/>
<path d="M214.975 15.0096V25.294H210.246V15.6592C210.246 14.9061 210.246 14.0496 210.177 13.1269C210.042 11.2068 208.979 9.90477 206.685 9.90477C204.391 9.90477 202.572 11.8909 202.572 16.9584V25.294H197.846V7.06205H202.572V10.0082L203.977 7.84961C205.279 6.92408 206.616 6.58203 208.364 6.58203C212.232 6.58203 214.46 8.50209 214.837 11.6869C214.947 12.7909 214.993 13.9003 214.975 15.0096Z" fill="#AAAAAA"/>
<path d="M224.773 18.7434C224.773 19.3614 224.773 19.873 224.808 20.353C224.943 22.1351 225.957 22.5116 228.602 22.3076V25.294C227.455 25.5343 226.287 25.6595 225.115 25.6677C221.586 25.6677 220.321 24.5179 220.114 21.931C220.045 21.109 220.045 20.3214 220.045 19.2952V10.3158H217.375V7.01607H220.045V2.50049H224.773V7.01607H228.539V10.3158H224.773V18.7434Z" fill="#AAAAAA"/>
</svg>
